<?xml version="1.0" encoding="utf-8"?>
<!-- Generator: Adobe Illustrator 27.5.0, SVG Export Plug-In . SVG Version: 6.00 Build 0)  -->
<svg version="1.1" xmlns="http://www.w3.org/2000/svg" xmlns:xlink="http://www.w3.org/1999/xlink" x="0px" y="0px"
	 viewBox="0 0 750 500" style="enable-background:new 0 0 750 500;" xml:space="preserve">
<g id="BACKGROUND">
	<rect style="fill:#FFFFFF;" width="750" height="500"/>
</g>
<g id="OBJECTS">
	<g>
		<g>
			<g>
				<path style="fill:none;stroke:#CEDBED;stroke-width:2.1348;stroke-miterlimit:10;" d="M678.49,243.819
					c-3.663,63.744-25.626,125.656-44.635,168.433"/>
				<path style="fill:none;stroke:#CEDBED;stroke-width:2.1348;stroke-miterlimit:10;" d="M672.869,234.275
					c-1.904,67.119-25.608,133.373-45.543,177.767"/>
				<path style="fill:none;stroke:#CEDBED;stroke-width:2.1348;stroke-miterlimit:10;" d="M666.941,222.1
					c0.906,71.035-24.912,142.84-45.977,189.343"/>
			</g>
			<g>
				<path style="fill:none;stroke:#CEDBED;stroke-width:2.1348;stroke-miterlimit:10;" d="M122.481,411.611
					c-12.363-25.985-38.471-83.818-50.644-132.903c-1.201-4.843-2.252-9.792-3.15-14.814"/>
				<path style="fill:none;stroke:#CEDBED;stroke-width:2.1348;stroke-miterlimit:10;" d="M128.921,411.068
					c-11.808-24.661-38.828-83.869-51.214-133.816c-1.997-8.051-3.567-16.404-4.701-24.901"/>
				<path style="fill:none;stroke:#CEDBED;stroke-width:2.1348;stroke-miterlimit:10;" d="M135.593,410.993
					c-10.956-22.694-39.308-83.945-52.017-135.196c-2.705-10.909-4.608-22.388-5.681-34.02"/>
			</g>
			<path style="fill:#CEDBED;" d="M145.377,417.195c0,0-40.321-79.903-55.932-142.854C71.808,203.223,84.881,84.838,191.499,88.404
				c110.476,3.695,202.298,3.023,260.75-10.078c58.452-13.101,154.192-32.904,193.496,63.667
				c39.304,96.571-6.719,217.002-34.097,275.202H145.377z"/>
			<linearGradient id="SVGID_1_" gradientUnits="userSpaceOnUse" x1="347.8127" y1="123.6794" x2="255.0959" y2="377.6425">
				<stop  offset="0.0532" style="stop-color:#A1C1ED"/>
				<stop  offset="1" style="stop-color:#A1C1ED;stop-opacity:0"/>
			</linearGradient>
			<path style="fill:url(#SVGID_1_);" d="M483.75,417.195c-9.933-125.837-83.031-130.215-83.031-130.215
				c-26.749-80.682-84.426-93.904-109.911-95.679c-7.329-0.51-13.705-4.977-16.926-11.579
				c-14.816-30.375-45.878-31.079-62.511-28.974c-6.783,0.858-13.514-1.728-17.99-6.895c-25.803-29.787-59.164-28.019-82.174-21.57
				c-31.704,39.701-33.222,105.852-21.763,152.06c15.611,62.951,55.932,142.854,55.932,142.854H483.75z"/>
			
				<linearGradient id="SVGID_00000146463784184051421950000006199435630256677778_" gradientUnits="userSpaceOnUse" x1="457.8866" y1="52.0905" x2="512.9055" y2="309.07">
				<stop  offset="0.0532" style="stop-color:#A1C1ED"/>
				<stop  offset="1" style="stop-color:#A1C1ED;stop-opacity:0"/>
			</linearGradient>
			<path style="fill:url(#SVGID_00000146463784184051421950000006199435630256677778_);" d="M657.803,185.472
				c-7.924-4.029-18.555-7.084-32.478-6.852c-5.575,0.093-10.876-2.576-14.047-7.162c-13.174-19.053-40.162-31.708-65.751-18.539
				c-4.284,2.205-9.266,2.556-13.766,0.833c-17.645-6.757-63.677-17.611-89.686,39.024c-2.604,5.67-8.04,9.492-14.263,9.942
				c-15.735,1.137-45.973,11.562-60.249,71.764c-14.248,60.086-7.667,116.078-2.867,142.715h246.953
				C635.036,367.478,672.019,272.348,657.803,185.472z"/>
		</g>
		<ellipse style="fill:#CEDBED;" cx="436.446" cy="419.615" rx="137.993" ry="3.865"/>
		<g>
			
				<path style="fill:none;stroke:#80371D;stroke-width:0.7626;stroke-linecap:round;stroke-linejoin:round;stroke-miterlimit:10;" d="
				M63.408,340.863c0,0,14.408,31.689,38.947,52.194"/>
			
				<path style="fill:none;stroke:#80371D;stroke-width:0.7626;stroke-linecap:round;stroke-linejoin:round;stroke-miterlimit:10;" d="
				M66.556,339.631c0.547,1.876-0.529,3.84-2.405,4.387c-1.876,0.547-3.84-0.53-4.387-2.405c-0.547-1.876,0.529-3.84,2.405-4.387
				C64.045,336.678,66.009,337.755,66.556,339.631z"/>
			
				<path style="fill:none;stroke:#80371D;stroke-width:0.7626;stroke-linecap:round;stroke-linejoin:round;stroke-miterlimit:10;" d="
				M62.141,349.258c0.547,1.876-0.529,3.84-2.405,4.387c-1.876,0.547-3.84-0.53-4.387-2.405c-0.547-1.876,0.53-3.84,2.405-4.387
				C59.63,346.306,61.594,347.383,62.141,349.258z"/>
			
				<path style="fill:none;stroke:#80371D;stroke-width:0.7626;stroke-linecap:round;stroke-linejoin:round;stroke-miterlimit:10;" d="
				M70.967,371.895c0.547,1.876-0.53,3.84-2.405,4.387c-1.876,0.547-3.84-0.53-4.387-2.405c-0.547-1.876,0.529-3.84,2.405-4.387
				C68.455,368.942,70.419,370.019,70.967,371.895z"/>
			
				<path style="fill:none;stroke:#80371D;stroke-width:0.7626;stroke-linecap:round;stroke-linejoin:round;stroke-miterlimit:10;" d="
				M63.099,360.375c0.547,1.876-0.53,3.84-2.405,4.387c-1.876,0.547-3.84-0.53-4.387-2.405c-0.547-1.876,0.53-3.84,2.405-4.387
				C60.587,357.423,62.551,358.5,63.099,360.375z"/>
			
				<path style="fill:none;stroke:#80371D;stroke-width:0.7626;stroke-linecap:round;stroke-linejoin:round;stroke-miterlimit:10;" d="
				M76.545,342.148c0.547,1.876-0.53,3.84-2.405,4.387c-1.876,0.547-3.84-0.53-4.387-2.405c-0.547-1.876,0.53-3.84,2.405-4.387
				C74.033,339.195,75.997,340.272,76.545,342.148z"/>
			
				<path style="fill:none;stroke:#80371D;stroke-width:0.7626;stroke-linecap:round;stroke-linejoin:round;stroke-miterlimit:10;" d="
				M84.631,349.031c0.547,1.876-0.53,3.84-2.405,4.387c-1.876,0.547-3.84-0.53-4.387-2.405c-0.547-1.876,0.53-3.84,2.405-4.387
				C82.12,346.078,84.084,347.155,84.631,349.031z"/>
			
				<path style="fill:none;stroke:#80371D;stroke-width:0.7626;stroke-linecap:round;stroke-linejoin:round;stroke-miterlimit:10;" d="
				M58.745,350.249c0,0,2.721,3.165,12.088,4.403"/>
			
				<path style="fill:none;stroke:#80371D;stroke-width:0.7626;stroke-linecap:round;stroke-linejoin:round;stroke-miterlimit:10;" d="
				M73.159,342.873c0,0,1.887,9.497-0.737,14.392"/>
			
				<path style="fill:none;stroke:#80371D;stroke-width:0.7626;stroke-linecap:round;stroke-linejoin:round;stroke-miterlimit:10;" d="
				M59.702,361.366c0,0,7.293,5.032,17.203,2.805"/>
			
				<path style="fill:none;stroke:#80371D;stroke-width:0.7626;stroke-linecap:round;stroke-linejoin:round;stroke-miterlimit:10;" d="
				M81.235,350.022c0,0,3.345,11.935-1.525,18.152"/>
			
				<path style="fill:none;stroke:#80371D;stroke-width:0.7626;stroke-linecap:round;stroke-linejoin:round;stroke-miterlimit:10;" d="
				M67.57,372.886c0,0,7.42,2.368,15.61-0.07"/>
		</g>
		<g>
			
				<linearGradient id="SVGID_00000162337276129277951240000007063325576343796353_" gradientUnits="userSpaceOnUse" x1="113.419" y1="242.7324" x2="128.3553" y2="242.7324">
				<stop  offset="0.0428" style="stop-color:#FFA526"/>
				<stop  offset="1" style="stop-color:#FF6026"/>
			</linearGradient>
			<path style="fill:url(#SVGID_00000162337276129277951240000007063325576343796353_);" d="M126.145,269.314
				c0,0-6.024-10.876-8.275-18.543c-2.25-7.667-8.636-29.301-0.257-33.921c8.379-4.62,9.624,14.748,9.838,24.946
				C127.665,251.994,130.021,256.58,126.145,269.314z"/>
			
				<linearGradient id="SVGID_00000057858587941646719600000013323812144184824252_" gradientUnits="userSpaceOnUse" x1="99.0765" y1="265.8979" x2="128.0177" y2="265.8979">
				<stop  offset="0.0428" style="stop-color:#FFA526"/>
				<stop  offset="1" style="stop-color:#FF6026"/>
			</linearGradient>
			<path style="fill:url(#SVGID_00000057858587941646719600000013323812144184824252_);" d="M126.71,272.409
				c0,0-4.897-5.606-9.834-9.771c-4.937-4.165-13.693-13.889-16.807-9.018c-3.114,4.872,1.279,13.735,10.631,16.936
				c9.352,3.2,17.318,8.954,17.318,8.954L126.71,272.409z"/>
			
				<linearGradient id="SVGID_00000013882784638148595310000014323053537480805033_" gradientUnits="userSpaceOnUse" x1="98.5868" y1="282.1192" x2="130.2885" y2="282.1192">
				<stop  offset="0.0428" style="stop-color:#FFA526"/>
				<stop  offset="1" style="stop-color:#FF6026"/>
			</linearGradient>
			<path style="fill:url(#SVGID_00000013882784638148595310000014323053537480805033_);" d="M128.906,284.022
				c0,0-10.963-5.691-16.673-8.219c-5.71-2.528-10.871-4.684-12.649-1.743c-1.778,2.941-2.351,8.624,8.664,11.336
				s22.041,6.2,22.041,6.2L128.906,284.022z"/>
			
				<linearGradient id="SVGID_00000077296148221494940680000016003177358792826280_" gradientUnits="userSpaceOnUse" x1="104.1262" y1="296.197" x2="132.5227" y2="296.197">
				<stop  offset="0.0428" style="stop-color:#FFA526"/>
				<stop  offset="1" style="stop-color:#FF6026"/>
			</linearGradient>
			<path style="fill:url(#SVGID_00000077296148221494940680000016003177358792826280_);" d="M131.17,296.194
				c0,0-13.569-6.151-20.503-6.869c-6.934-0.718-9.446,4.916-2.096,8.565c4.369,2.169,14.779,3.542,19.264,3.807
				c2.87,0.17,4.688,1.434,4.688,1.434L131.17,296.194z"/>
			
				<linearGradient id="SVGID_00000173135235514175128020000000257348855867029664_" gradientUnits="userSpaceOnUse" x1="127.6314" y1="265.0693" x2="150.4654" y2="265.0693">
				<stop  offset="0.0428" style="stop-color:#FFA526"/>
				<stop  offset="1" style="stop-color:#FF6026"/>
			</linearGradient>
			<path style="fill:url(#SVGID_00000173135235514175128020000000257348855867029664_);" d="M127.631,277.136
				c0,0,2.849-9.901,5.502-17.485c2.653-7.585,10.295-17.733,15.704-14.063c5.409,3.669-4.068,16.522-7.983,20.761
				c-3.915,4.239-11.708,18.978-11.708,18.978L127.631,277.136z"/>
			
				<linearGradient id="SVGID_00000031916785013226814160000005007165019065151140_" gradientUnits="userSpaceOnUse" x1="130.1264" y1="281.8658" x2="153.8471" y2="281.8658">
				<stop  offset="0.0428" style="stop-color:#FFA526"/>
				<stop  offset="1" style="stop-color:#FF6026"/>
			</linearGradient>
			<path style="fill:url(#SVGID_00000031916785013226814160000005007165019065151140_);" d="M130.126,289.63
				c0,0,3.146-6.682,8.011-13.601s12.078-12.266,15.253-7.92c3.175,4.346-11.026,16.51-16.962,22.686
				c-3.162,3.291-4.867,6.395-4.867,6.395L130.126,289.63z"/>
			
				<linearGradient id="SVGID_00000168800372506798298940000010687855245899988921_" gradientUnits="userSpaceOnUse" x1="132.2026" y1="296.3582" x2="153.4989" y2="296.3582">
				<stop  offset="0.0428" style="stop-color:#FFA526"/>
				<stop  offset="1" style="stop-color:#FF6026"/>
			</linearGradient>
			<path style="fill:url(#SVGID_00000168800372506798298940000010687855245899988921_);" d="M132.203,300.631
				c0,0,1.107-2.774,4.858-6.144s11.635-11.779,15.473-8.228c3.837,3.551-4.763,8.833-8.244,10.967
				c-3.481,2.133-9.626,7.163-10.766,10.089L132.203,300.631z"/>
			
				<path style="fill:none;stroke:#0C3069;stroke-width:0.9139;stroke-linecap:round;stroke-linejoin:round;stroke-miterlimit:10;" d="
				M119.37,230.938c0,0,11.164,65.704,18.416,97.274"/>
			
				<path style="fill:none;stroke:#0C3069;stroke-width:0.9139;stroke-linecap:round;stroke-linejoin:round;stroke-miterlimit:10;" d="
				M142.851,252.286c0,0-10.366,18.653-14.633,28.021"/>
			
				<path style="fill:none;stroke:#0C3069;stroke-width:0.9139;stroke-linecap:round;stroke-linejoin:round;stroke-miterlimit:10;" d="
				M104.126,258.51c0,0,16.72,12.492,23.155,17.014"/>
			
				<path style="fill:none;stroke:#0C3069;stroke-width:0.9139;stroke-linecap:round;stroke-linejoin:round;stroke-miterlimit:10;" d="
				M147.628,270.923c0,0-12.983,13.752-17.045,22.215"/>
			
				<path style="fill:none;stroke:#0C3069;stroke-width:0.9139;stroke-linecap:round;stroke-linejoin:round;stroke-miterlimit:10;" d="
				M104.126,277.558c0,0,18.542,6.579,25.498,10.398"/>
			
				<path style="fill:none;stroke:#0C3069;stroke-width:0.9139;stroke-linecap:round;stroke-linejoin:round;stroke-miterlimit:10;" d="
				M149.674,289.263c0,0-9.951,4.328-17.151,13.869"/>
			
				<path style="fill:none;stroke:#0C3069;stroke-width:0.9139;stroke-linecap:round;stroke-linejoin:round;stroke-miterlimit:10;" d="
				M108.745,293.138c0,0,15.43,3.433,23.065,6.354"/>
		</g>
		
			<linearGradient id="SVGID_00000026149964786797060770000011101594877911740071_" gradientUnits="userSpaceOnUse" x1="221.068" y1="492.8379" x2="221.068" y2="240.1181">
			<stop  offset="0" style="stop-color:#6AB883"/>
			<stop  offset="1" style="stop-color:#DBB883"/>
		</linearGradient>
		<path style="fill:url(#SVGID_00000026149964786797060770000011101594877911740071_);" d="M71.244,418.177h299.648
			c0,0-12.778-22.759-35.782-19.4c0,0,0.618-10.75-3.971-12.429c-4.589-1.68-0.31-22.507-6.48-23.851
			c-6.171-1.344-6.938,13.437-6.938,13.437s-5.584,0.672-8.119,11.086c0,0-4.215-9.406-15.972-11.758c0,0-9.742-31.241-19.82-32.585
			c-10.078-1.344-14.517,20.156-14.517,20.156s-11.875-4.031-21.522-1.344c0,0-20.884-43.054-40.301-45.015
			c0,0-7.139-54.421-17.132-56.268c-9.994-1.848-18.056,39.065-18.056,39.065s-7.749-4.084-12.161,13.844
			c0,0-7.988-8.86-16.251,3.695c0,0-5.696-14.35-13.466-12.906c-12.113,2.251-4.816,41.208-4.816,41.208s-6.522-1.008-5.766,21.164
			c0,0-4.69-10.96-9.288-9.196c0,0-0.818-13.227-7.117-11.967c-6.299,1.26-5.291,39.052-5.291,39.052
			c-5.543,3.275-7.558,13.353-9.07,21.415C77.543,413.642,71.244,418.177,71.244,418.177z"/>
		
			<linearGradient id="SVGID_00000022559038786693824040000011001842618776547724_" gradientUnits="userSpaceOnUse" x1="122.4815" y1="380.2589" x2="244.336" y2="380.2589">
			<stop  offset="0.1597" style="stop-color:#187D38"/>
			<stop  offset="1" style="stop-color:#187D38;stop-opacity:0"/>
		</linearGradient>
		<path style="opacity:0.63;fill:url(#SVGID_00000022559038786693824040000011001842618776547724_);" d="M122.672,418.177
			c0,0-1.877-22.961,6.157-20.711c0,0,0.643-30.851,13.176-29.887c0,0,5.322-25.136,11.878-25.238
			c9.406-0.146,16.46,15.597,17.235,36.164c0,0,18.449,3.535,22.627,15.425c0,0,3.123-25.066,6.382-23.781
			c3.259,1.286,6.497,26.352,6.497,26.352s34.635,3.823,37.712,21.675H122.672z"/>
		<g>
			
				<path style="fill:none;stroke:#80371D;stroke-width:0.7626;stroke-linecap:round;stroke-linejoin:round;stroke-miterlimit:10;" d="
				M684.158,336.97c0,0-14.408,31.689-38.947,52.194"/>
			
				<path style="fill:none;stroke:#80371D;stroke-width:0.7626;stroke-linecap:round;stroke-linejoin:round;stroke-miterlimit:10;" d="
				M681.009,335.738c-0.547,1.876,0.53,3.84,2.405,4.387c1.876,0.547,3.84-0.53,4.387-2.405c0.547-1.876-0.53-3.84-2.405-4.387
				C683.521,332.786,681.557,333.863,681.009,335.738z"/>
			
				<path style="fill:none;stroke:#80371D;stroke-width:0.7626;stroke-linecap:round;stroke-linejoin:round;stroke-miterlimit:10;" d="
				M685.424,345.366c-0.547,1.876,0.53,3.84,2.405,4.387c1.876,0.547,3.84-0.53,4.387-2.405c0.547-1.876-0.53-3.84-2.405-4.387
				C687.936,342.413,685.972,343.49,685.424,345.366z"/>
			
				<path style="fill:none;stroke:#80371D;stroke-width:0.7626;stroke-linecap:round;stroke-linejoin:round;stroke-miterlimit:10;" d="
				M676.599,368.002c-0.547,1.876,0.53,3.84,2.405,4.387c1.876,0.547,3.84-0.53,4.387-2.405c0.547-1.876-0.53-3.84-2.405-4.387
				C679.111,365.05,677.146,366.126,676.599,368.002z"/>
			
				<path style="fill:none;stroke:#80371D;stroke-width:0.7626;stroke-linecap:round;stroke-linejoin:round;stroke-miterlimit:10;" d="
				M684.467,356.483c-0.547,1.876,0.53,3.84,2.405,4.387c1.876,0.547,3.84-0.53,4.387-2.405c0.547-1.876-0.53-3.84-2.405-4.387
				C686.979,353.53,685.014,354.607,684.467,356.483z"/>
			
				<path style="fill:none;stroke:#80371D;stroke-width:0.7626;stroke-linecap:round;stroke-linejoin:round;stroke-miterlimit:10;" d="
				M671.021,338.256c-0.547,1.876,0.53,3.84,2.405,4.387c1.876,0.547,3.84-0.53,4.387-2.405c0.547-1.876-0.529-3.84-2.405-4.387
				C673.533,335.303,671.568,336.38,671.021,338.256z"/>
			
				<path style="fill:none;stroke:#80371D;stroke-width:0.7626;stroke-linecap:round;stroke-linejoin:round;stroke-miterlimit:10;" d="
				M662.934,345.138c-0.547,1.876,0.53,3.84,2.405,4.387c1.876,0.547,3.84-0.53,4.387-2.405c0.547-1.876-0.53-3.84-2.405-4.387
				C665.446,342.185,663.482,343.262,662.934,345.138z"/>
			
				<path style="fill:none;stroke:#80371D;stroke-width:0.7626;stroke-linecap:round;stroke-linejoin:round;stroke-miterlimit:10;" d="
				M688.821,346.357c0,0-2.721,3.165-12.088,4.403"/>
			
				<path style="fill:none;stroke:#80371D;stroke-width:0.7626;stroke-linecap:round;stroke-linejoin:round;stroke-miterlimit:10;" d="
				M674.406,338.981c0,0-1.886,9.497,0.737,14.392"/>
			
				<path style="fill:none;stroke:#80371D;stroke-width:0.7626;stroke-linecap:round;stroke-linejoin:round;stroke-miterlimit:10;" d="
				M687.863,357.474c0,0-7.293,5.032-17.203,2.805"/>
			
				<path style="fill:none;stroke:#80371D;stroke-width:0.7626;stroke-linecap:round;stroke-linejoin:round;stroke-miterlimit:10;" d="
				M666.331,346.129c0,0-3.345,11.935,1.525,18.152"/>
			
				<path style="fill:none;stroke:#80371D;stroke-width:0.7626;stroke-linecap:round;stroke-linejoin:round;stroke-miterlimit:10;" d="
				M679.995,368.993c0,0-7.42,2.368-15.61-0.07"/>
		</g>
		<g>
			
				<linearGradient id="SVGID_00000035515784148476879320000018317015091731954306_" gradientUnits="userSpaceOnUse" x1="604.2758" y1="221.874" x2="619.2115" y2="221.874" gradientTransform="matrix(-0.9975 0.0708 0.0708 0.9975 1224.9645 -41.4156)">
				<stop  offset="0.0428" style="stop-color:#FFA526"/>
				<stop  offset="1" style="stop-color:#FF6026"/>
			</linearGradient>
			<path style="fill:url(#SVGID_00000035515784148476879320000018317015091731954306_);" d="M627.096,250.103
				c0,0,5.239-11.275,6.941-19.082c1.702-7.807,6.54-29.839-2.145-33.854c-8.685-4.015-8.555,15.392-8.047,25.579
				C624.354,232.934,622.328,237.674,627.096,250.103z"/>
			
				<linearGradient id="SVGID_00000072273519304936574170000016552314402015800209_" gradientUnits="userSpaceOnUse" x1="589.9329" y1="245.0392" x2="618.8737" y2="245.0392" gradientTransform="matrix(-0.9975 0.0708 0.0708 0.9975 1224.9645 -41.4156)">
				<stop  offset="0.0428" style="stop-color:#FFA526"/>
				<stop  offset="1" style="stop-color:#FF6026"/>
			</linearGradient>
			<path style="fill:url(#SVGID_00000072273519304936574170000016552314402015800209_);" d="M626.752,253.23
				c0,0,4.488-5.939,9.117-10.443c4.63-4.504,12.675-14.824,16.126-10.185c3.451,4.639-0.303,13.791-9.405,17.646
				c-9.102,3.855-16.64,10.158-16.64,10.158L626.752,253.23z"/>
			
				<linearGradient id="SVGID_00000181782976583009794780000016446862557493812127_" gradientUnits="userSpaceOnUse" x1="589.4431" y1="261.2603" x2="621.1443" y2="261.2603" gradientTransform="matrix(-0.9975 0.0708 0.0708 0.9975 1224.9645 -41.4156)">
				<stop  offset="0.0428" style="stop-color:#FFA526"/>
				<stop  offset="1" style="stop-color:#FF6026"/>
			</linearGradient>
			<path style="fill:url(#SVGID_00000181782976583009794780000016446862557493812127_);" d="M625.384,264.969
				c0,0,10.533-6.453,16.049-9.379c5.517-2.926,10.512-5.442,12.494-2.634c1.981,2.808,2.956,8.436-7.84,11.921
				c-10.795,3.485-21.546,7.745-21.546,7.745L625.384,264.969z"/>
			
				<linearGradient id="SVGID_00000053546385755622820870000016102553638518265526_" gradientUnits="userSpaceOnUse" x1="594.9822" y1="275.3381" x2="623.3784" y2="275.3381" gradientTransform="matrix(-0.9975 0.0708 0.0708 0.9975 1224.9645 -41.4156)">
				<stop  offset="0.0428" style="stop-color:#FFA526"/>
				<stop  offset="1" style="stop-color:#FF6026"/>
			</linearGradient>
			<path style="fill:url(#SVGID_00000053546385755622820870000016102553638518265526_);" d="M623.988,277.271
				c0,0,13.099-7.097,19.965-8.304c6.866-1.207,9.771,4.235,2.697,8.395c-4.204,2.473-14.491,4.579-18.946,5.162
				c-2.851,0.373-4.574,1.763-4.574,1.763L623.988,277.271z"/>
			
				<linearGradient id="SVGID_00000057147674052562809830000014179411776671932584_" gradientUnits="userSpaceOnUse" x1="618.4874" y1="244.2109" x2="641.3215" y2="244.2109" gradientTransform="matrix(-0.9975 0.0708 0.0708 0.9975 1224.9645 -41.4156)">
				<stop  offset="0.0428" style="stop-color:#FFA526"/>
				<stop  offset="1" style="stop-color:#FF6026"/>
			</linearGradient>
			<path style="fill:url(#SVGID_00000057147674052562809830000014179411776671932584_);" d="M626.168,258.01
				c0,0-3.543-9.674-6.727-17.052c-3.184-7.378-11.525-16.959-16.661-12.916c-5.135,4.043,5.228,16.193,9.433,20.144
				c4.205,3.951,13.023,18.101,13.023,18.101L626.168,258.01z"/>
			
				<linearGradient id="SVGID_00000150086055702764500890000003947386167275515023_" gradientUnits="userSpaceOnUse" x1="620.9822" y1="261.0073" x2="644.7029" y2="261.0073" gradientTransform="matrix(-0.9975 0.0708 0.0708 0.9975 1224.9645 -41.4156)">
				<stop  offset="0.0428" style="stop-color:#FFA526"/>
				<stop  offset="1" style="stop-color:#FF6026"/>
			</linearGradient>
			<path style="fill:url(#SVGID_00000150086055702764500890000003947386167275515023_);" d="M624.564,270.65
				c0,0-3.611-6.442-8.954-12.999c-5.343-6.557-12.917-11.38-15.775-6.82c-2.859,4.56,12.168,15.687,18.526,21.428
				c3.387,3.058,5.308,6.034,5.308,6.034L624.564,270.65z"/>
			
				<linearGradient id="SVGID_00000083794186448671554770000016954176299604098959_" gradientUnits="userSpaceOnUse" x1="623.0582" y1="275.4995" x2="644.3545" y2="275.4995" gradientTransform="matrix(-0.9975 0.0708 0.0708 0.9975 1224.9645 -41.4156)">
				<stop  offset="0.0428" style="stop-color:#FFA526"/>
				<stop  offset="1" style="stop-color:#FF6026"/>
			</linearGradient>
			<path style="fill:url(#SVGID_00000083794186448671554770000016954176299604098959_);" d="M623.272,281.77
				c0,0-1.301-2.689-5.281-5.785c-3.98-3.096-12.44-10.925-16.016-7.111s5.377,8.474,9,10.355
				c3.623,1.882,10.109,6.463,11.453,9.302L623.272,281.77z"/>
			
				<path style="fill:none;stroke:#0C3069;stroke-width:0.9139;stroke-linecap:round;stroke-linejoin:round;stroke-miterlimit:10;" d="
				M631.137,211.342c0,0-6.483,66.33-11.482,98.334"/>
			
				<path style="fill:none;stroke:#0C3069;stroke-width:0.9139;stroke-linecap:round;stroke-linejoin:round;stroke-miterlimit:10;" d="
				M609.227,234.3c0,0,11.661,17.872,16.58,26.915"/>
			
				<path style="fill:none;stroke:#0C3069;stroke-width:0.9139;stroke-linecap:round;stroke-linejoin:round;stroke-miterlimit:10;" d="
				M648.295,237.766c0,0-15.794,13.645-21.892,18.611"/>
			
				<path style="fill:none;stroke:#0C3069;stroke-width:0.9139;stroke-linecap:round;stroke-linejoin:round;stroke-miterlimit:10;" d="
				M605.781,253.229c0,0,13.924,12.798,18.576,20.952"/>
			
				<path style="fill:none;stroke:#0C3069;stroke-width:0.9139;stroke-linecap:round;stroke-linejoin:round;stroke-miterlimit:10;" d="
				M649.644,256.766c0,0-18.03,7.875-24.698,12.177"/>
			
				<path style="fill:none;stroke:#0C3069;stroke-width:0.9139;stroke-linecap:round;stroke-linejoin:round;stroke-miterlimit:10;" d="
				M605.039,271.667c0,0,10.232,3.612,18.09,12.62"/>
			
				<path style="fill:none;stroke:#0C3069;stroke-width:0.9139;stroke-linecap:round;stroke-linejoin:round;stroke-miterlimit:10;" d="
				M646.14,272.634c0,0-15.148,4.517-22.557,7.972"/>
		</g>
		
			<linearGradient id="SVGID_00000132790930872080356300000015544777622722664075_" gradientUnits="userSpaceOnUse" x1="582.7828" y1="441.7766" x2="582.7828" y2="248.8778">
			<stop  offset="0" style="stop-color:#6AB883"/>
			<stop  offset="1" style="stop-color:#DBB883"/>
		</linearGradient>
		<path style="fill:url(#SVGID_00000132790930872080356300000015544777622722664075_);" d="M484.07,418.177h197.527
			c0,0-6.047-22.927-13.605-17.384c0,0,2.52-16.46-3.527-18.812c0,0-3.023-21.835-14.109-25.867c0,0,4.367-26.203-0.672-30.906
			c-5.039-4.703-4.031-33.929-9.406-33.929s-7.055,14.109-7.055,14.109s-2.687-28.554-14.109-35.273c0,0-5.039-21.919-22.843-23.935
			c0,0-3.023-29.352-11.758-29.352s-11.422,11.447-13.101,39.59c0,0-21.164,13.698-20.492,59.384c0,0-11.422,1.008-14.781,19.82
			c0,0-1.344-19.148-5.375-19.148c-4.031,0-7.055,51.061-7.055,51.061s-13.773,1.008-13.773,18.812c0,0-4.031-22.507-7.726-22.507
			c-3.695,0-7.055,30.906-7.055,30.906S482.726,406,484.07,418.177z"/>
		
			<linearGradient id="SVGID_00000168119314070737473770000011149875335296143549_" gradientUnits="userSpaceOnUse" x1="580.3705" y1="312.1076" x2="580.3705" y2="441.14">
			<stop  offset="0.1597" style="stop-color:#187D38"/>
			<stop  offset="1" style="stop-color:#187D38;stop-opacity:0"/>
		</linearGradient>
		<path style="opacity:0.63;fill:url(#SVGID_00000168119314070737473770000011149875335296143549_);" d="M642.629,418.177
			c0,0-3.359-19.736-7.726-20.072c0,0-3.023-29.898-6.719-30.234c-3.695-0.336-6.719,15.117-6.719,15.117
			s-2.688-36.952-10.414-36.952c-7.726,0-13.101,21.164-13.101,21.164s-17.468-67.186-30.906-62.819s-16.797,72.225-16.797,72.225
			s-8.734-7.726-12.094,10.414c0,0-22.507,2.184-19.82,31.158H642.629z"/>
		<g>
			
				<linearGradient id="SVGID_00000072973997437457776440000007297174678985852299_" gradientUnits="userSpaceOnUse" x1="435.7932" y1="242.8804" x2="435.7932" y2="264.4218">
				<stop  offset="0" style="stop-color:#CEDBED"/>
				<stop  offset="1" style="stop-color:#FFFFFF"/>
			</linearGradient>
			
				<rect x="316.877" y="208.032" style="fill:url(#SVGID_00000072973997437457776440000007297174678985852299_);" width="237.833" height="210.839"/>
			
				<linearGradient id="SVGID_00000101809979900699606620000009565190433293279665_" gradientUnits="userSpaceOnUse" x1="435.7932" y1="202.1674" x2="435.7932" y2="244.2013">
				<stop  offset="0.0428" style="stop-color:#FFA526"/>
				<stop  offset="0.159" style="stop-color:#FF9026"/>
				<stop  offset="0.3153" style="stop-color:#FF7B26"/>
				<stop  offset="0.4892" style="stop-color:#FF6C26"/>
				<stop  offset="0.6931" style="stop-color:#FF6326"/>
				<stop  offset="1" style="stop-color:#FF6026"/>
			</linearGradient>
			
				<rect x="316.877" y="208.032" style="fill:url(#SVGID_00000101809979900699606620000009565190433293279665_);" width="237.833" height="39.146"/>
			<g>
				<g>
					<path style="fill:#80371D;" d="M352.769,218.895c0,3.087-2.502,5.589-5.589,5.589c-3.087,0-5.589-2.502-5.589-5.589
						c0-3.087,2.502-5.589,5.589-5.589C350.267,213.306,352.769,215.808,352.769,218.895z"/>
					<path style="fill:#FFA526;" d="M347.18,222.115L347.18,222.115c-1.755,0-3.179-1.423-3.179-3.179V205.59
						c0-1.755,1.423-3.179,3.179-3.179l0,0c1.755,0,3.179,1.423,3.179,3.179v13.347C350.359,220.692,348.935,222.115,347.18,222.115
						z"/>
				</g>
				<g>
					<path style="fill:#80371D;" d="M529.996,218.895c0,3.087-2.502,5.589-5.589,5.589c-3.087,0-5.589-2.502-5.589-5.589
						c0-3.087,2.502-5.589,5.589-5.589C527.493,213.306,529.996,215.808,529.996,218.895z"/>
					<path style="fill:#FFA526;" d="M524.406,222.115L524.406,222.115c-1.756,0-3.179-1.423-3.179-3.179V205.59
						c0-1.755,1.423-3.179,3.179-3.179l0,0c1.755,0,3.179,1.423,3.179,3.179v13.347
						C527.585,220.692,526.162,222.115,524.406,222.115z"/>
				</g>
			</g>
			<rect x="328.302" y="266.058" style="fill:#FFE09C;" width="36.035" height="36.035"/>
			<rect x="373.039" y="266.058" style="fill:#FFE09C;" width="36.035" height="36.035"/>
			<rect x="417.776" y="266.058" style="fill:#FFB91C;" width="36.035" height="36.035"/>
			<rect x="462.512" y="266.058" style="fill:#FFE09C;" width="36.035" height="36.035"/>
			<rect x="507.249" y="266.058" style="fill:#FFA526;" width="36.035" height="36.035"/>
			<rect x="328.302" y="309.804" style="fill:#FFE09C;" width="36.035" height="36.035"/>
			<rect x="373.039" y="309.804" style="fill:#FFB91C;" width="36.035" height="36.035"/>
			<rect x="328.302" y="353.55" style="fill:#FFE09C;" width="36.035" height="36.035"/>
			<rect x="373.039" y="353.55" style="fill:#FFE09C;" width="36.035" height="36.035"/>
			<rect x="417.776" y="309.804" style="fill:#FFE09C;" width="36.035" height="36.035"/>
			<rect x="462.512" y="309.804" style="fill:#FFB91C;" width="36.035" height="36.035"/>
			<rect x="507.249" y="309.804" style="fill:#FFA526;" width="36.035" height="36.035"/>
			<rect x="417.776" y="353.55" style="fill:#FFE09C;" width="36.035" height="36.035"/>
			<rect x="462.512" y="353.55" style="fill:#FFB91C;" width="36.035" height="36.035"/>
			<rect x="507.249" y="353.55" style="fill:#FFA526;" width="36.035" height="36.035"/>
			
				<polyline style="fill:none;stroke:#F04F4F;stroke-width:2.9269;stroke-linecap:round;stroke-linejoin:round;stroke-miterlimit:10;" points="
				471.354,327.526 479.023,336.181 489.705,319.462 			"/>
			
				<polyline style="fill:none;stroke:#F04F4F;stroke-width:2.9269;stroke-linecap:round;stroke-linejoin:round;stroke-miterlimit:10;" points="
				426.618,283.78 434.286,292.435 444.969,275.716 			"/>
			
				<polyline style="fill:none;stroke:#F04F4F;stroke-width:2.9269;stroke-linecap:round;stroke-linejoin:round;stroke-miterlimit:10;" points="
				471.354,371.273 479.023,379.927 489.705,363.208 			"/>
			
				<polyline style="fill:none;stroke:#F04F4F;stroke-width:2.9269;stroke-linecap:round;stroke-linejoin:round;stroke-miterlimit:10;" points="
				381.881,327.526 389.549,336.181 400.232,319.462 			"/>
		</g>
		<g>
			
				<linearGradient id="SVGID_00000125578410232701040550000011114200045868360861_" gradientUnits="userSpaceOnUse" x1="146.7383" y1="113.7265" x2="146.7383" y2="201.4852">
				<stop  offset="0" style="stop-color:#000000"/>
				<stop  offset="0.9315" style="stop-color:#000000;stop-opacity:0"/>
			</linearGradient>
			<path style="opacity:0.4;fill:url(#SVGID_00000125578410232701040550000011114200045868360861_);" d="M177.347,182.632
				l-7.681-10.867c1.91-3.808,2.992-8.104,2.992-12.654c0-15.61-12.654-28.264-28.264-28.264c-15.61,0-28.264,12.654-28.264,28.264
				s12.654,28.264,28.264,28.264c8.31,0,15.781-3.587,20.953-9.296L177.347,182.632z"/>
			<path style="fill:#FFFFFF;" d="M178.585,179.615l-7.681-10.867c1.91-3.808,2.992-8.104,2.992-12.654
				c0-15.61-12.654-28.264-28.264-28.264c-15.61,0-28.264,12.654-28.264,28.264s12.654,28.264,28.264,28.264
				c8.31,0,15.781-3.587,20.953-9.296L178.585,179.615z"/>
			<circle style="fill:#1656BD;" cx="145.921" cy="156.094" r="22.524"/>
			<circle style="fill:#CEDBED;" cx="145.921" cy="156.094" r="17.757"/>
			
				<polyline style="fill:none;stroke:#0C3069;stroke-width:2.2024;stroke-linecap:round;stroke-linejoin:round;stroke-miterlimit:10;" points="
				135.77,143.784 145.632,156.094 156.214,148.788 			"/>
		</g>
		
			<linearGradient id="SVGID_00000145779654469579117690000018405548893679801494_" gradientUnits="userSpaceOnUse" x1="277.0267" y1="327.2242" x2="460.3604" y2="327.2242">
			<stop  offset="0.0427" style="stop-color:#000000"/>
			<stop  offset="0.9337" style="stop-color:#000000;stop-opacity:0"/>
		</linearGradient>
		
			<circle style="opacity:0.42;fill:url(#SVGID_00000145779654469579117690000018405548893679801494_);" cx="289.583" cy="327.224" r="92.298"/>
		<g>
			<rect x="276.235" y="226.919" style="fill:#0C3069;" width="21.959" height="15.185"/>
			
				<linearGradient id="SVGID_00000099637069775758043960000012062352081433628562_" gradientUnits="userSpaceOnUse" x1="287.2145" y1="218.3576" x2="287.2145" y2="460.1254">
				<stop  offset="0.0428" style="stop-color:#FFA526"/>
				<stop  offset="1" style="stop-color:#FF6026"/>
			</linearGradient>
			<circle style="fill:url(#SVGID_00000099637069775758043960000012062352081433628562_);" cx="287.215" cy="326.411" r="90.784"/>
			<circle style="fill:#FFFFFF;" cx="287.215" cy="326.411" r="71.876"/>
			
				<linearGradient id="SVGID_00000113316135819082209270000010616534028290924426_" gradientUnits="userSpaceOnUse" x1="287.2145" y1="517.8824" x2="287.2145" y2="339.0576">
				<stop  offset="0" style="stop-color:#1656BD"/>
				<stop  offset="1" style="stop-color:#CEDBED"/>
			</linearGradient>
			<circle style="fill:url(#SVGID_00000113316135819082209270000010616534028290924426_);" cx="287.215" cy="326.411" r="67.414"/>
			<g>
				
					<line style="fill:none;stroke:#0C3069;stroke-width:2.9269;stroke-linecap:round;stroke-linejoin:round;stroke-miterlimit:10;" x1="287.215" y1="261.623" x2="287.215" y2="272.051"/>
				
					<line style="fill:none;stroke:#0C3069;stroke-width:2.9269;stroke-linecap:round;stroke-linejoin:round;stroke-miterlimit:10;" x1="287.215" y1="380.649" x2="287.215" y2="391.077"/>
				
					<line style="fill:none;stroke:#0C3069;stroke-width:2.9269;stroke-linecap:round;stroke-linejoin:round;stroke-miterlimit:10;" x1="254.821" y1="270.303" x2="260.034" y2="279.334"/>
				
					<line style="fill:none;stroke:#0C3069;stroke-width:2.9269;stroke-linecap:round;stroke-linejoin:round;stroke-miterlimit:10;" x1="314.333" y1="373.383" x2="319.547" y2="382.413"/>
				
					<line style="fill:none;stroke:#0C3069;stroke-width:2.9269;stroke-linecap:round;stroke-linejoin:round;stroke-miterlimit:10;" x1="231.107" y1="294.017" x2="240.137" y2="299.231"/>
				
					<line style="fill:none;stroke:#0C3069;stroke-width:2.9269;stroke-linecap:round;stroke-linejoin:round;stroke-miterlimit:10;" x1="334.186" y1="353.53" x2="343.216" y2="358.744"/>
				
					<line style="fill:none;stroke:#0C3069;stroke-width:2.9269;stroke-linecap:round;stroke-linejoin:round;stroke-miterlimit:10;" x1="222.427" y1="326.411" x2="232.854" y2="326.411"/>
				
					<line style="fill:none;stroke:#0C3069;stroke-width:2.9269;stroke-linecap:round;stroke-linejoin:round;stroke-miterlimit:10;" x1="341.453" y1="326.411" x2="351.88" y2="326.411"/>
				
					<line style="fill:none;stroke:#0C3069;stroke-width:2.9269;stroke-linecap:round;stroke-linejoin:round;stroke-miterlimit:10;" x1="231.107" y1="358.805" x2="240.137" y2="353.591"/>
				
					<line style="fill:none;stroke:#0C3069;stroke-width:2.9269;stroke-linecap:round;stroke-linejoin:round;stroke-miterlimit:10;" x1="334.186" y1="299.292" x2="343.216" y2="294.078"/>
				
					<line style="fill:none;stroke:#0C3069;stroke-width:2.9269;stroke-linecap:round;stroke-linejoin:round;stroke-miterlimit:10;" x1="254.821" y1="382.518" x2="260.034" y2="373.488"/>
				
					<line style="fill:none;stroke:#0C3069;stroke-width:2.9269;stroke-linecap:round;stroke-linejoin:round;stroke-miterlimit:10;" x1="314.333" y1="279.439" x2="319.547" y2="270.409"/>
			</g>
			
				<polyline style="fill:none;stroke:#0C3069;stroke-width:3.9025;stroke-linecap:round;stroke-linejoin:round;stroke-miterlimit:10;" points="
				257.428,287.906 287.215,326.411 316.94,309.156 			"/>
			<rect x="270.169" y="208.323" style="fill:#1656BD;" width="34.091" height="18.596"/>
			<g>
				<polygon style="fill:#0C3069;" points="282.281,226.919 282.281,208.323 282.281,208.323 280.33,208.323 280.33,208.323 
					280.33,226.919 280.33,226.919 282.281,226.919 				"/>
				<polygon style="fill:#0C3069;" points="276.372,226.919 276.372,208.323 276.372,208.323 274.421,208.323 274.421,208.323 
					274.421,226.919 274.421,226.919 276.372,226.919 				"/>
				<polygon style="fill:#0C3069;" points="298.057,208.323 298.057,226.919 298.057,226.919 300.008,226.919 300.008,226.919 
					300.008,208.323 300.008,208.323 298.057,208.323 				"/>
				<polygon style="fill:#0C3069;" points="294.099,226.919 294.099,208.323 294.099,208.323 292.148,208.323 292.148,208.323 
					292.148,226.919 292.148,226.919 294.099,226.919 				"/>
				<polygon style="fill:#0C3069;" points="288.19,226.919 288.19,208.323 288.19,208.323 286.239,208.323 286.239,208.323 
					286.239,226.919 286.239,226.919 288.19,226.919 				"/>
			</g>
		</g>
		<g>
			<ellipse style="fill:#CEDBED;" cx="557.05" cy="434.548" rx="9.629" ry="2.435"/>
			<ellipse style="fill:#CEDBED;" cx="605.172" cy="434.548" rx="9.629" ry="2.435"/>
			<g>
				<g>
					<path style="fill:#FF6D6D;" d="M561.497,394.071c0,0-1.14,29.552-1.318,31.868c-0.178,2.316-3.886,4.007-3.886,4.007
						s-6.982,1.639-7.408,3.947c-0.181,0.982,7.206,0.304,10.294,0.304c3.088,0,6.391,1.832,6.009-2.514
						c-0.382-4.346-0.222-6.359,0.577-10.054c0.765-3.541,4.005-22.594,4.115-26.013L561.497,394.071z"/>
					<path style="fill:#0C3069;" d="M557.335,429.376c-0.591,0.363-1.042,0.571-1.042,0.571s-6.983,1.639-7.408,3.947
						c-0.181,0.982,7.206,0.304,10.294,0.304s6.391,1.832,6.009-2.514c-0.03-0.343-0.051-0.648-0.074-0.964
						C561.667,431.8,558.795,430.381,557.335,429.376z"/>
				</g>
				
					<linearGradient id="SVGID_00000129926288453001936790000009268700186118745779_" gradientUnits="userSpaceOnUse" x1="561.284" y1="398.8577" x2="569.8796" y2="398.8577">
					<stop  offset="0" style="stop-color:#F04F4F"/>
					<stop  offset="0.9465" style="stop-color:#F04F4F;stop-opacity:0.0535"/>
					<stop  offset="1" style="stop-color:#F04F4F;stop-opacity:0"/>
				</linearGradient>
				<path style="fill:url(#SVGID_00000129926288453001936790000009268700186118745779_);" d="M561.284,399.543
					c0,0,2.769,3.32,7.502,4.513l1.093-8.44l-8.596-1.956V399.543z"/>
				<g>
					<path style="fill:#FF6D6D;" d="M597.462,392.574c0,0,7.096,28.71,7.566,30.985c0.471,2.275-2.623,4.927-2.623,4.927
						s-6.255,3.51-6.023,5.845c0.098,0.994,7.008-1.706,9.975-2.562c2.967-0.856,6.648-0.011,5.077-4.081
						c-1.572-4.07-1.976-6.049-2.233-9.82c-0.246-3.614-2.415-22.819-3.256-26.135L597.462,392.574z"/>
					<path style="fill:#0C3069;" d="M603.248,427.649c-0.468,0.513-0.843,0.838-0.843,0.838s-6.255,3.51-6.023,5.845
						c0.098,0.994,7.008-1.706,9.975-2.562c2.967-0.856,6.648-0.011,5.077-4.081c-0.124-0.321-0.229-0.609-0.339-0.906
						C608.082,428.777,604.93,428.21,603.248,427.649z"/>
				</g>
				
					<linearGradient id="SVGID_00000115502588242309850570000008349860852881160080_" gradientUnits="userSpaceOnUse" x1="598.1269" y1="398.4813" x2="607.4833" y2="398.4813">
					<stop  offset="0" style="stop-color:#F04F4F"/>
					<stop  offset="0.9465" style="stop-color:#F04F4F;stop-opacity:0.0535"/>
					<stop  offset="1" style="stop-color:#F04F4F;stop-opacity:0"/>
				</linearGradient>
				<path style="fill:url(#SVGID_00000115502588242309850570000008349860852881160080_);" d="M599.017,398.875
					c0,0,3.126,2.734,8.467,3.252l-0.706-6.284l-8.65-1.008L599.017,398.875z"/>
				<path style="fill:#1656BD;" d="M609.712,299.935c0,0,8.345,15.117,5.348,38.296s-4.005,32.105-4.005,32.105
					s5.039,15.429,5.711,25.003c0,0-10.75,3.695-19.148,0.84c0,0-4.871-22.171-6.047-33.761c-1.176-11.589,0-20.66,0-20.66
					l-8.789,23.179c0,0-0.223,24.691,0,31.074c0,0-11.671,3.527-22.101-0.336c0,0,0.824-17.972,4.016-37.792
					c3.191-19.82,11.086-46.694,11.086-46.694l-0.336-9.845L609.712,299.935z"/>
				<path style="fill:none;stroke:#0C3069;stroke-width:0.8088;stroke-miterlimit:10;" d="M604.337,303.211
					c0,0,0.263,10.847,10.209,11.932"/>
				<path style="fill:none;stroke:#0C3069;stroke-width:0.8088;stroke-miterlimit:10;" d="M587.724,304.015
					c0,0,0.185,6.811,2.59,11.128c2.405,4.317,3.09,6.909,2.77,10.323"/>
				<path style="fill:none;stroke:#0C3069;stroke-width:0.8088;stroke-miterlimit:10;" d="M584.258,303.637
					c0,0,0.743,5.131,1.755,8.911c1.013,3.781,5.063,4.019,5.063,4.019"/>
				
					<linearGradient id="SVGID_00000052088083352761139260000015220444426091474563_" gradientUnits="userSpaceOnUse" x1="604.2117" y1="334.4734" x2="547.5216" y2="419.8969">
					<stop  offset="0.0427" style="stop-color:#000000"/>
					<stop  offset="0.9337" style="stop-color:#000000;stop-opacity:0"/>
				</linearGradient>
				<path style="opacity:0.29;fill:url(#SVGID_00000052088083352761139260000015220444426091474563_);" d="M575.448,354.86
					c0,12.261-0.336,26.202-5.879,32.081c-3.116,3.305-4.108,7.193-4.38,9.965c9.018,1.693,17.595-0.895,17.595-0.895
					c-0.223-6.383,0-31.074,0-31.074l8.789-23.179c0.672-7.39,1.512-16.293,1.512-16.293S575.448,342.598,575.448,354.86z"/>
				
					<linearGradient id="SVGID_00000173155540938412669260000006184786393367641754_" gradientUnits="userSpaceOnUse" x1="591.7282" y1="294.9056" x2="596.9351" y2="319.4286">
					<stop  offset="0.0427" style="stop-color:#000000"/>
					<stop  offset="0.9337" style="stop-color:#000000;stop-opacity:0"/>
				</linearGradient>
				<path style="opacity:0.6;fill:url(#SVGID_00000173155540938412669260000006184786393367641754_);" d="M575.448,301.344
					l0.172,5.044c4.563,2.232,19.59,8.579,38.38,6.059c-1.773-7.947-4.287-12.512-4.287-12.512L575.448,301.344z"/>
				<polygon style="fill:#786337;" points="575.279,304.386 599.97,304.386 572.382,273.901 550.505,262.731 543.87,272.137 
					542.274,276.477 562.052,293.804 				"/>
				<path style="fill:#0C3069;" d="M539.377,262.563c0,0,5.669-3.401,4.031-11.841c-1.638-8.44-15.999-10.078-21.479-0.882
					c0,0-7.18,0.945-6.991,6.236c0.189,5.291,12.534,3.149,12.534,3.149L539.377,262.563z"/>
				<path style="fill:#FF6D6D;" d="M540.767,276.477c-2.859,4.73-14.449,32.194-14.449,32.194l-28.05,11.42
					c0,0-9.322,4.787-11.086,6.299c-1.764,1.512-2.939,2.855-2.1,2.855c0.84,0,4.703-2.603,4.703-2.603s-2.603,3.527-1.596,3.443
					c1.008-0.084,1.428-2.016,3.023-2.268c1.596-0.252,7.055-1.176,7.39-3.695c0,0,26.79-4.451,33.007-9.382
					c7.084-5.619,14.695-25.638,14.695-25.638L540.767,276.477z"/>
				
					<linearGradient id="SVGID_00000065771298884215494700000001030010513775912081_" gradientUnits="userSpaceOnUse" x1="548.748" y1="279.1022" x2="529.8519" y2="303.9191">
					<stop  offset="0" style="stop-color:#F04F4F"/>
					<stop  offset="0.9465" style="stop-color:#F04F4F;stop-opacity:0.0535"/>
					<stop  offset="1" style="stop-color:#F04F4F;stop-opacity:0"/>
				</linearGradient>
				<path style="fill:url(#SVGID_00000065771298884215494700000001030010513775912081_);" d="M540.767,276.477
					c-1.185,1.96-3.87,7.826-6.607,14.023c1.837,2.758,4.257,7.751,4.44,15.037c4.339-7.584,7.706-16.436,7.706-16.436
					L540.767,276.477z"/>
				<path style="fill:#FF6D6D;" d="M533.876,259.036c0,0-2.268-1.26-3.275-3.107c0,0-2.603,0.924-6.803-0.588c0,0-0.924,2.1,0,3.695
					c0.924,1.596,1.848,2.855,1.008,4.703s4.955,6.467,6.383,6.215c1.428-0.252,2.687-2.688,2.687-2.688l9.994,4.871
					c0,0,2.183,5.711,4.451,4.031c2.268-1.68,3.443-6.047,2.184-13.437l-10.414-1.092l-2.887-0.42c0,0,0.704-4.535-1.312-5.207
					C533.876,255.34,533.876,259.036,533.876,259.036z"/>
				
					<linearGradient id="SVGID_00000052820311943146463570000008718442995000996487_" gradientUnits="userSpaceOnUse" x1="533.8761" y1="265.1844" x2="546.5197" y2="265.1844">
					<stop  offset="0" style="stop-color:#F04F4F"/>
					<stop  offset="0.9465" style="stop-color:#F04F4F;stop-opacity:0.0535"/>
					<stop  offset="1" style="stop-color:#F04F4F;stop-opacity:0"/>
				</linearGradient>
				<path style="fill:url(#SVGID_00000052820311943146463570000008718442995000996487_);" d="M533.876,267.266
					c0,0,2.372-3.653,3.328-6.047l9.316,1.094c0,0-4.662,5.529-8.779,6.837L533.876,267.266z"/>
				<path style="fill:#0C3069;" d="M545.73,243.19c-0.645,3.348-4.45,5.428-8.497,4.648c-4.048-0.78-6.806-4.127-6.16-7.474
					c0.645-3.348,4.45-5.428,8.497-4.648C543.617,236.497,546.375,239.843,545.73,243.19z"/>
				<path style="fill:#0C3069;" d="M550.505,262.731l12.653-9.042c0,0,18.924,13.031,30.514,29.533c0,0,12.975,7.181,19.652,12.346
					c6.677,5.165-7.684,13.227-12.849,13.101c-5.165-0.126-14.109-14.739-14.109-14.739S555.376,285.238,550.505,262.731z"/>
				<path style="fill:#0C3069;" d="M543.87,272.137c0,0,2.65,8.879,20.912,20.072c7.81,4.787,13.857,10.75,16.377,21.5
					c0,0-5.963,0.504-7.81-1.176c-1.848-1.68-4.283-10.33-4.283-10.33s-5.207-3.779-9.154-4.871s-7.558,2.184-12.429-3.275
					c-3.315-3.715-5.758-9.878-6.982-13.437c-0.584-1.698-0.285-3.568,0.787-5.008L543.87,272.137z"/>
				<polygon style="fill:#FFB91C;" points="600.978,284.608 581.971,298.511 554.71,280.703 573.717,266.801 				"/>
				
					<linearGradient id="SVGID_00000055705542161102923160000017171373277197870769_" gradientUnits="userSpaceOnUse" x1="573.8307" y1="292.9096" x2="597.5137" y2="272.1241">
					<stop  offset="0" style="stop-color:#000000"/>
					<stop  offset="0.9315" style="stop-color:#000000;stop-opacity:0"/>
				</linearGradient>
				<polygon style="opacity:0.4;fill:url(#SVGID_00000055705542161102923160000017171373277197870769_);" points="571.122,291.424 
					573.211,289.066 572.491,288.897 584.927,274.124 596.747,281.844 576.78,295.12 				"/>
				<path style="fill:#FF6D6D;" d="M563.158,253.689c3.521-2.857,12.877-0.113,23.375,3.751
					c10.498,3.863,20.576,6.383,22.255,13.605c1.68,7.223-26.006,19.064-26.006,19.064s-2.107,2.939-3.606,3.976
					c-1.499,1.038-3.574,2.651-3.977,2.306c-0.404-0.346,2.882-3.055,2.882-3.055s-4.917,2.51-5.591,1.499
					c-0.231-0.346,4.027-1.783,4.727-2.94c0,0-4.729,3.14-6.095,1.96c-0.534-0.461,4.769-2.652,4.769-2.652
					s-5.649,2.018-6.168,1.383c-0.519-0.634,6.225-2.075,6.513-3.113c0.288-1.038-0.98-1.211-1.902-0.807s-1.672,0.634-1.845,0.23
					c-0.173-0.404,3.631-2.997,7.032-2.421c0,0,12.681-9.139,17.638-14.34c0,0-22.019-4.784-27.899-6.952
					C563.383,263.016,560.8,255.603,563.158,253.689z"/>
				<path style="fill:none;stroke:#F04F4F;stroke-width:0.8088;stroke-miterlimit:10;" d="M597.161,272.137
					c0,0,1.507-1.47,3.229-2.645"/>
			</g>
		</g>
		<g>
			<g>
				<g>
					<path style="fill:#FF6026;" d="M326.317,185.24c-0.441,0-0.799-0.358-0.799-0.799v-50.66c0-0.441,0.358-0.799,0.799-0.799
						c0.441,0,0.799,0.358,0.799,0.799v50.66C327.116,184.882,326.758,185.24,326.317,185.24z"/>
				</g>
				<g>
					<path style="fill:#FF6026;" d="M366.323,185.24c-0.441,0-0.799-0.358-0.799-0.799v-50.66c0-0.441,0.358-0.799,0.799-0.799
						c0.441,0,0.799,0.358,0.799,0.799v50.66C367.122,184.882,366.764,185.24,366.323,185.24z"/>
				</g>
			</g>
			<path style="fill:#FFFFFF;" d="M348.992,159.026c8.017-1.948,14.144-12.505,14.144-25.244h-33.633
				c0,12.74,6.127,23.297,14.144,25.244c0.098,0.024,0.098,0.147,0,0.171c-8.017,1.947-14.144,12.505-14.144,25.244h33.633
				c0-12.74-6.127-23.297-14.144-25.244C348.894,159.173,348.894,159.049,348.992,159.026z"/>
			
				<linearGradient id="SVGID_00000001651084089878204350000004339800129328067470_" gradientUnits="userSpaceOnUse" x1="346.3199" y1="155.3908" x2="346.3199" y2="191.6768">
				<stop  offset="0" style="stop-color:#B9CCEB"/>
				<stop  offset="1" style="stop-color:#1656BD"/>
			</linearGradient>
			<path style="fill:url(#SVGID_00000001651084089878204350000004339800129328067470_);" d="M357.643,174.706
				c-1.663-0.505-3.397-0.901-5.187-1.178c-3.168-0.491-5.467-3.286-5.467-6.492V158.7c0-0.769,0.552-1.406,1.303-1.567
				c3.051-0.653,5.807-2.798,7.979-5.949c0.248-0.36-0.023-0.852-0.461-0.852h-18.982c-0.45,0-0.702,0.505-0.446,0.875
				c2.169,3.138,4.919,5.275,7.964,5.926c0.752,0.161,1.303,0.798,1.303,1.567v8.337c0,3.206-2.299,6.001-5.467,6.492
				c-1.79,0.277-3.524,0.674-5.187,1.178c-1.534,0.465-2.645,1.788-2.928,3.365c-0.174,0.973-0.311,1.972-0.404,2.992
				c-0.067,0.732,0.5,1.369,1.235,1.369h26.841c0.735,0,1.302-0.637,1.235-1.369c-0.094-1.02-0.23-2.019-0.404-2.992
				C360.288,176.494,359.177,175.172,357.643,174.706z"/>
			<rect x="324.26" y="128.167" style="fill:#FF9D45;" width="44.12" height="5.614"/>
			<rect x="324.26" y="184.441" style="fill:#FF9D45;" width="44.12" height="5.614"/>
		</g>
		
			<linearGradient id="SVGID_00000083076989130865223030000017443821953323448744_" gradientUnits="userSpaceOnUse" x1="553.2656" y1="117.5115" x2="634.2247" y2="37.8963">
			<stop  offset="0.0428" style="stop-color:#FFA526"/>
			<stop  offset="0.2537" style="stop-color:#FF9C26"/>
			<stop  offset="0.5935" style="stop-color:#FF8526"/>
			<stop  offset="1" style="stop-color:#FF6026"/>
		</linearGradient>
		<circle style="fill:url(#SVGID_00000083076989130865223030000017443821953323448744_);" cx="577.729" cy="93.454" r="35.559"/>
		<path style="fill:#A1C1ED;" d="M399.77,109.168c20.416,0,75.451,0,94.624,0s10.652-15.978,0-18.818
			c-10.652-2.84-8.166-19.883-27.34-26.63c-6.365-2.24-13.015,2.61-17.333,6.872c-2.807,2.771-6.939,3.684-10.634,2.304
			c-4.359-1.628-10.539-2.479-16.416,1.831c-7.158,5.249-12.564,16.828-22.901,17.043
			C382.727,92.125,375.448,109.168,399.77,109.168z"/>
		<path style="fill:#A1C1ED;" d="M397.564,174.296c0,0-5.294-7.611-13.829,0c0,0,12.101-1.819,13.829,7.299
			c1.729-9.118,13.829-7.299,13.829-7.299C402.858,166.686,397.564,174.296,397.564,174.296z"/>
		<path style="fill:#A1C1ED;" d="M212.536,124.242c0,0-3.497-5.027-9.134,0c0,0,7.992-1.201,9.134,4.821
			c1.142-6.022,9.134-4.821,9.134-4.821C216.033,119.216,212.536,124.242,212.536,124.242z"/>
		<g>
			<ellipse style="fill:#CEDBED;" cx="223.481" cy="441.406" rx="14.613" ry="2.435"/>
			<ellipse style="fill:#CEDBED;" cx="155.408" cy="441.406" rx="14.613" ry="2.435"/>
			<g>
				<g>
					<path style="fill:#FF6D6D;" d="M218.946,421.996l0.672,9.994l4.367,3.443c0,0,6.971,0.504,7.307,1.848
						c0.336,1.344-7.81,2.184-11.17,2.184s-6.97,1.092-7.894,0c-0.924-1.092,1.848-7.222,1.848-7.222l-2.036-10.246H218.946z"/>
					<path style="fill:#0C3069;" d="M214.075,432.242c0,0-2.771,6.131-1.848,7.222c0.924,1.092,4.535,0,7.894,0
						s11.506-0.84,11.17-2.184c-0.336-1.344-7.307-1.848-7.307-1.848l-4.367-3.443C216.636,432.998,214.075,432.242,214.075,432.242
						z"/>
				</g>
				<g>
					<path style="fill:#FF6D6D;" d="M160.642,421.646l-3.29,9.461l2.673,4.877c0,0,6.218,3.19,6.002,4.558
						c-0.216,1.368-8.042-1.045-11.134-2.359c-3.092-1.314-6.842-1.721-7.266-3.087c-0.423-1.366,4.525-5.925,4.525-5.925
						l2.133-10.226L160.642,421.646z"/>
					<path style="fill:#0C3069;" d="M152.152,429.17c0,0-4.948,4.559-4.525,5.925c0.423,1.366,4.174,1.774,7.266,3.087
						c3.092,1.314,10.918,3.727,11.134,2.359s-6.002-4.558-6.002-4.558l-2.673-4.877C154.214,430.868,152.152,429.17,152.152,429.17
						z"/>
				</g>
				<g>
					<rect x="196.607" y="315.338" style="fill:#967C45;" width="52.669" height="34.643"/>
					<g>
						<path style="fill:#0C3069;" d="M227.149,315.338h-2.016v-5.969c0-0.216-0.176-0.393-0.393-0.393h-9.244
							c-0.217,0-0.393,0.176-0.393,0.393v5.969h-2.016v-5.969c0-1.328,1.08-2.408,2.408-2.408h9.244
							c1.328,0,2.408,1.081,2.408,2.408V315.338z"/>
					</g>
					<rect x="196.607" y="315.338" style="fill:#C7A55B;" width="47.023" height="34.643"/>
					<path style="fill:#786337;" d="M238.508,325.053h-36.78c-1.591,0-2.977-1.084-3.36-2.628l-1.761-7.087h47.023l-1.761,7.087
						C241.485,323.97,240.099,325.053,238.508,325.053z"/>
					
						<line style="fill:none;stroke:#5E4E2B;stroke-width:0.5039;stroke-miterlimit:10;" x1="246.534" y1="315.338" x2="246.534" y2="349.981"/>
				</g>
				
					<linearGradient id="SVGID_00000065766769401663337670000014280668232610716329_" gradientUnits="userSpaceOnUse" x1="214.3612" y1="320.9281" x2="235.3988" y2="354.5631">
					<stop  offset="0.0427" style="stop-color:#000000"/>
					<stop  offset="0.9337" style="stop-color:#000000;stop-opacity:0"/>
				</linearGradient>
				<polygon style="opacity:0.37;fill:url(#SVGID_00000065766769401663337670000014280668232610716329_);" points="227.149,315.338 
					230.283,349.981 216.249,349.981 216.249,315.338 				"/>
				<path style="fill:#FF6D6D;" d="M221.759,296.484c0,0-0.042,2.52,0.714,4.535c0.756,2.016,0.672,6.089,0.672,6.089h-3.541
					c0,0-1.666,2.687-2.506,2.645c-0.84-0.042-0.294-3.065-0.714-3.653c-0.42-0.588-1.806-2.099-0.42-4.325
					c1.386-2.225,1.386-5.291,1.386-5.291H221.759z"/>
				<path style="fill:#FF6D6D;" d="M218.946,308.733c0,0,0.924,0,2.645,0c1.722,0,1.512,0.924,1.008,1.554
					c-0.504,0.63-3.611,0.672-4.451,0C217.308,309.615,217.476,308.733,218.946,308.733z"/>
				<polygon style="fill:#DBB883;" points="223.649,292.852 223.229,297.702 215.922,297.702 215.56,292.555 				"/>
				<path style="fill:#1656BD;" d="M215.932,203.392c8.557,3.357,11.244,13.938,11.748,22.169c0.504,8.23-1.743,36.356-1.743,36.356
					s3.834,16.049-1.495,32.51h-8.688c0,0-5.207-49.55-5.543-63.659C209.876,216.659,215.932,203.392,215.932,203.392z"/>
				
					<linearGradient id="SVGID_00000029039968150260916510000014143166535590737853_" gradientUnits="userSpaceOnUse" x1="216.4559" y1="231.4955" x2="224.6641" y2="316.0406">
					<stop  offset="0" style="stop-color:#0C3069"/>
					<stop  offset="1" style="stop-color:#0C3069;stop-opacity:0"/>
				</linearGradient>
				<path style="fill:url(#SVGID_00000029039968150260916510000014143166535590737853_);" d="M210.483,224.189
					c-0.217,2.139-0.325,4.348-0.271,6.579c0.336,14.109,5.543,63.659,5.543,63.659h8.688c5.329-16.461,1.495-32.51,1.495-32.51
					l-8.295-46.854L210.483,224.189z"/>
				<path style="fill:#0C3069;" d="M189.211,277.546c-0.235,20.455,7.353,65.476,12.203,76.464
					c-1.512,25.699,7.364,69.666,7.364,69.666H220.3c0,0,2.131-25.883,1.078-61.223c-1.26-42.257-5.818-84.906-5.818-84.906H189.211
					z"/>
				
					<linearGradient id="SVGID_00000069390511250007455630000003322891901536776072_" gradientUnits="userSpaceOnUse" x1="190.1093" y1="358.9835" x2="221.6689" y2="358.9835">
					<stop  offset="0.0427" style="stop-color:#000000"/>
					<stop  offset="0.9337" style="stop-color:#000000;stop-opacity:0"/>
				</linearGradient>
				<path style="opacity:0.37;fill:url(#SVGID_00000069390511250007455630000003322891901536776072_);" d="M207.608,338.265
					c-1.086-11.508-13.959-37.112-17.499-43.974c2.123,22.137,7.539,51.186,11.305,59.719c-1.512,25.699,7.364,69.666,7.364,69.666
					H220.3c0,0,1.717-20.875,1.305-50.721C209.026,372.845,208.711,349.956,207.608,338.265z"/>
				<path style="fill:#0C3069;" d="M201.309,277.546c0,0-12.104,78.859-39.052,146.129h-11.59c0,0,6.047-59.711,14.865-73.695
					l6.047-72.435H201.309z"/>
				<path style="fill:none;stroke:#1656BD;stroke-width:0.5039;stroke-miterlimit:10;" d="M181.154,286.811l-10.078,64.845
					c0,0-13.195,57.659-15.668,72.02"/>
				<path style="fill:none;stroke:#1656BD;stroke-width:0.5039;stroke-miterlimit:10;" d="M196.871,304.77
					c0,0,1.379-16.817,0.743-23.948"/>
				<path style="fill:none;stroke:#1656BD;stroke-width:0.5039;stroke-miterlimit:10;" d="M201.498,281.703
					c0,0,1.008,8.823,0,12.757c-1.008,3.934-4.226,4.627-4.226,4.627"/>
				
					<linearGradient id="SVGID_00000102517672433537959870000007909688876362257560_" gradientUnits="userSpaceOnUse" x1="169.307" y1="291.158" x2="216.9306" y2="291.158">
					<stop  offset="0.0427" style="stop-color:#000000"/>
					<stop  offset="0.9337" style="stop-color:#000000;stop-opacity:0"/>
				</linearGradient>
				<path style="opacity:0.37;fill:url(#SVGID_00000102517672433537959870000007909688876362257560_);" d="M215.559,277.546h-14.25
					h-12.099H171.58l-2.273,27.224c12.368-0.426,23.339-10.796,31.331-10.343c6.249,0.354,12.884-1.533,16.293-2.691
					C216.134,282.92,215.559,277.546,215.559,277.546z"/>
				<polygon style="fill:#DBB883;" points="182.497,198.687 185.311,197.091 201.813,200.03 206.18,280.821 181.154,280.821 				"/>
				<path style="fill:#FF6D6D;" d="M211.135,179.223l-4.472,9.133l-1.134-0.567c0,0-1.512,4.535-2.96,4.535
					s-2.897-1.701-2.897-1.701l-0.756,9.763c0,0-10.204,1.995-13.605-3.296c1.911-5.899,4.016-12.488,4.016-12.488
					s2.597-4.876,2.597-7.962c0-3.086,2.897-9.448,10.645-6.866C210.317,172.358,211.135,179.223,211.135,179.223z"/>
				
					<linearGradient id="SVGID_00000092430803280284240330000005520567858330101916_" gradientUnits="userSpaceOnUse" x1="191.499" y1="189.9431" x2="199.6718" y2="189.9431">
					<stop  offset="0" style="stop-color:#F04F4F"/>
					<stop  offset="0.9465" style="stop-color:#F04F4F;stop-opacity:0.0535"/>
					<stop  offset="1" style="stop-color:#F04F4F;stop-opacity:0"/>
				</linearGradient>
				<path style="fill:url(#SVGID_00000092430803280284240330000005520567858330101916_);" d="M193.76,181.199
					c-0.387,2.286,3.476,6.528,5.912,9.425l-0.624,8.063c0,0-8.068-4.745-7.522-16.167L193.76,181.199z"/>
				<path style="fill:#0C3069;" d="M200.151,175.683c0.794-0.923,2.188-1.03,3.092-0.215c2.153,1.941,5.955,4.856,9.572,5.078
					c5.459,0.336,7.92-3.5,5.711-5.207c-2.047-1.581-6.717-3.481-6.717-3.481s-15.674-16.941-18.999-3.325
					c0,0-3.087-0.317-3.879,3.721c-0.792,4.037,2.058,9.262,0.396,12.349l4.433-3.404c0,0-1.662-1.346-1.108-3.721
					c0.554-2.375,2.454-3.246,3.087-2.296c0.633,0.95-0.079,4.354-0.079,4.354S198.292,177.844,200.151,175.683z"/>
				<path style="fill:#1656BD;" d="M198.528,199.708c1.007,6.882,3.97,31.098,0.388,57.78l0.006,19.979
					c0.001,4.984,3.605,9.268,8.529,10.041c3.613,0.567,7.902,0.793,11.882-0.136l-3.579-30.402c0,0,3.648-34.913,3.456-48.965
					c-0.028-2.067-1.335-3.896-3.274-4.612c-3.72-1.373-10.155-3.649-15.773-5.141C199.251,198.011,198.391,198.775,198.528,199.708
					z"/>
				<path style="fill:none;stroke:#0F3D85;stroke-width:0.8088;stroke-miterlimit:10;" d="M200.302,198.687
					c0,0,7.43,4.292,9.896,9.196l-6.137,13.227c0,0,4.444,2.771,6.137,5.669l-9.015,20.282"/>
				<path style="fill:#1656BD;" d="M161.1,201.882c7.461-2.509,18.421-4.915,23.013-5.879c1.243-0.261,2.482,0.428,2.91,1.623
					c2.588,7.232,10.936,32.421,11.893,58.882c0.165,4.572-2.099,17.902-3.353,24.869c-0.568,3.156-2.571,5.897-5.461,7.288
					c-5.803,2.792-16.166,5.011-26.08-6.836l6.299-16.125L161.1,201.882z"/>
				<path style="fill:none;stroke:#0F3D85;stroke-width:0.8088;stroke-miterlimit:10;" d="M184.177,197.091
					c0,0-5.291,5.627-6.803,9.154l13.101,13.227c0,0-3.401,2.341-6.551,6.173l13.605,21.415"/>
				
					<linearGradient id="SVGID_00000112616888915189992220000007743720689150007705_" gradientUnits="userSpaceOnUse" x1="188.3993" y1="256.3002" x2="198.4772" y2="314.0804">
					<stop  offset="0" style="stop-color:#0C3069"/>
					<stop  offset="1" style="stop-color:#0C3069;stop-opacity:0"/>
				</linearGradient>
				<path style="fill:url(#SVGID_00000112616888915189992220000007743720689150007705_);" d="M216.249,261.171
					c0,0-29.03,35.849-51.127,17.84l5.198-13.306l45.434-8.734L216.249,261.171z"/>
				
					<linearGradient id="SVGID_00000138547882631137063510000002303100066307102129_" gradientUnits="userSpaceOnUse" x1="197.1565" y1="218.0656" x2="170.7861" y2="279.3727">
					<stop  offset="0" style="stop-color:#0C3069"/>
					<stop  offset="1" style="stop-color:#0C3069;stop-opacity:0"/>
				</linearGradient>
				<path style="fill:url(#SVGID_00000138547882631137063510000002303100066307102129_);" d="M170.572,206.413
					c0,0,16.156,28.299,20.927,42.284c0,0,1.087-0.597,2.168,1.239c0,0,19.609-5.718,23.565-5.084l-31.039,16.822l-21.07-28.89
					L170.572,206.413z"/>
				<path style="fill:#FF6D6D;" d="M223.04,251.69l2.488-1.008c0,0,1.26,2.551,4.724,3.181c0,0,0.315,1.732,1.89,1.764
					c1.575,0.031,2.929-6.236,1.701-8.125c0,0-6.923-3.344-9.4-3.255c-2.477,0.089-5.402,1.271-5.402,1.271L223.04,251.69z"/>
				<path style="fill:#1656BD;" d="M164.861,200.756c-11.624,1.993-20.828,16.472-9.574,36.227
					c6.383,19.484,13.437,40.816,25.867,41.991c12.429,1.176,42.495-26.203,42.495-26.203s0.103-6.719-4.316-8.566l-27.834,8.566
					c0,0,0.558-1.848-2.71-1.008c0,0-8.339-23.168-11.163-31.074C175.107,213.635,170.74,199.748,164.861,200.756z"/>
				<g>
					<path style="fill:#786337;" d="M224.875,243.657c-0.501-0.171-1.135-0.277-1.835-0.277s-1.334,0.107-1.835,0.277h-1.062v0.917
						c0,0.66,1.297,1.195,2.897,1.195c1.6,0,2.897-0.535,2.897-1.195v-0.917H224.875z"/>
					<ellipse style="fill:#EBC36C;" cx="223.04" cy="243.657" rx="2.897" ry="1.195"/>
					<path style="fill:#FFFAF0;" d="M225.163,243.657c0,0.435-0.951,0.787-2.123,0.787c-1.172,0-2.123-0.353-2.123-0.787
						c0-0.435,0.95-0.788,2.123-0.788C224.212,242.87,225.163,243.222,225.163,243.657z"/>
				</g>
				<path style="fill:#0C3069;" d="M225.163,245.013c0,0,1.612,1.624,0.602,5.566c-0.081,0.316-0.334,0.566-0.648,0.655
					l-0.943,0.267c0,0,0.661-4.25-1.386-6.047L225.163,245.013z"/>
			</g>
		</g>
	</g>
</g>

</svg>
