<?xml version="1.0" encoding="utf-8"?>
<!-- Generator: Adobe Illustrator 27.5.0, SVG Export Plug-In . SVG Version: 6.00 Build 0)  -->
<svg version="1.1" id="Layer_1" xmlns="http://www.w3.org/2000/svg" xmlns:xlink="http://www.w3.org/1999/xlink" x="0px" y="0px"
	 viewBox="0 0 5600 2020" style="enable-background:new 0 0 5600 2020;" xml:space="preserve">
<rect x="0.001" style="fill:#FFFFFF;" width="5600" height="2020"/>
<g>
	<path style="fill:#E4F0FF;" d="M322.972,1998.951c0,0-358.542-214.84-172.375-822.31
		C336.762,569.172,242.073,8.058,1192.667,31.447c950.593,23.39,1094.794,349.295,1596.474,347.993
		c501.679-1.303,886.672-35.325,1327.243-3.649c551.606,39.658,1157.12,354.764,1308.861,749.658
		c151.74,394.894-52.741,866.495-52.741,866.495L322.972,1998.951z"/>
	<path style="fill:#F9B5B2;" d="M4928.488,1380.85l-5.714,52.402c0,0,21.093,2.642,30.321,5.283
		c9.227,2.643,35.302-48.835,35.302-48.835s-27.831-11.934-29.15-11.934C4957.929,1377.767,4928.488,1380.85,4928.488,1380.85z"/>
	<g>
		<polygon style="fill:#07085B;" points="5228.854,1623.205 5254.729,1993 5241.792,1993 5200.824,1627.211 		"/>
		<polygon style="fill:#07085B;" points="4957.093,1623.205 4931.219,1993 4944.156,1993 4985.123,1627.211 		"/>
		<path style="fill:#57ACE5;" d="M5341.767,1223.146c0,0-206.822-6.128-220.207-5.172s-25.762,43.992-25.762,43.992
			s-60.414,224.142-59.21,230.306c1.204,6.165-56.362,150.603-56.362,150.603s49.656-1.321,51.854,0
			c2.197,1.32,192.035-16.294,194.672-18.055c2.637-1.762,12.304-34.788,12.744-36.55c0.439-1.762,14.94-130.346,14.94-130.346
			l7.471-70.896c0,0,28.563-60.828,29.003-61.019c0.439-0.191,26.807-53.475,28.563-56.116c1.758-2.643,29.003-32.146,29.881-34.789
			C5350.233,1232.462,5341.767,1223.146,5341.767,1223.146z"/>
		<path style="opacity:0.3;fill:#57ACE5;" d="M5341.767,1223.146c0,0-71.305-2.112-132.889-3.663
			c23.935,14.084,37.355,53.477,27.394,123.552c-8.464,59.552-17.87,124.181-55.367,201.684
			c-19.316,39.917-102.476,17.559-170.635,21.508c-14.686,38.111-30.044,76.647-30.044,76.647s49.656-1.32,51.854,0
			c2.197,1.321,192.035-16.293,194.672-18.055c2.637-1.761,12.304-34.787,12.744-36.549c0.439-1.762,14.94-130.346,14.94-130.346
			l7.471-70.896c0,0,28.563-60.828,29.003-61.019c0.439-0.191,26.806-53.475,28.563-56.116c1.758-2.643,29.003-32.146,29.881-34.789
			C5350.233,1232.462,5341.767,1223.146,5341.767,1223.146z"/>
		<g>
			<g>
				<path style="fill:#026EAF;" d="M4942.439,1650.768l-0.002-0.009c-0.438-7.07,4.892-13.168,11.945-13.646
					c22.1-1.5,69.896-4.921,119.054-9.584c94.23-8.939,128.298-16.258,140.491-20.082c4.209-1.32,7.443-4.739,8.521-9.024
					c3.307-13.17,5.245-40.508,6.867-63.376c6.153-86.783,16.304-229.884,105.466-308.453c5.563-4.902,14.128-4.027,18.646,1.856
					l0,0c4.112,5.358,3.409,13.017-1.664,17.472c-81.23,71.329-90.558,202.858-96.804,290.95
					c-3.563,50.217-5.761,74.865-16.729,86.334c-5.289,5.531-15.135,15.824-158.404,29.591
					c-50.827,4.882-100.859,8.467-123.709,10.018C4949.009,1663.297,4942.882,1657.892,4942.439,1650.768z M5220.259,1604.849
					L5220.259,1604.849L5220.259,1604.849z"/>
			</g>
		</g>
	</g>
	<path style="fill:#02CCC0;" d="M4948.627,1468.48c0,0,5.659-199.041,16.169-221.939c10.509-22.898,47.697-27.303,47.697-27.303
		s96.943-14.401,122.133,9.414c1.885,1.782,45.709,59.945,38.701,335.825c0,0-83.249-45.797-224.7-69.282V1468.48z"/>
	<g style="opacity:0.3;">
		<polygon style="fill:#FFFFFF;" points="3256.019,932.379 3618.719,932.379 3785.312,564.354 3422.611,564.354 		"/>
		<polygon style="fill:#FFFFFF;" points="3840.614,564.354 3674.021,932.379 4036.722,932.379 4203.314,564.354 		"/>
		<polygon style="fill:#FFFFFF;" points="3072.733,1337.28 3435.434,1337.28 3602.026,969.255 3239.326,969.255 		"/>
		<polygon style="fill:#FFFFFF;" points="3490.737,1337.28 3853.437,1337.28 4020.029,969.255 3657.329,969.255 		"/>
	</g>
	<rect x="2568.635" y="706.388" style="fill:#142666;" width="47.017" height="190.603"/>
	
		<rect x="2914.579" y="780.923" transform="matrix(-1.836970e-16 1 -1 -1.836970e-16 3809.3259 -2057.2747)" style="fill:#70C0FD;" width="37.443" height="190.206"/>
	
		<rect x="2939.885" y="743.354" transform="matrix(-1.836970e-16 1 -1 -1.836970e-16 3797.0642 -2120.1487)" style="fill:#142666;" width="37.443" height="190.207"/>
	
		<rect x="2900.52" y="706.726" transform="matrix(-1.836970e-16 1 -1 -1.836970e-16 3721.0708 -2117.4126)" style="fill:#FFFFFF;" width="37.443" height="190.206"/>
	<rect x="2621.943" y="629.611" style="fill:#FFFFFF;" width="48.079" height="264.562"/>
	<rect x="2518.767" y="658.772" style="fill:#70C0FD;" width="44.282" height="235.401"/>
	<polygon style="fill:#70C0FD;" points="2812.904,872.508 2773.11,891.976 2670.052,680.438 2709.846,660.97 	"/>
	<rect x="2483.623" y="892.838" style="fill:#4188E4;" width="760.549" height="21.532"/>
	<g>
		<rect x="4299.343" y="743.56" style="fill:#142666;" width="41.759" height="169.294"/>
		
			<rect x="4472.343" y="809.762" transform="matrix(-1.836970e-16 1 -1 -1.836970e-16 5383.2046 -3594.7388)" style="fill:#FFFFFF;" width="33.257" height="168.941"/>
		
			<rect x="4494.819" y="776.394" transform="matrix(-1.836970e-16 1 -1 -1.836970e-16 5372.313 -3650.5825)" style="fill:#97CEF7;" width="33.257" height="168.942"/>
		
			<rect x="4472.343" y="743.861" transform="matrix(-1.836970e-16 1 -1 -1.836970e-16 5317.3032 -3660.6401)" style="fill:#142666;" width="33.257" height="168.941"/>
		<rect x="4346.69" y="675.368" style="fill:#70C0FD;" width="42.703" height="234.984"/>
		<rect x="4255.049" y="701.269" style="fill:#FFFFFF;" width="39.331" height="209.083"/>
		<g>
			<rect x="4669.08" y="743.56" style="fill:#142666;" width="41.761" height="169.294"/>
			<rect x="4716.429" y="675.368" style="fill:#70C0FD;" width="42.703" height="234.984"/>
			<rect x="4624.786" y="701.269" style="fill:#FFFFFF;" width="39.332" height="209.083"/>
			<polygon style="fill:#FFFFFF;" points="4886.04,891.108 4850.694,908.4 4759.159,720.512 4794.504,703.22 			"/>
		</g>
		<rect x="4223.834" y="909.166" style="fill:#4188E4;" width="675.519" height="19.125"/>
	</g>
	<g>
		<path style="fill:#FFFFFF;" d="M4887.668,1993.991l100.839-46.722c1.486-0.689,2.135-2.456,1.447-3.945l-2.58-5.593
			c-0.688-1.49-2.452-2.14-3.938-1.45l-100.84,46.721c-1.486,0.689-2.135,2.456-1.447,3.945l2.581,5.594
			C4884.418,1994.03,4886.181,1994.68,4887.668,1993.991z"/>
		<path style="fill:#02CCC0;" d="M4965.863,1903.906l17.62,28.929c2.173,3.567,1.7,7.939-0.992,9.188l-93.606,43.369
			c-2.431,1.127-5.554,0.682-8.185-1.66c-2.696-2.399-5.049-6.808-3.667-14.838c2.712-15.77,27.99-31.22,37.112-47.522
			c0.326-0.584,0.809-1.049,1.409-1.327l42.679-19.774C4960.668,1899.142,4963.899,1900.681,4965.863,1903.906z"/>
		<g>
			<path style="fill:#FFFFFF;" d="M4929.438,1935.15L4929.438,1935.15c0.48-0.741,0.187-2.027-0.615-2.737
				c-3.771-3.335-14.218-10.867-24.941-3.357c-0.62,0.434-0.651,1.567-0.098,2.466l0.018,0.028c0.535,0.869,1.423,1.19,2.021,0.772
				c9.629-6.69,18.659,0.03,21.766,2.852C4928.251,1935.775,4929.04,1935.766,4929.438,1935.15z"/>
		</g>
		<g>
			<path style="fill:#FFFFFF;" d="M4921.532,1943.588L4921.532,1943.588c0.479-0.741,0.186-2.027-0.617-2.737
				c-3.77-3.335-14.218-10.867-24.94-3.357c-0.621,0.435-0.652,1.567-0.099,2.466l0.018,0.029c0.537,0.868,1.423,1.189,2.023,0.771
				c9.628-6.69,18.658,0.031,21.765,2.852C4920.344,1944.213,4921.134,1944.204,4921.532,1943.588z"/>
		</g>
		<g>
			<path style="fill:#FFFFFF;" d="M4914.184,1951.447L4914.184,1951.447c0.479-0.741,0.187-2.027-0.616-2.737
				c-3.77-3.335-14.218-10.867-24.941-3.357c-0.619,0.434-0.652,1.567-0.098,2.466l0.018,0.028c0.536,0.869,1.423,1.19,2.023,0.772
				c9.628-6.69,18.658,0.031,21.764,2.852C4912.995,1952.072,4913.785,1952.063,4914.184,1951.447z"/>
		</g>
		<path style="opacity:0.3;fill:#E87B50;" d="M4956.962,1948.92c-1.89-21.325,5.938-29.967,12.475-33.472
			c1.475-0.791,3.325-0.216,4.22,1.251l9.827,16.136c2.173,3.567,1.7,7.938-0.993,9.187l-20.934,9.699
			C4959.518,1952.666,4957.165,1951.213,4956.962,1948.92z"/>
	</g>
	<g>
		<path style="fill:#FFFFFF;" d="M4711.967,1996.145l107.101-29.587c1.58-0.437,2.507-2.072,2.071-3.655l-1.635-5.939
			c-0.435-1.583-2.067-2.512-3.648-2.076l-107.1,29.587c-1.579,0.436-2.507,2.072-2.071,3.655l1.635,5.94
			C4708.755,1995.651,4710.388,1996.581,4711.967,1996.145z"/>
		<path style="fill:#02CCC0;" d="M4803.798,1920.07l12.668,31.425c1.562,3.875,0.382,8.111-2.479,8.901l-99.418,27.464
			c-2.582,0.713-5.59-0.237-7.804-2.978c-2.269-2.811-3.87-7.543-1.199-15.239c5.246-15.114,32.703-26.219,44.36-40.809
			c0.418-0.523,0.969-0.902,1.608-1.079l45.329-12.521C4799.45,1914.52,4802.385,1916.567,4803.798,1920.07z"/>
		<g>
			<path style="fill:#FFFFFF;" d="M4762.769,1944.932L4762.769,1944.932c0.594-0.652,0.515-1.969-0.163-2.801
				c-3.174-3.908-12.254-13.049-24.058-7.396c-0.682,0.327-0.898,1.44-0.498,2.416l0.013,0.032c0.388,0.944,1.209,1.406,1.87,1.093
				c10.589-5.025,18.402,3.085,21.007,6.376C4761.495,1945.354,4762.275,1945.475,4762.769,1944.932z"/>
		</g>
		<g>
			<path style="fill:#FFFFFF;" d="M4753.593,1951.962L4753.593,1951.962c0.593-0.652,0.513-1.97-0.162-2.802
				c-3.175-3.906-12.256-13.048-24.06-7.395c-0.681,0.326-0.897,1.439-0.497,2.416l0.013,0.031c0.388,0.945,1.21,1.407,1.87,1.094
				c10.589-5.025,18.402,3.084,21.006,6.376C4752.319,1952.384,4753.1,1952.505,4753.593,1951.962z"/>
		</g>
		<g>
			<path style="fill:#FFFFFF;" d="M4745.062,1958.513L4745.062,1958.513c0.596-0.652,0.516-1.97-0.162-2.802
				c-3.174-3.906-12.254-13.048-24.058-7.395c-0.683,0.326-0.899,1.439-0.499,2.416l0.014,0.031
				c0.387,0.945,1.209,1.407,1.869,1.094c10.59-5.025,18.402,3.084,21.007,6.376
				C4743.787,1958.936,4744.568,1959.056,4745.062,1958.513z"/>
		</g>
		<path style="opacity:0.3;fill:#E87B50;" d="M4787.679,1963.022c1.611-21.348,10.741-28.593,17.762-30.979
			c1.585-0.539,3.316,0.331,3.959,1.925l7.066,17.527c1.562,3.875,0.382,8.11-2.479,8.901l-22.232,6.142
			C4789.588,1967.137,4787.504,1965.318,4787.679,1963.022z"/>
	</g>
	<g>
		<path style="fill:#00AA99;" d="M4971.224,1389.7c1.809-15.797,3.404-30.281,3.404-32.19c0-4.403-11.956-110.969-11.956-110.969
			s-29.454,64.299-36.458,136.51C4935.161,1387.564,4949.778,1392.148,4971.224,1389.7z"/>
		<path style="fill:#F4A640;" d="M4964.731,1432.529l1.4,0.723c0,0,0.131-1.091,0.356-2.995
			C4965.898,1431.028,4965.312,1431.787,4964.731,1432.529z"/>
	</g>
	<path style="fill:#202121;" d="M4966.133,1495.195c0,0-241.399,27.008-254.29,109.208c-12.892,82.2,38.084,324.432,38.084,324.432
		s40.429-2.679,55.664-12.072c0,0-15.235-270.085,7.031-287.699c22.265-17.614,144.135-59.889,146.479-64.586
		C4961.444,1559.78,4966.133,1495.195,4966.133,1495.195z"/>
	<path style="fill:#333333;" d="M4966.133,1495.195c0,0-160.542,88.07-160.542,139.739s62.107,244.251,107.809,286.524
		c0,0,28.125-4.696,52.733-17.613l-55.078-248.948c0,0,244.916-32.88,260.148-90.42l-60.221-63.411L4966.133,1495.195z"/>
	<rect x="4421.227" y="1495.195" style="fill:#183658;" width="18.163" height="497.309"/>
	<rect x="4592.608" y="1495.195" style="fill:#183658;" width="18.163" height="497.309"/>
	<rect x="5110.982" y="1495.195" style="fill:#183658;" width="18.163" height="497.309"/>
	<rect x="5282.364" y="1495.195" style="fill:#183658;" width="18.163" height="497.309"/>
	<path style="fill:#FEE4CB;" d="M5343.668,1501.066h-963.072c-4.419,0-8-3.582-8-8v-15.706c0-4.418,3.581-8,8-8h963.072
		c4.419,0,8,3.582,8,8v15.706C5351.668,1497.484,5348.087,1501.066,5343.668,1501.066z"/>
	<path style="fill:#FFC0BB;" d="M5065.738,1179.712v49.702c0,2.761-1.577,5.278-4.071,6.449c-7.584,3.559-24.541,9.395-40.371,0.095
		c-2.137-1.255-3.396-3.61-3.396-6.092v-44.892L5065.738,1179.712z"/>
	<path style="fill:#F99893;" d="M5065.738,1206.33v-26.618l-47.839,5.263v22.583C5026.875,1210.28,5043.581,1213,5065.738,1206.33z"
		/>
	<path style="fill:#F99893;" d="M4987.352,1126.231c2.591,7.879-0.409,15.949-6.698,18.026c-6.29,2.076-13.489-2.627-16.081-10.506
		c-2.589-7.879,0.409-15.949,6.699-18.025C4977.562,1113.649,4984.761,1118.353,4987.352,1126.231z"/>
	<path style="fill:#FFC0BB;" d="M4986.465,1171.216c-1.678-3.437-3.046-7.055-4.082-10.813c-2.984-10.111-4.114-20.706-4.372-29.896
		c-0.056-1.972-0.224-3.936-0.43-5.897c-0.83-7.923-0.231-16.221,2.19-24.63c7.79-27.055,32.869-46.112,60.969-46.261
		c37.854-0.2,66.944,31.738,64.416,68.575c4.147-1.949,8.671-2.153,12.501-0.112c7.347,3.917,9.344,14.554,4.459,23.758
		c-4.886,9.204-14.804,13.49-22.152,9.573c-1.02-0.544-1.926-1.228-2.735-2.01c-5.341,31.124-32.632,53.55-63.335,50.92
		c-15.015-1.286-28.205-8.347-37.774-18.912c-0.646-0.622-1.318-1.345-2.02-2.18
		C4991.018,1179.666,4988.517,1175.562,4986.465,1171.216z"/>
	<path style="fill:#333333;" d="M5047.411,1123.89c-0.264,3.082,2.017,5.795,5.093,6.059c3.075,0.263,5.782-2.022,6.046-5.104
		c0.263-3.082-2.018-5.795-5.095-6.059C5050.38,1118.522,5047.672,1120.808,5047.411,1123.89z"/>
	<path style="fill:#333333;" d="M4999.313,1122.936c-0.263,3.082,2.018,5.794,5.094,6.058s5.783-2.021,6.044-5.104
		c0.265-3.082-2.016-5.794-5.092-6.058S4999.577,1119.853,4999.313,1122.936z"/>
	<path style="fill:#333333;" d="M5041.633,1112.245c2.825-0.886,5.506-1.567,8.172-1.955c2.66-0.392,5.276-0.434,7.82-0.081
		c2.528,0.382,5.067,0.984,7.477,2.16l0.938,0.383c0.313,0.133,0.591,0.329,0.898,0.477l1.841,0.965
		c1.236,0.669,2.376,1.504,3.747,2.171c-0.709-1.286-1.521-2.553-2.473-3.714c-1.062-1.032-2.031-2.256-3.342-3.057
		c-2.426-1.885-5.476-2.991-8.562-3.431c-3.105-0.427-6.296-0.034-9.15,1.033
		C5046.161,1108.294,5043.534,1109.928,5041.633,1112.245z"/>
	<g>
		<polygon style="fill:#07085B;" points="4128.854,1623.205 4154.729,1993 4141.792,1993 4100.824,1627.211 		"/>
		<polygon style="fill:#07085B;" points="3857.093,1623.205 3831.219,1993 3844.155,1993 3885.123,1627.211 		"/>
		<path style="fill:#57ACE5;" d="M4241.767,1223.146c0,0-206.822-6.128-220.207-5.172s-25.762,43.992-25.762,43.992
			s-60.414,224.142-59.21,230.306c1.204,6.165-56.362,150.603-56.362,150.603s49.656-1.321,51.854,0
			c2.197,1.32,192.035-16.294,194.672-18.055c2.637-1.762,12.304-34.788,12.744-36.55c0.439-1.762,14.941-130.346,14.941-130.346
			l7.47-70.896c0,0,28.563-60.828,29.003-61.019c0.439-0.191,26.807-53.475,28.564-56.116c1.757-2.643,29.002-32.146,29.88-34.789
			C4250.233,1232.462,4241.767,1223.146,4241.767,1223.146z"/>
		<path style="opacity:0.3;fill:#57ACE5;" d="M4241.767,1223.146c0,0-71.305-2.112-132.889-3.663
			c23.935,14.084,37.355,53.477,27.394,123.552c-8.464,59.552-17.87,124.181-55.368,201.684
			c-19.314,39.917-102.474,17.559-170.634,21.508c-14.685,38.111-30.044,76.647-30.044,76.647s49.656-1.32,51.854,0
			c2.197,1.321,192.035-16.293,194.672-18.055c2.637-1.761,12.304-34.787,12.744-36.549c0.439-1.762,14.941-130.346,14.941-130.346
			l7.47-70.896c0,0,28.563-60.828,29.003-61.019c0.439-0.191,26.806-53.475,28.564-56.116c1.757-2.643,29.002-32.146,29.88-34.789
			C4250.233,1232.462,4241.767,1223.146,4241.767,1223.146z"/>
		<g>
			<g>
				<path style="fill:#026EAF;" d="M3842.439,1650.768l-0.001-0.009c-0.439-7.07,4.891-13.168,11.944-13.646
					c22.1-1.5,69.896-4.921,119.054-9.584c94.23-8.939,128.298-16.258,140.491-20.082c4.209-1.32,7.443-4.739,8.521-9.024
					c3.307-13.17,5.245-40.508,6.867-63.376c6.153-86.783,16.304-229.884,105.466-308.453c5.563-4.902,14.128-4.027,18.646,1.856
					l0,0c4.113,5.358,3.409,13.017-1.664,17.472c-81.23,71.329-90.558,202.858-96.804,290.95
					c-3.563,50.217-5.761,74.865-16.729,86.334c-5.289,5.531-15.134,15.824-158.404,29.591
					c-50.827,4.882-100.859,8.467-123.709,10.018C3849.009,1663.297,3842.882,1657.892,3842.439,1650.768z M4120.259,1604.849
					L4120.259,1604.849L4120.259,1604.849z"/>
			</g>
		</g>
	</g>
	<path style="fill:#333333;" d="M5019.124,1111.47c-1.739-2.442-4.248-4.253-7.002-5.544c-2.776-1.262-5.931-1.872-9.059-1.66
		c-3.108,0.226-6.228,1.119-8.777,2.833c-1.361,0.709-2.415,1.863-3.545,2.819c-1.026,1.093-1.924,2.302-2.72,3.535
		c1.415-0.57,2.608-1.325,3.888-1.908l1.9-0.836c0.319-0.126,0.609-0.302,0.929-0.413l0.963-0.317
		c2.484-1.008,5.06-1.434,7.607-1.641c2.562-0.177,5.169,0.045,7.796,0.619C5013.738,1109.527,5016.366,1110.392,5019.124,1111.47z"
		/>
	<path style="fill:#F99893;" d="M5029.637,1117.227c-2.289,2.777-4.323,5.735-6.217,8.786c-1.898,3.05-3.62,6.21-5.086,9.541
		c-0.697,1.684-1.352,3.396-1.737,5.288c-0.08,0.48-0.143,0.975-0.154,1.5c-0.006,0.262,0.029,0.554,0.048,0.826
		c0.075,0.307,0.106,0.598,0.274,0.921c0.085,0.162,0.178,0.32,0.273,0.473l0.245,0.28c0.165,0.18,0.321,0.373,0.493,0.539
		c0.354,0.322,0.696,0.657,1.066,0.939c1.449,1.187,3.027,2.105,4.635,2.932c1.621,0.803,3.273,1.524,4.99,2.064
		c-2.989-1.963-6.008-3.919-8.479-6.286c-0.313-0.29-0.577-0.609-0.858-0.916l-0.379-0.475l-0.184-0.233
		c-0.008-0.045-0.021-0.083-0.041-0.118c-0.163-0.373-0.069-1.268,0.119-2.026c0.386-1.6,1.014-3.239,1.718-4.836
		c1.369-3.224,2.983-6.387,4.556-9.573C5026.512,1123.672,5028.122,1120.489,5029.637,1117.227z"/>
	<path style="fill:#333333;" d="M5089.393,1040.632c0,0-17.638-16.422-58.957-15.07s-49.875,23.387-53.222,55.109l-0.062,34.884
		c0,0,12.343-8.053,27.288-39.225c0,0,22.238,27.487,32.395,24.607c10.158-2.881-3.09-22.589-3.09-22.589
		s43.683,43.601,71.392,44.354c0,0,18.248-48.917-1.763-67.503c0,0,15.479,1.223,16.4-1.908c0.92-3.132-7.145-8.094-22.103-6.75
		c0,0,11.3-21.176,5.441-23.586C5097.251,1020.545,5089.393,1040.632,5089.393,1040.632z"/>
	<path style="fill:#FFFFFF;" d="M5011.137,1162.967c1.792,6.787,9.818,11.856,19.406,11.765c9.587-0.091,17.517-5.313,19.181-12.132
		L5011.137,1162.967z"/>
	<g>
		<path style="fill:#09083C;" d="M1962.591,1406.75H749.655c-13.255,0-24-10.745-24-24V646.481c0-13.255,10.745-24,24-24h1224.412
			c6.917,0,12.524,5.607,12.524,12.524v747.745C1986.591,1396.005,1975.846,1406.75,1962.591,1406.75z"/>
		<path style="fill:#70C0FD;" d="M1958.943,1376.606H752.671c-2.703,0-4.895-2.191-4.895-4.895V657.519
			c0-2.703,2.191-4.894,4.895-4.894h1206.271c2.703,0,4.895,2.191,4.895,4.894v714.193
			C1963.837,1374.415,1961.646,1376.606,1958.943,1376.606z"/>
		<path style="opacity:0.5;fill:#97CEF7;" d="M1963.837,738.823v-77.83c0-4.622-3.116-8.369-6.96-8.369H754.737
			c-3.844,0-6.961,3.747-6.961,8.369v489.526L1963.837,738.823z"/>
	</g>
	<g>
		<polygon style="fill:#FFC0BB;" points="749.38,990.045 749.503,999.963 750.628,1024.619 702.088,1018.231 696.798,1011.038 
			696.375,992.302 694.777,974.753 727.045,974.753 		"/>
		<path style="fill:#FFC0BB;" d="M794.126,1591.376c0,0,2.421,10.919,0,24.87c-2.421,13.951-65.375,345.751-65.375,345.751
			l33.225,4.853c0,0,108.419-308.144,114.473-328.767c6.053-20.624,12.712-49.74-7.869-72.184
			C847.999,1543.456,794.126,1591.376,794.126,1591.376z"/>
		<path style="fill:#FFC0BB;" d="M811.616,1971.588l-39.751-47.975l-39.751,16.516l9.955,13.764l43.301,21.777
			c0,0,18.509,3.717,19.467,3.454C805.795,1978.86,811.616,1971.588,811.616,1971.588z"/>
		<path style="fill:#07085B;" d="M811.616,1971.588l8.616,10.806c4.014,4.944-0.899,12.078-6.935,10.071l-83.415-27.732
			c-2.942-0.979-4.536-4.161-3.56-7.109l5.792-17.494C781.799,1976.321,802.771,1977.309,811.616,1971.588z"/>
		<path style="fill:#07085B;" d="M674.126,856.879c0,0-20.76-13.615-44.383,0c-23.623,13.615-23.623,59.534-14.317,70.523
			c9.306,10.99-0.477,25.863,18.135,40.21c18.612,14.347,48.246,19.612,65.165,2.852c16.919-16.76,4.511-54.146,4.511-54.146
			L674.126,856.879z"/>
		<path style="fill:#FFC0BB;" d="M755.515,1973.857l-45.671-28.534l-39.673,23.763l13.773,9.922l47.941,7.007
			c0,0,18.736-2.313,19.563-2.865C752.275,1982.597,755.515,1973.857,755.515,1973.857z"/>
		<path style="fill:#FFC0BB;" d="M645.337,1559.916c0,0,6.539,158.114,7.144,185.41c0.605,27.297,14.527,229.895,20.581,247.485
			l33.898-2.426c0,0,23.122-392.255,15.858-430.47C715.554,1521.701,645.337,1559.916,645.337,1559.916z"/>
		<path style="fill:#FFC0BB;" d="M572.686,1430.766c-11.679-2.406-14.593,5.139-26.402,2.673l2.774,18.25
			c-1.585,3.55-5.128,13.031-5.128,13.031c-13.153,38.188-12.428,34.08-11.121,34.789c1.308,0.709,11.189-13.416,12.311-12.102
			c1.122,1.314-5.655,24.04-3.64,23.438c2.015-0.601,10.818-20.816,11.958-20.058c1.14,0.759-5.719,22.594-2.75,23.356
			c2.97,0.764,9.682-23.409,11.794-21.841c2.111,1.568-5.391,26.16-2.572,26.418c2.371,0.217,11.432-27.083,14.255-35.777
			c0.364-1.122,1.832-1.377,2.568-0.456c11.335,14.187,13.041,14.62,14.309,13.02c0.903-1.142-4.93-16.582-9.567-31.339
			l-6.16-17.986L572.686,1430.766z"/>
		<path style="fill:#07085B;" d="M755.515,1973.857l11.573,7.538c5.363,3.425,2.942,11.746-3.418,11.746h-87.886
			c-3.1,0-5.613-2.518-5.613-5.624v-18.432C728.702,1987.759,748.917,1982.078,755.515,1973.857z"/>
		<path style="fill:#FFC0BB;" d="M1036.896,1009.57c0.226,1.101,1.58,1.522,2.374,0.729c6.155-6.142,25.646-25.343,27.562-24.129
			c2.278,1.444-14.721,19.027-13.61,21.273c1.111,2.247,17.259-15.324,19.446-13.387c2.187,1.936-13.074,17.462-12.436,18.601
			c0.638,1.139,16.845-12.17,18.813-11.804c1.968,0.366-13.608,16.683-13.226,18.284c0.382,1.603,14.869-6.077,15.67-4.907
			c0.802,1.169,1.531,1.815-26.14,28.466l-11.341,10.026l-13.67,3.177l-9.649-13.866c0,0,7.859-48.867,9.713-49.712
			C1032.169,991.512,1033.427,992.622,1036.896,1009.57z"/>
		<path style="fill:#09083C;" d="M667.757,1559.916l28.121,104.292c64.947-0.071,161.837-6.1,209.966-38.253
			c0,0-62.92-293.033-104.688-366.43l-143.46-7.886c0,0-99.485,138.868-26.847,410.616c0,0,12.42,0.916,32.242,1.493
			L667.757,1559.916z"/>
		<path style="fill:#F99893;" d="M790.257,912.011c-2.968,8.081-0.144,16.561,6.307,18.94c6.451,2.379,14.087-2.243,17.055-10.324
			c2.968-8.081,0.144-16.561-6.307-18.94C800.86,899.308,793.225,903.93,790.257,912.011z"/>
		<path style="fill:#F99893;" d="M694.253,970.31c0,0,1.282,9.952,2.121,21.992c10.849,8.793,24.874,13.291,39.492,11.4
			c4.808-0.622,9.372-1.907,13.636-3.739c-0.339-7.851-0.222-15.131,0.99-18.617C753.827,971.759,694.253,970.31,694.253,970.31z"/>
		<path style="fill:#FFFFFF;" d="M797.455,1021.006l135.911,103.152l87.02-89.437c0,0,26.031,20.123,26.031,19.751
			c0-0.373-81.813,127.819-101.894,134.527c-20.082,6.707-149.657-83.775-149.657-83.775L797.455,1021.006z"/>
		<path style="fill:#FFC0BB;" d="M789.575,958.708c1.862-3.505,3.411-7.209,4.62-11.071c3.456-10.383,5.004-21.333,5.599-30.858
			c0.128-2.044,0.373-4.075,0.656-6.104c1.144-8.189,0.817-16.818-1.395-25.629c-7.118-28.345-32.458-49.012-61.603-50.17
			c-39.264-1.561-70.578,30.533-69.264,68.838c-4.235-2.171-8.921-2.544-12.967-0.563c-7.762,3.801-10.211,14.764-5.471,24.487
			c4.741,9.723,14.876,14.524,22.639,10.724c1.078-0.528,2.042-1.206,2.91-1.987c4.433,32.479,31.946,56.718,63.891,55.087
			c15.623-0.798,29.558-7.651,39.859-18.269c0.692-0.623,1.415-1.348,2.174-2.189C784.55,967.313,787.292,963.144,789.575,958.708z"
			/>
		<path style="fill:#333333;" d="M729.797,912.862c0.176,3.452-2.475,6.393-5.919,6.569c-3.444,0.176-6.379-2.48-6.555-5.932
			c-0.176-3.452,2.475-6.393,5.919-6.569C726.687,906.755,729.622,909.411,729.797,912.862z"/>
		<path style="fill:#333333;" d="M781.057,912.862c0.175,3.452-2.475,6.393-5.919,6.569c-3.445,0.176-6.379-2.48-6.555-5.932
			c-0.175-3.452,2.475-6.393,5.919-6.569C777.947,906.755,780.881,909.411,781.057,912.862z"/>
		<g>
			<g>
				<path style="fill:#F99893;" d="M748.867,900.934c-0.037,2.018-0.058,4.032,0.021,6.043c0.054,2.009,0.171,4.015,0.367,6.006
					c0.214,1.987,0.476,3.972,0.961,5.891c0.467,1.91,1.116,3.814,2.243,5.322c0.148,0.179,0.276,0.38,0.445,0.535
					c0.164,0.168,0.304,0.319,0.508,0.517c0.191,0.188,0.384,0.372,0.554,0.583c0.18,0.2,0.349,0.409,0.5,0.634
					c0.63,0.876,1.088,1.907,1.235,2.998c0.332,2.198-0.56,4.397-1.96,5.946c-1.392,1.592-3.23,2.678-5.151,3.37
					c-1.935,0.675-3.968,0.986-5.983,0.974c1.001-0.12,1.991-0.289,2.962-0.519c0.97-0.24,1.915-0.563,2.819-0.965
					c1.809-0.786,3.475-1.923,4.686-3.422c1.202-1.482,1.916-3.394,1.581-5.221c-0.144-0.908-0.523-1.772-1.077-2.522
					c-0.131-0.192-0.28-0.374-0.439-0.547c-0.148-0.182-0.322-0.343-0.491-0.507l-0.556-0.555c-0.202-0.188-0.353-0.411-0.525-0.621
					c-0.645-0.865-1.113-1.819-1.494-2.788c-0.381-0.971-0.665-1.966-0.887-2.969c-0.443-2.006-0.685-4.035-0.8-6.063
					C748.152,908.996,748.344,904.938,748.867,900.934z"/>
			</g>
		</g>
		<path style="fill:#FFFFFF;" d="M815.514,1155.788c0.479-0.506,21.33-22.795,17.275-64.585
			c-2.201-22.68-13.88-43.394-24.235-57.723c-9.161-12.679-23.729-20.287-39.347-20.578c-28.518-0.529-74.038-1.154-74.038-1.154
			s-58.726-6.459-77.346,16.506c-18.62,22.965-81.643,182.286-85.224,258.358c-3.581,76.072,15.04,165.78,15.04,165.78
			s20.769,1.435,30.079,0c9.31-1.436-2.148-147.121,7.878-170.804c10.026-23.684,55.145-137.073,58.01-147.839l11.178,59.367
			c2.06,10.945,1.108,22.238-2.76,32.68c-9.485,25.604-27.794,74.803-35.165,93.035c0,0,140.992,22.731,210.459-11.717l-0.634-2.674
			C815.131,1255.754,811.438,1205.593,815.514,1155.788z"/>
		<g>
			<g>
				<path style="fill:#07085B;" d="M735.049,902.428c-2.838-1.508-5.788-2.63-8.791-3.377c-3.01-0.719-6.082-0.987-9.103-0.699
					c-1.513,0.125-3.006,0.432-4.47,0.846c-0.74,0.187-1.452,0.463-2.178,0.712c-0.362,0.125-0.707,0.296-1.064,0.439
					c-0.357,0.144-0.717,0.284-1.059,0.463c-2.79,1.333-5.418,3.081-7.988,5.027c1.908-2.601,4.345-4.847,7.163-6.565
					c1.406-0.861,2.914-1.585,4.498-2.104c1.578-0.532,3.222-0.901,4.888-1.046c3.33-0.313,6.713,0.139,9.81,1.259
					c1.555,0.544,3.037,1.263,4.439,2.091C732.583,900.322,733.915,901.273,735.049,902.428z"/>
			</g>
		</g>
		<g>
			<g>
				<path style="fill:#07085B;" d="M760.213,902.428c1.134-1.155,2.466-2.106,3.855-2.954c1.403-0.828,2.884-1.547,4.439-2.091
					c3.097-1.12,6.481-1.571,9.81-1.259c1.666,0.145,3.31,0.514,4.888,1.046c1.584,0.518,3.092,1.243,4.498,2.104
					c2.818,1.719,5.255,3.964,7.163,6.565c-2.57-1.946-5.198-3.694-7.988-5.027c-0.342-0.18-0.703-0.319-1.059-0.463
					c-0.357-0.142-0.702-0.314-1.064-0.439c-0.725-0.249-1.437-0.525-2.177-0.712c-1.464-0.415-2.958-0.721-4.47-0.846
					c-3.021-0.288-6.093-0.021-9.102,0.699C766.001,899.798,763.051,900.92,760.213,902.428z"/>
			</g>
		</g>
		<path style="fill:#FFC0BB;" d="M684.15,1011.038c0,0,44.858,56.964,54.402,77.527c0,0,26.332-34.625,27.483-75.896
			L684.15,1011.038z"/>
		<path style="fill:#81CAEF;" d="M738.552,1088.565c1.209,19.761,1.973,39.546,2.408,59.336c0.267,9.895,0.337,19.793,0.467,29.69
			c0.04,9.898,0.053,19.798-0.026,29.697c-0.043,4.95-0.103,9.899-0.212,14.85c-0.106,4.949-0.163,9.898-0.31,14.848
			c-0.348,9.896-0.615,19.795-1.198,29.683c-1.048,19.773-2.548,39.555-5.409,59.151l0.497-7.408l0.557-7.396
			c0.298-4.936,0.501-9.879,0.757-14.813l0.2-3.701l0.135-3.705l0.269-7.41l0.29-7.407l0.193-7.412
			c0.572-19.761,0.859-39.533,1.013-59.307c0.225-19.773,0.235-39.551,0.275-59.332L738.552,1088.565z"/>
		<path style="fill:#81CAEF;" d="M648.481,1114.991c-0.287,1.595-0.525,3.197-0.852,4.784c-0.349,1.583-0.646,3.174-1.063,4.74
			c-0.81,3.132-1.682,6.264-2.961,9.234c0.936-3.089,1.647-6.23,2.194-9.401c0.603-3.158,1.028-6.347,1.441-9.53
			c0.755-6.382,1.162-12.799,1.342-19.222l0.119-4.818l-0.029-4.822c0.057-3.217-0.161-6.429-0.206-9.647
			c-0.012-1.611-0.169-3.214-0.233-4.822l-0.241-4.828c-0.201-3.216-0.491-6.427-0.659-9.656c0.531,3.185,0.978,6.384,1.445,9.584
			c0.326,3.213,0.72,6.426,0.943,9.652l0.294,4.843c0.112,1.614,0.15,3.232,0.182,4.851l0.078,4.854L648.481,1114.991z"/>
		<path style="fill:#07085B;" d="M796.668,850.828c-12.292-42.323-68.403-43.819-68.403-43.819
			c-86.779,6.03-73.112,82.312-70.246,94.932c2.511-0.584,5.966-0.509,10.169,1.775c1.766,0.96,3.195,1.974,4.357,2.992
			c10.223-3.123,13.319-20.129,18.609-28.323c7.179-11.119,38.818-5.38,50.825-13.271c12.007-7.891,13.234-20.086,13.234-20.086
			c46.287,7.353,45.57,56.372,45.57,56.372c2.002-0.449,4.474-0.231,4.474-0.231S807.65,888.638,796.668,850.828z"/>
		<path style="fill:#FFFFFF;" d="M765.89,947.126c-1.578,6.503-9.141,11.491-18.293,11.591c-9.153,0.101-16.824-4.72-18.545-11.188
			L765.89,947.126z"/>
	</g>
	<g>
		<ellipse style="fill:#09083C;" cx="1211.011" cy="324.354" rx="199.238" ry="199.653"/>
		<ellipse style="fill:#FFFFFF;" cx="1211.011" cy="324.355" rx="170.597" ry="170.953"/>
		<g>
			
				<rect x="1056.565" y="291.966" transform="matrix(6.123234e-17 -1 1 6.123234e-17 735.5752 1382.3979)" style="fill:#09083C;" width="4.842" height="62.891"/>
			
				<rect x="1361.002" y="291.966" transform="matrix(6.123234e-17 -1 1 6.123234e-17 1040.0122 1686.835)" style="fill:#09083C;" width="4.842" height="62.891"/>
			<rect x="1208.33" y="141.793" style="fill:#09083C;" width="4.832" height="63.022"/>
			<rect x="1208.33" y="445.644" style="fill:#09083C;" width="4.832" height="63.022"/>
			<path style="fill:#09083C;" d="M1216.217,324.354c0,2.881-2.331,5.217-5.206,5.217c-2.875,0-5.206-2.335-5.206-5.217
				c0-2.881,2.331-5.217,5.206-5.217C1213.886,319.138,1216.217,321.474,1216.217,324.354z"/>
			<g>
				<path style="fill:#09083C;" d="M1211.01,326.687c-0.595,0-1.191-0.228-1.646-0.683l-93.544-93.739
					c-0.909-0.911-0.909-2.388,0-3.298c0.908-0.911,2.383-0.911,3.292,0l93.544,93.739c0.909,0.911,0.909,2.388,0,3.298
					C1212.202,326.459,1211.606,326.687,1211.01,326.687z"/>
			</g>
			<g>
				<path style="fill:#09083C;" d="M1241.088,419.088c-0.387-0.195-0.7-0.538-0.847-0.982l-30.236-91.522
					c-0.294-0.889,0.187-1.849,1.075-2.143c0.887-0.295,1.845,0.188,2.139,1.077l30.236,91.522c0.294,0.889-0.188,1.849-1.075,2.143
					C1241.937,419.331,1241.476,419.284,1241.088,419.088z"/>
			</g>
		</g>
	</g>
	<g>
		<path style="fill:#FFC0BB;" d="M5067.163,1289.11c0.018-0.067,0.039-0.135,0.058-0.202
			C5067.202,1288.976,5067.181,1289.043,5067.163,1289.11z"/>
		<path style="fill:#FFC0BB;" d="M5068.438,1284.748c0.026-0.09,0.053-0.178,0.078-0.267
			C5068.49,1284.57,5068.464,1284.658,5068.438,1284.748z"/>
		<path style="fill:#FFC0BB;" d="M5069.677,1280.483c0.016-0.053,0.031-0.104,0.044-0.157
			C5069.708,1280.379,5069.692,1280.431,5069.677,1280.483z"/>
		<path style="fill:#FFC0BB;" d="M5071.909,1272.72c0.011-0.042,0.023-0.085,0.035-0.126
			C5071.933,1272.635,5071.92,1272.678,5071.909,1272.72z"/>
		<path style="fill:#FFC0BB;" d="M5074.694,1262.877c0.029-0.105,0.058-0.204,0.087-0.309
			C5074.752,1262.672,5074.724,1262.772,5074.694,1262.877z"/>
		<path style="fill:#FFC0BB;" d="M5108.259,1423.501c-45.363-1.825-77.268-32.779-77.268-32.779c0-0.002,0.002-0.004,0.002-0.004
			c-1.49,2.37-2.856,3.988-4.053,4.663c-14.063,7.927-191.913,46.021-209.49,44.476c-17.579-1.545-34.125,16-37.641,29.504h65.201
			h4.523h228.381C5077.915,1469.36,5109.221,1421.792,5108.259,1423.501z"/>
		<path style="fill:#FFC0BB;" d="M5073.849,1265.883c0.021-0.074,0.04-0.145,0.062-0.218
			C5073.889,1265.737,5073.869,1265.81,5073.849,1265.883z"/>
		<path style="fill:#FFC0BB;" d="M5072.878,1269.315c0.041-0.146,0.082-0.291,0.123-0.436
			C5072.96,1269.023,5072.918,1269.17,5072.878,1269.315z"/>
	</g>
	<path style="fill:#00AA99;" d="M5087.765,1238.779c-6.33,6.314-10.684,14.335-13.088,22.954
		c-7.602,27.246-34.001,106.808-47.316,127.967c0,0,35.557,35.781,80.921,37.606c15.832-28.086,31.773-68.151,35.122-107.063
		C5149.331,1251.379,5117.213,1209.4,5087.765,1238.779z"/>
	<g>
		<path style="fill:#4188E4;" d="M3148.358,767.774c-0.705-6.224-1.541-12.591-4.431-18.146
			c-3.513-6.754-9.685-11.627-15.076-16.996c-10.075-10.03-17.827-22.388-22.481-35.833c-3.598-10.397-5.392-21.474-10.35-31.292
			c-3.028-5.995-7.157-11.354-10.596-17.122c-8.129-13.633-12.553-29.746-23.576-41.157c-2.121,13.836,2.071,28.517,11.174,39.134
			c2.715,3.166,5.863,6.021,7.932,9.644c3.755,6.578,3.413,14.604,3.853,22.169c0.827,14.217,4.833,28.24,11.642,40.742
			c7.231,13.28,17.67,25.106,21.536,39.73c2.897,10.959,2.036,23.251,8.214,32.749c0.67,1.029,1.436,2.063,1.6,3.281
			c0.093,0.684-0.015,1.377-0.121,2.059c-0.139,0.882-0.276,1.765-0.415,2.647c-1.405,8.969-2.857,20.382,4.85,27.095
			c5.342,4.652,12.217,4.756,16.053-1.423c3.863-6.222,3.521-15.329,3.233-22.332C3150.92,791.06,3149.671,779.366,3148.358,767.774
			z"/>
		<path style="fill:#70C0FD;" d="M3162.241,760.56c-2.998-10.382-7.652-20.271-9.984-30.824c-2.263-10.236-2.28-20.819-2.288-31.303
			c-0.008-11.488-0.016-22.976-0.024-34.465c-0.005-7.152-0.013-14.343-1.195-21.396c-2.543-15.177-10.43-29.209-11.767-44.54
			c-0.577-6.629,0.094-13.33-0.636-19.944c-0.416-3.779-1.386-7.636-3.135-10.988c-1.881-3.605-7.078-3.446-8.782,0.247
			c-3.832,8.301-6.262,17.273-4.714,26.167c0.929,5.334,3.239,10.31,4.965,15.442c7.683,22.854,3.604,48.153,9.549,71.522
			c1.794,7.054,4.507,13.972,4.822,21.244c0.756,17.406-12.244,33.306-11.051,50.687c0.977,14.25,11.223,26.044,15.523,39.664
			c2.407,7.624,2.922,15.762,5.502,23.329c2.004,5.879,6.663,13.02,13.902,11.235c6.871-1.694,4.795-7.303,4.488-12.661
			C3166.378,795.851,3167.354,778.266,3162.241,760.56z"/>
		<path style="fill:#4188E4;" d="M3177.971,770.074c-0.303-5.395-1.214-10.82-0.459-16.17c0.638-4.519,2.436-8.777,3.72-13.155
			c2.407-8.204,3.004-16.815,3.587-25.347c1.06-15.508,2.119-31.017,3.179-46.525c1.647-24.106,3.303-48.282,7.811-72.019
			c1.251-6.59,2.656-13.731-0.306-19.748c-0.624-1.269-1.854-2.614-3.2-2.192c-0.959,0.3-1.431,1.358-1.778,2.302
			c-9.853,26.776-13.576,55.604-24.573,81.929c-2.635,6.306-5.699,12.51-7.063,19.209c-1.638,8.043-0.737,16.351-0.526,24.558
			c0.303,11.769-0.843,23.628-4.093,34.942c-1.7,5.919-3.978,11.706-4.909,17.794c-1.161,7.592-0.186,15.325,0.541,22.971
			c1.398,14.7,1.872,29.487,1.418,44.247c-0.267,8.677,7.058,8.45,11.91,3.119c3.393-3.728,3.361-7.821,4.523-12.462
			C3171.565,798.293,3178.896,786.593,3177.971,770.074z"/>
		<path style="fill:#70C0FD;" d="M3132.208,793.604c-6.477-10.407-19.38-16.324-23.52-27.866c-1.053-2.937-1.465-6.096-2.752-8.938
			c-2.858-6.313-9.356-9.88-15.745-12.784c-0.887-0.403-1.896,0.24-1.909,1.216l0,0c-0.021,1.552,0.715,3.032,2,3.898
			c4.922,3.313,8.662,8.378,10.328,14.085c1.973,6.764,1.117,14.18,3.569,20.784c2.06,5.545,6.298,10.078,8.29,15.647
			c1.82,5.092,1.629,10.654,2.484,15.994c0.855,5.34,3.228,11.007,8.131,13.266C3140.827,837.082,3136.393,800.327,3132.208,793.604
			z"/>
		<path style="fill:#4188E4;" d="M3205.999,790.169c-0.276,5.031,0.492,10.306-1.477,14.943c-1.259,2.966-3.525,5.365-5.385,7.996
			c-6.531,9.238-8.899,22.326-18.935,27.526c-0.662,0.343-1.4,0.65-2.134,0.514c-1.028-0.192-1.702-1.183-2.115-2.146
			c-2.46-5.732,0.301-12.19,1.936-18.211c0.285-1.053,0.525-2.227,0.023-3.196c-0.553-1.065-1.813-1.527-2.672-2.364
			c-1.715-1.668-1.553-4.427-1.213-6.797c0.852-5.921,2.047-11.792,3.58-17.574c0.869-3.278,1.873-6.586,3.762-9.4
			c2.08-3.099,5.1-5.412,7.927-7.844c12.495-10.75,22.067-24.878,27.425-40.483c1.16-3.378,2.194-6.945,4.59-9.59
			s6.666-4.007,9.584-1.955c2.076,1.461-6.428,15.138-7.419,16.778c-2.832,4.687-2.87,8.765-4.472,13.97
			C3215.082,765.089,3206.749,776.504,3205.999,790.169z"/>
		<path style="fill:#70C0FD;" d="M3196.108,795.987c1.855-4.8,3.728-9.662,4.34-14.773c0.68-5.682-0.223-11.492,0.748-17.131
			c1.248-7.25,5.475-13.626,7.567-20.678c1.511-5.092,1.882-10.442,2.789-15.677c2.596-14.967,9.633-29.593,7.612-44.649
			c-0.438-3.275-1.917-7.092-5.167-7.65c-2.942-0.506-5.621,2.185-6.386,5.076c-0.766,2.892-0.195,5.941,0.016,8.925
			c0.586,8.321-1.789,16.822-6.6,23.629c-4.623,6.541-11.33,11.466-15.489,18.312c-5.103,8.397-5.797,18.648-8.4,28.126
			c-5.178,18.85-18.164,35.294-20.532,54.7c-0.941,7.722,0.871,17.109,7.998,20.194
			C3185.217,843.314,3191.438,808.062,3196.108,795.987z"/>
		<path style="fill:#FFFFFF;" d="M3160.075,810.169h-3.297h-44.008c-3.233,0-5.62,3.026-4.872,6.179l17.244,72.715
			c0.536,2.262,2.553,3.858,4.872,3.858h26.764h3.297h26.763c2.32,0,4.337-1.597,4.873-3.858l17.244-72.715
			c0.747-3.153-1.639-6.179-4.873-6.179H3160.075z"/>
	</g>
	<path style="fill:#333333;" d="M3852.679,1136.857c10.412-40.595,26.986-56.691,55.801-71.844
		c22.067-11.605,48.145-15.343,74.89-6.68c54.535,17.665,68.607,77.445,74.116,108.353c18.783,105.372,106.901,195,74.836,267.108
		c-32.066,72.107-182.587,64.382-182.587,64.382l-69.037-49.751c0,0-6.126-121.132-6.147-131.021
		c-0.021-9.888-26.163-9.176-26.163-58.692C3848.387,1219.254,3840.432,1184.604,3852.679,1136.857z"/>
	<path style="fill:#FFC0BB;" d="M3669.859,1285.888c-0.1,1.223-1.513,1.857-2.478,1.104c-7.478-5.846-31.123-24.087-33.039-22.519
		c-2.279,1.865,18.452,18.681,17.543,21.262c-0.909,2.582-20.718-14.332-22.833-11.945c-2.116,2.387,16.462,17.202,15.921,18.521
		c-0.542,1.318-19.855-10.97-21.94-10.313s16.939,16.287,16.735,18.072c-0.204,1.786-16.913-4.626-17.628-3.253
		s-1.421,2.168,32.067,27.405l13.607,9.371l15.233,1.641l8.638-16.3c0,0-14.934-51.926-17.054-52.598
		C3672.612,1265.693,3671.394,1267.062,3669.859,1285.888z"/>
	<path style="fill:#EF5488;" d="M3897.774,1262.101c0,0-116.697,132.378-121.621,132.961c-4.923,0.584-83.138-91.028-83.138-91.028
		s-28.03,23.334-32.9,31.416c0,0,83.563,139.29,105.022,147.191c21.46,7.902,163.967-126.561,163.967-126.561L3897.774,1262.101z"/>
	<g>
		<path style="fill:#F4A640;" d="M3884.161,1432.529l1.4,0.723c0,0,0.131-1.091,0.355-2.995
			C3885.328,1431.028,3884.742,1431.787,3884.161,1432.529z"/>
	</g>
	<path style="fill:#FFC0BB;" d="M3992.304,1263.373c-5.95,5.937-10.043,13.478-12.304,21.581
		c-7.946,28.482-34.463,120.918-45.636,127.216c-13.221,7.452-180.428,43.268-196.953,41.814
		c-16.526-1.453-32.083,15.042-35.389,27.738h61.301h4.252h214.713c0,0,56.069-69.067,62.326-141.761
		C4050.186,1275.22,4019.991,1235.752,3992.304,1263.373z"/>
	<path style="fill:#FFC0BB;" d="M3970.842,1209.407v46.728c0,2.596-1.483,4.963-3.829,6.063c-7.13,3.346-23.072,8.833-37.954,0.089
		c-2.009-1.18-3.194-3.394-3.194-5.727v-42.205L3970.842,1209.407z"/>
	<path style="fill:#F99893;" d="M3970.841,1234.433v-25.025l-44.977,4.948v21.231
		C3934.303,1238.146,3950.009,1240.703,3970.841,1234.433z"/>
	<path style="fill:#FFC0BB;" d="M3896.312,1201.419c-1.576-3.23-2.863-6.632-3.838-10.165c-2.806-9.507-3.868-19.468-4.109-28.107
		c-0.053-1.854-0.211-3.701-0.404-5.545c-0.781-7.449-0.218-15.25,2.059-23.156c7.323-25.436,30.902-43.354,57.32-43.492
		c35.59-0.188,62.938,29.839,60.559,64.472c3.901-1.833,8.155-2.025,11.755-0.106c6.909,3.683,8.785,13.683,4.192,22.336
		c-4.594,8.654-13.917,12.684-20.826,9.001c-0.959-0.511-1.811-1.154-2.572-1.889c-5.021,29.261-30.679,50.345-59.544,47.872
		c-14.117-1.21-26.519-7.848-35.514-17.78c-0.607-0.585-1.239-1.265-1.899-2.05
		C3900.593,1209.364,3898.24,1205.505,3896.312,1201.419z"/>
	<g>
		<path style="fill:#333333;" d="M3950.624,1164.336c-0.228,2.666,1.745,5.014,4.406,5.241c2.662,0.228,5.003-1.749,5.23-4.416
			s-1.745-5.013-4.406-5.241C3953.193,1159.692,3950.852,1161.669,3950.624,1164.336z"/>
		<path style="fill:#333333;" d="M3909.014,1163.51c-0.228,2.667,1.745,5.014,4.406,5.241s5.003-1.749,5.23-4.416
			c0.228-2.666-1.746-5.013-4.406-5.241C3911.582,1158.866,3909.241,1160.843,3909.014,1163.51z"/>
		<path style="fill:#333333;" d="M3945.626,1154.262c2.443-0.767,4.763-1.356,7.07-1.691c2.301-0.339,4.564-0.375,6.766-0.07
			c2.187,0.33,4.383,0.852,6.469,1.868l0.811,0.331c0.271,0.116,0.51,0.285,0.777,0.413l1.593,0.835
			c1.068,0.578,2.055,1.301,3.241,1.878c-0.613-1.112-1.316-2.209-2.138-3.214c-0.919-0.893-1.759-1.951-2.893-2.644
			c-2.099-1.631-4.737-2.588-7.407-2.968c-2.688-0.369-5.445-0.03-7.917,0.894
			C3949.544,1150.844,3947.271,1152.257,3945.626,1154.262z"/>
		<path style="fill:#333333;" d="M3926.151,1153.591c-1.504-2.113-3.674-3.68-6.058-4.797c-2.401-1.091-5.131-1.619-7.837-1.437
			c-2.689,0.195-5.388,0.969-7.593,2.452c-1.179,0.612-2.089,1.611-3.067,2.438c-0.888,0.945-1.665,1.991-2.353,3.059
			c1.223-0.494,2.257-1.146,3.362-1.65l1.646-0.724c0.276-0.108,0.526-0.262,0.804-0.358l0.832-0.274
			c2.15-0.871,4.377-1.239,6.582-1.419c2.216-0.152,4.472,0.039,6.744,0.536C3921.493,1151.91,3923.767,1152.657,3926.151,1153.591z
			"/>
		<path style="fill:#F99893;" d="M3935.248,1158.571c-1.981,2.402-3.741,4.962-5.379,7.601c-1.642,2.639-3.133,5.373-4.4,8.256
			c-0.603,1.456-1.17,2.938-1.503,4.574c-0.069,0.416-0.123,0.844-0.133,1.298c-0.006,0.227,0.023,0.479,0.041,0.715
			c0.064,0.265,0.092,0.517,0.237,0.797c0.073,0.14,0.153,0.277,0.236,0.408l0.212,0.242c0.143,0.156,0.277,0.323,0.427,0.468
			c0.306,0.277,0.603,0.568,0.923,0.812c1.254,1.027,2.619,1.822,4.01,2.537c1.402,0.694,2.831,1.318,4.317,1.786
			c-2.587-1.698-5.198-3.391-7.336-5.438c-0.272-0.251-0.501-0.528-0.743-0.793l-0.328-0.41l-0.158-0.202
			c-0.007-0.039-0.019-0.072-0.035-0.103c-0.143-0.323-0.061-1.097,0.103-1.753c0.332-1.385,0.877-2.802,1.484-4.184
			c1.187-2.789,2.583-5.525,3.942-8.283C3932.544,1164.147,3933.937,1161.395,3935.248,1158.571z"/>
	</g>
	<polygon style="fill:#FFC0BB;" points="3818.294,1882.729 3821.063,1952 3787.786,1952.229 3784.61,1886.814 	"/>
	<g>
		<path style="fill:#FFFFFF;" d="M3733.43,1991.783l95.64,0.646c2.091,0.014,3.771-1.635,3.753-3.683l-0.024-2.759
			c-0.018-2.048-1.727-3.72-3.817-3.733l-95.64-0.646c-2.092-0.015-3.771,1.634-3.754,3.682l0.025,2.76
			C3729.63,1990.098,3731.339,1991.769,3733.43,1991.783z"/>
		<path style="fill:#09083C;" d="M3827.77,1951.341l3.668,28.318c0.452,3.492-1.514,6.647-4.13,6.629l-90.951-0.614
			c-2.361-0.017-4.71-1.476-5.974-4.199c-1.298-2.793-1.589-6.988,2.434-12.599c8.044-11.22,34.773-13.788,47.774-23.325
			l42.366,0.287C3825.323,1945.854,3827.36,1948.184,3827.77,1951.341z"/>
		<g>
			<path style="fill:#FFFFFF;" d="M3787.167,1962.025L3787.167,1962.025c0.654-0.392,0.885-1.475,0.497-2.303
				c-1.819-3.889-7.484-13.365-18.825-11.503c-0.654,0.108-1.092,0.958-0.973,1.84l0.004,0.028c0.116,0.853,0.712,1.415,1.346,1.313
				c10.164-1.632,14.982,6.72,16.455,9.979C3785.985,1962.074,3786.624,1962.351,3787.167,1962.025z"/>
		</g>
		<g>
			<path style="fill:#FFFFFF;" d="M3777.753,1965.604L3777.753,1965.604c0.654-0.392,0.885-1.475,0.497-2.303
				c-1.819-3.888-7.483-13.364-18.824-11.503c-0.655,0.108-1.093,0.958-0.974,1.84l0.004,0.028c0.116,0.853,0.712,1.415,1.346,1.313
				c10.164-1.633,14.982,6.719,16.455,9.978C3776.571,1965.652,3777.21,1965.929,3777.753,1965.604z"/>
		</g>
		<g>
			<path style="fill:#FFFFFF;" d="M3768.998,1968.942L3768.998,1968.942c0.653-0.392,0.885-1.475,0.497-2.303
				c-1.819-3.888-7.484-13.364-18.824-11.503c-0.655,0.108-1.093,0.958-0.974,1.84l0.004,0.028c0.116,0.853,0.712,1.415,1.346,1.313
				c10.163-1.633,14.982,6.719,16.455,9.978C3767.816,1968.991,3768.454,1969.268,3768.998,1968.942z"/>
		</g>
		<path style="opacity:0.3;fill:#E87B50;" d="M3803.033,1986.124c6.964-22.81,19.294-25.252,26.045-24.678l2.359,18.213
			c0.452,3.492-1.514,6.646-4.13,6.629L3803.033,1986.124z"/>
	</g>
	<polygon style="fill:#FFC0BB;" points="3661.713,1882.729 3664.483,1949 3631.205,1949.229 3628.029,1886.814 	"/>
	<g>
		<path style="fill:#FFFFFF;" d="M3576.849,1991.783l95.64,0.646c2.091,0.014,3.771-1.635,3.753-3.683l-0.024-2.759
			c-0.018-2.048-1.728-3.72-3.817-3.733l-95.641-0.646c-2.09-0.015-3.771,1.634-3.752,3.682l0.023,2.76
			C3573.049,1990.098,3574.759,1991.769,3576.849,1991.783z"/>
		<path style="fill:#09083C;" d="M3671.188,1951.341l3.668,28.318c0.452,3.492-1.514,6.647-4.13,6.629l-90.95-0.614
			c-2.362-0.017-4.711-1.476-5.976-4.199c-1.296-2.793-1.588-6.988,2.435-12.599c8.043-11.22,34.773-13.788,47.775-23.325
			l42.365,0.287C3668.742,1945.854,3670.78,1948.184,3671.188,1951.341z"/>
		<g>
			<path style="fill:#FFFFFF;" d="M3630.586,1962.025L3630.586,1962.025c0.653-0.392,0.885-1.475,0.497-2.303
				c-1.819-3.889-7.484-13.365-18.824-11.503c-0.656,0.108-1.093,0.958-0.974,1.84l0.005,0.028c0.115,0.853,0.711,1.415,1.345,1.313
				c10.163-1.632,14.982,6.72,16.456,9.979C3629.404,1962.074,3630.042,1962.351,3630.586,1962.025z"/>
		</g>
		<g>
			<path style="fill:#FFFFFF;" d="M3621.173,1965.604L3621.173,1965.604c0.653-0.392,0.884-1.475,0.496-2.303
				c-1.819-3.888-7.484-13.364-18.824-11.503c-0.655,0.108-1.092,0.958-0.973,1.84l0.004,0.028c0.115,0.853,0.711,1.415,1.346,1.313
				c10.163-1.633,14.981,6.719,16.455,9.978C3619.991,1965.652,3620.629,1965.929,3621.173,1965.604z"/>
		</g>
		<g>
			<path style="fill:#FFFFFF;" d="M3612.417,1968.942L3612.417,1968.942c0.654-0.392,0.885-1.475,0.497-2.303
				c-1.819-3.888-7.484-13.364-18.825-11.503c-0.654,0.108-1.092,0.958-0.973,1.84l0.004,0.028c0.115,0.853,0.712,1.415,1.346,1.313
				c10.163-1.633,14.982,6.719,16.455,9.978C3611.235,1968.991,3611.874,1969.268,3612.417,1968.942z"/>
		</g>
		<path style="opacity:0.3;fill:#E87B50;" d="M3646.452,1986.124c6.963-22.81,19.294-25.252,26.045-24.678l2.359,18.213
			c0.452,3.492-1.514,6.646-4.13,6.629L3646.452,1986.124z"/>
	</g>
	<path style="fill:#09083C;" d="M3799.335,1521.096c0,0-165.526,0.6-191.071,33.876c-25.544,33.277-44.958,258.022,0,356.317
		c0,0,58.241,2.048,71.524-6.144c0,0-4.088-165.872-2.044-209.899s32.696-50.171,36.784-54.267
		C3718.615,1636.884,3799.335,1521.096,3799.335,1521.096z"/>
	<path style="fill:#09083C;" d="M3818.044,1762.246c-1.492-13.839-3.429-31.814-5.526-52.158l0,0
		c-3.748-39.955-8.467-63.904-3.461-63.42c39.879,3.861,148.341-15.507,212.41-28.027c38.981-7.617,61.293-50.15,43.961-85.959
		c-2.174-4.49-4.799-8.447-7.942-11.586c-29.914-29.877-91.667-20.287-91.597-24.469c-349.472,29.17-272.468,89.172-239.694,296.332
		l0,0c0.184,0.887,0.367,1.776,0.551,2.659l0,0c14.217,68.503,27.632,124.886,27.632,124.886s51.089,2.048,80.72-5.119
		C3835.132,1915.701,3825.886,1834.787,3818.044,1762.246z"/>
	<path style="fill:#EA426E;" d="M4033.609,1255.143c-11.388-10.768-38.376-13.224-63.327-12.875c0.347,0.15,0.559,0.244,0.559,0.244
		c-21.893,24.371-44.977,2.855-44.977,2.855l0,0c-4.457,0.536-7.078,0.925-7.078,0.925s-16.566,7.871-34.458,30.095
		c-0.253,0.313-19.456,20.853-21.349,45.254c-1.35,17.389,20.956,42.781,20.956,52.717s-10.282,81.959-10.282,81.959l3.882-0.482
		c-0.005,0.212-0.008,0.387-0.005,0.482c0.027,0.906-7.951,2.175-18.112,3.424c-0.448,12.871-0.676,20.878-0.676,20.878v25.116
		c132.986,22.08,212.635,59.341,212.635,59.341C4077.965,1305.705,4035.382,1256.818,4033.609,1255.143z"/>
	<path style="fill:#F76390;" d="M3992.305,1263.373c-5.951,5.937-10.044,13.478-12.305,21.581
		c-7.946,28.482-34.463,120.918-45.636,127.216c-10.512,5.925-118.361,29.778-170.429,38.576c0,0,3.814,15.527,7.235,30.977h211.117
		c0,0,56.069-69.067,62.326-141.761C4050.186,1275.22,4019.991,1235.752,3992.305,1263.373z"/>
	<path style="fill:#07085B;" d="M3345.698,1283.475h251.647l71.351,174.521h121.221c3.391,0,6.138,2.754,6.138,6.15l0,0
		c0,3.396-2.747,6.15-6.138,6.15h-360.592L3345.698,1283.475z"/>
	<path style="fill:#DAEEF7;" d="M3470.48,1383.063c1.485,7.438,7.954,12.412,14.45,11.109c6.495-1.302,10.557-8.388,9.071-15.826
		s-7.955-12.412-14.45-11.109C3473.057,1368.539,3468.995,1375.625,3470.48,1383.063z"/>
	<path style="fill:#333333;" d="M3908.372,1085.935c0,0,67.592,62.39,99.525,69.49c0,0,4.254-48.376,3.841-50.032
		c-0.413-1.655-40.487-39.744-42.967-39.33c-2.479,0.414-75.191,10.764-75.191,10.764l-19.927,49.267L3908.372,1085.935z"/>
	<path style="fill:#333333;" d="M3870.03,1099.183l17.635,50.002c0,0,35.543-25.161,49.235-50.002
		c13.693-24.84-35.471-15.731-35.471-15.731L3870.03,1099.183z"/>
	<path style="opacity:0.3;fill:#F99893;" d="M3949.974,1196.579c0,0-6.699-1.882-12.561,2.589c0,0-6.94-3.697-11.896,0.654
		c0,0,3.13,9.744,14,8.304C3950.387,1206.685,3949.974,1196.579,3949.974,1196.579z"/>
	<path style="fill:#F99893;" d="M3955.442,1192.622c-1.165,1.09-2.385,2.104-3.683,3.007c-1.277,0.928-2.609,1.773-3.997,2.503
		c-2.771,1.459-5.724,2.558-8.789,3.035c-3.063,0.493-6.203,0.33-9.243-0.368c-3.033-0.744-5.941-2.032-8.71-3.613
		c1.255,0.985,2.591,1.877,4.004,2.647c1.412,0.774,2.926,1.354,4.466,1.86c1.555,0.46,3.163,0.763,4.79,0.879
		c1.628,0.096,3.266,0.021,4.881-0.216c3.221-0.532,6.311-1.724,9.059-3.424C3950.964,1197.236,3953.468,1195.143,3955.442,1192.622
		z"/>
	<rect x="973.82" y="1356.717" style="fill:#FFFFFF;" width="97.263" height="19.89"/>
	<rect x="1129.349" y="1356.717" style="fill:#FFFFFF;" width="97.263" height="19.89"/>
	<rect x="4255.049" y="745.709" style="fill:#97CEF7;" width="39.331" height="19.375"/>
	<rect x="4346.69" y="699.472" style="fill:#97CEF7;" width="42.703" height="19.375"/>
	<rect x="4299.343" y="883.247" style="fill:#97CEF7;" width="41.759" height="10.986"/>
	<rect x="4624.786" y="718.847" style="fill:#97CEF7;" width="39.332" height="12.477"/>
	<rect x="4624.786" y="886.724" style="fill:#97CEF7;" width="39.332" height="12.477"/>
	<rect x="4669.08" y="765.084" style="fill:#97CEF7;" width="41.761" height="21.431"/>
	<rect x="4716.429" y="695.508" style="fill:#FFFFFF;" width="42.703" height="13.651"/>
	<g>
		
			<rect x="4516.248" y="1322.041" transform="matrix(-1.836970e-16 1 -1 -1.836970e-16 5943.6821 -3130.6597)" style="fill:#97CEF7;" width="41.847" height="168.941"/>
		
			<rect x="4524.161" y="1331.583" transform="matrix(-1.836970e-16 1 -1 -1.836970e-16 5994.3882 -3096.7261)" style="fill:#142666;" width="42.793" height="234.495"/>
		
			<rect x="4512.927" y="1261.557" transform="matrix(-1.836970e-16 1 -1 -1.836970e-16 5898.5146 -3166.7529)" style="fill:#FFFFFF;" width="39.414" height="208.648"/>
		
			<rect x="4593.484" y="1359.655" transform="matrix(-1.836970e-16 1 -1 -1.836970e-16 5979.0723 -3247.3105)" style="fill:#97CEF7;" width="39.414" height="12.451"/>
		
			<rect x="4425.957" y="1359.655" transform="matrix(-1.836970e-16 1 -1 -1.836970e-16 5811.5444 -3079.7827)" style="fill:#97CEF7;" width="39.414" height="12.452"/>
		
			<rect x="4614.498" y="1442.021" transform="matrix(-1.836970e-16 1 -1 -1.836970e-16 6084.7256 -3187.0635)" style="fill:#FFFFFF;" width="42.793" height="13.621"/>
	</g>
	<rect x="2518.767" y="677.307" style="fill:#FFFFFF;" width="44.282" height="15.266"/>
	<rect x="2578.96" y="722.517" style="fill:#97CEF7;" width="26.367" height="72.714"/>
	<rect x="2621.943" y="658.772" style="fill:#97CEF7;" width="48.079" height="11.489"/>
	<rect x="2621.943" y="857.179" style="fill:#97CEF7;" width="48.079" height="15.059"/>
	<g>
		<polygon style="fill:#07085B;" points="2993.854,1622.709 3019.729,1992.504 3006.792,1992.504 2965.824,1626.715 		"/>
		<polygon style="fill:#07085B;" points="2722.093,1622.709 2696.219,1992.504 2709.155,1992.504 2750.123,1626.715 		"/>
		<path style="fill:#57ACE5;" d="M3106.767,1222.648c0,0-206.822-6.127-220.207-5.172c-13.385,0.957-25.762,43.992-25.762,43.992
			s-60.414,224.142-59.21,230.307s-56.363,150.602-56.363,150.602s49.657-1.32,51.854,0c2.197,1.321,192.035-16.293,194.672-18.055
			c2.637-1.761,12.305-34.788,12.744-36.549c0.439-1.762,14.94-130.346,14.94-130.346l7.471-70.897c0,0,28.563-60.827,29.003-61.019
			c0.439-0.19,26.807-53.474,28.564-56.116c1.757-2.642,29.002-32.146,29.881-34.788
			C3115.233,1231.966,3106.767,1222.648,3106.767,1222.648z"/>
		<path style="opacity:0.3;fill:#57ACE5;" d="M3106.767,1222.648c0,0-71.304-2.112-132.889-3.663
			c23.935,14.084,37.355,53.478,27.395,123.553c-8.465,59.552-17.871,124.181-55.369,201.683
			c-19.314,39.918-102.474,17.559-170.634,21.508c-14.685,38.112-30.044,76.648-30.044,76.648s49.656-1.32,51.854,0
			c2.197,1.321,192.035-16.293,194.672-18.055s12.305-34.788,12.744-36.549c0.439-1.762,14.94-130.346,14.94-130.346l7.471-70.897
			c0,0,28.563-60.827,29.003-61.019s26.806-53.474,28.564-56.116c1.757-2.642,29.003-32.146,29.881-34.788
			C3115.233,1231.966,3106.767,1222.648,3106.767,1222.648z"/>
		<g>
			<g>
				<path style="fill:#026EAF;" d="M2707.439,1650.271l-0.001-0.008c-0.439-7.071,4.891-13.168,11.944-13.646
					c22.1-1.5,69.896-4.921,119.054-9.584c94.23-8.939,128.298-16.258,140.491-20.083c4.209-1.32,7.443-4.738,8.521-9.024
					c3.307-13.17,5.245-40.507,6.867-63.376c6.154-86.782,16.304-229.884,105.466-308.452c5.563-4.903,14.128-4.028,18.646,1.856
					l0,0c4.114,5.358,3.41,13.016-1.664,17.472c-81.23,71.329-90.558,202.858-96.804,290.95
					c-3.563,50.217-5.761,74.864-16.729,86.334c-5.289,5.531-15.134,15.824-158.404,29.591
					c-50.827,4.882-100.858,8.467-123.709,10.018C2714.009,1662.8,2707.883,1657.396,2707.439,1650.271z M2985.259,1604.353
					L2985.259,1604.353L2985.259,1604.353z"/>
			</g>
		</g>
	</g>
	<polygon style="fill:#FFC0BB;" points="2541.295,1879.474 2533.462,1942.493 2491.292,1945.771 2491.945,1887.329 	"/>
	<g>
		<path style="fill:#FFFFFF;" d="M2427.215,1991.899l115.204,0.779c2.518,0.017,4.542-1.969,4.521-4.436l-0.029-3.323
			c-0.022-2.467-2.081-4.48-4.599-4.497l-115.204-0.779c-2.518-0.017-4.542,1.969-4.521,4.436l0.029,3.324
			C2422.638,1989.869,2424.697,1991.883,2427.215,1991.899z"/>
		<path style="fill:#EA426E;" d="M2540.853,1943.185l4.418,34.112c0.545,4.206-1.823,8.006-4.975,7.984l-109.555-0.74
			c-2.845-0.02-5.674-1.777-7.197-5.059c-1.562-3.364-1.912-8.418,2.933-15.175c9.688-13.515,41.887-16.609,57.547-28.097
			l51.032,0.346C2537.906,1936.575,2540.36,1939.382,2540.853,1943.185z"/>
		<g>
			<path style="fill:#FFFFFF;" d="M2491.945,1956.055L2491.945,1956.055c0.788-0.471,1.065-1.775,0.599-2.773
				c-2.192-4.684-9.016-16.099-22.676-13.855c-0.789,0.13-1.316,1.154-1.172,2.216l0.005,0.034c0.139,1.027,0.857,1.704,1.621,1.582
				c12.242-1.967,18.046,8.093,19.821,12.019C2490.522,1956.114,2491.29,1956.447,2491.945,1956.055z"/>
		</g>
		<g>
			<path style="fill:#FFFFFF;" d="M2480.605,1960.365L2480.605,1960.365c0.788-0.472,1.065-1.775,0.599-2.773
				c-2.191-4.684-9.015-16.099-22.675-13.855c-0.79,0.129-1.316,1.153-1.172,2.215l0.004,0.035c0.14,1.026,0.857,1.704,1.621,1.581
				c12.242-1.966,18.047,8.094,19.821,12.02C2479.183,1960.424,2479.951,1960.758,2480.605,1960.365z"/>
		</g>
		<g>
			<path style="fill:#FFFFFF;" d="M2470.06,1964.388L2470.06,1964.388c0.788-0.472,1.065-1.776,0.599-2.774
				c-2.191-4.684-9.016-16.098-22.676-13.855c-0.789,0.13-1.315,1.154-1.172,2.216l0.005,0.034c0.139,1.027,0.857,1.705,1.621,1.582
				c12.242-1.967,18.047,8.093,19.821,12.019C2468.636,1964.446,2469.404,1964.779,2470.06,1964.388z"/>
		</g>
		<path style="opacity:0.3;fill:#E87B50;" d="M2511.057,1985.083c8.388-27.476,23.24-30.417,31.373-29.725l2.841,21.938
			c0.545,4.206-1.822,8.006-4.975,7.984L2511.057,1985.083z"/>
	</g>
	<polygon style="fill:#F9B5B2;" points="2735.921,1361.041 2728.956,1433.691 2756.64,1438.977 2771.883,1410.185 
		2769.384,1372.042 2747.852,1357.047 	"/>
	<path style="fill:#F4A640;" d="M2764.021,1246.541c0,0-28.1,73.276-28.1,114.5c0,0,14.73,9.68,35.962,7.038
		c21.231-2.643,3.385-86.31,4.179-88.512C2776.854,1277.365,2764.021,1246.541,2764.021,1246.541z"/>
	<polygon style="fill:#FFC0BB;" points="2606.031,1880.816 2587.389,1941.628 2544.473,1941.924 2551.947,1897.53 	"/>
	<path style="fill:#F9B5B2;" d="M2854.192,1413.896l-51.586,77.958l-68.571-13.552l-116.385-87.004l20.414-30.257
		c0,0,109.05,65.502,118.329,67.336c9.278,1.834,34.577-57.403,34.577-57.403L2854.192,1413.896z"/>
	<g>
		<path style="fill:#FFFFFF;" d="M2482.829,1993.027l115.204,0.778c2.518,0.017,4.542-1.969,4.52-4.436l-0.029-3.323
			c-0.022-2.467-2.081-4.48-4.599-4.497l-115.204-0.778c-2.518-0.018-4.542,1.969-4.52,4.435l0.029,3.324
			C2478.252,1990.997,2480.311,1993.01,2482.829,1993.027z"/>
		<path style="fill:#F76390;" d="M2596.467,1944.313l4.418,34.111c0.545,4.206-1.823,8.006-4.976,7.984l-109.554-0.74
			c-2.846-0.02-5.674-1.777-7.197-5.059c-1.562-3.364-1.913-8.418,2.932-15.175c9.688-13.515,41.887-16.609,57.548-28.096
			l51.032,0.345C2593.52,1937.703,2595.975,1940.51,2596.467,1944.313z"/>
		<g>
			<path style="fill:#FFFFFF;" d="M2547.559,1957.183L2547.559,1957.183c0.788-0.472,1.065-1.776,0.599-2.773
				c-2.191-4.685-9.015-16.099-22.675-13.856c-0.79,0.13-1.316,1.154-1.172,2.216l0.005,0.034c0.14,1.027,0.857,1.705,1.621,1.582
				c12.242-1.966,18.047,8.093,19.821,12.02C2546.136,1957.241,2546.904,1957.574,2547.559,1957.183z"/>
		</g>
		<g>
			<path style="fill:#FFFFFF;" d="M2536.22,1961.492L2536.22,1961.492c0.787-0.471,1.065-1.775,0.599-2.773
				c-2.192-4.684-9.016-16.099-22.676-13.855c-0.789,0.13-1.315,1.154-1.172,2.216l0.005,0.034c0.139,1.027,0.857,1.704,1.621,1.582
				c12.242-1.967,18.046,8.093,19.821,12.02C2534.796,1961.552,2535.564,1961.885,2536.22,1961.492z"/>
		</g>
		<g>
			<path style="fill:#FFFFFF;" d="M2525.673,1965.515L2525.673,1965.515c0.788-0.472,1.066-1.776,0.599-2.773
				c-2.191-4.684-9.015-16.099-22.675-13.856c-0.789,0.13-1.316,1.154-1.172,2.216l0.004,0.034c0.14,1.027,0.857,1.705,1.621,1.582
				c12.243-1.966,18.047,8.094,19.821,12.02C2524.25,1965.573,2525.019,1965.906,2525.673,1965.515z"/>
		</g>
		<path style="opacity:0.3;fill:#E87B50;" d="M2566.67,1986.211c8.389-27.476,23.241-30.417,31.373-29.726l2.842,21.938
			c0.545,4.206-1.823,8.006-4.975,7.984L2566.67,1986.211z"/>
	</g>
	<path style="fill:#09083C;" d="M2972.552,1564.478c-5.859-54.604-70.536-55.485-70.536-55.485l-34.793-3.025l-0.845-7.389
		c0,0-239.907-28.557-272.71,80.258c-32.802,108.813-57.687,324.175-57.687,324.175s31.671,19.269,74.654,0
		c0,0,60.795-231.229,83.561-253.899c22.765-22.669,186.367-26.402,186.367-26.402S2978.411,1619.082,2972.552,1564.478z"/>
	<path style="fill:#FEB546;" d="M2747.852,1468.48c0,0,5.659-199.041,16.169-221.939c10.509-22.898,47.697-27.303,47.697-27.303
		s96.943-14.401,122.132,9.414c1.886,1.782,45.71,59.945,38.702,335.825c0,0-83.249-45.797-224.7-69.282V1468.48z"/>
	<path style="fill:#FFC0BB;" d="M2867.087,1179.712v49.702c0,2.761-1.577,5.278-4.072,6.449c-7.584,3.559-24.541,9.395-40.371,0.095
		c-2.136-1.255-3.397-3.61-3.397-6.092v-44.892L2867.087,1179.712z"/>
	<path style="fill:#F99893;" d="M2867.087,1217.886v-26.618l-47.841,5.263v22.583
		C2828.222,1221.836,2844.929,1224.556,2867.087,1217.886z"/>
	<rect x="2244.486" y="1432.371" style="fill:#FFFFFF;" width="266.593" height="36.989"/>
	<rect x="2212.261" y="1395.381" style="fill:#70C0FD;" width="266.593" height="36.99"/>
	<path style="fill:#09083C;" d="M2707.277,1504.026c0,0-179.214-5.667-219.935,32.871s-13.408,328.607-6.621,355.205
		c0,0,37.161,17.709,66.571,8.642c29.409-9.068,18.098-136.018,18.098-136.018s-3.394-121.282,1.131-138.284
		c4.524-17.003,66.736-29.471,66.736-29.471s96.145-66.875,90.489-66.875S2707.277,1504.026,2707.277,1504.026z"/>
	<path style="fill:#07085B;" d="M2659.509,1333.781l-28.659-79.22c-1.085-3.001-4.531-4.393-7.39-2.984l-54.237,26.713
		c-2.917,1.437-4.189,4.918-2.89,7.902l46.916,107.721c1.43,3.284,5.169,4.879,8.522,3.637l47.575-17.632L2659.509,1333.781z"/>
	<path style="fill:#FFC0BB;" d="M2610.978,1339.449c0.022-0.213,0.056-0.42,0.107-0.617c1.334-5.159,2.8-5.791,3.775-5.783
		c-0.175-0.833-0.17-1.614,0.063-2.321c2.424-7.37,5.193-0.688,5.193-0.688c6.877,10.235,28.133,19.418,28.133,19.418l7.258,1.578
		c-0.361-1.212,4.001-17.254,4.001-17.254s15.163,27.544,15.308,27.871c0.482,1.268-7.516,12.535-10.876,16.236
		c-3.34,3.712-9.911,12.699-10.329,13.409c0,0-15.751-10.021-21.392-14.938c-6.559-5.426-16.84-14.14-20.871-18.68
		c-2.905-3.271-3.017-6.521-2.34-9.042C2607.281,1345.146,2609.034,1341.781,2610.978,1339.449z"/>
	<g>
		<path style="fill:#F99893;" d="M2611.083,1339.042c0.301,2.065,1.14,4.023,2.144,5.855c1.009,1.84,2.295,3.514,3.699,5.067
			c1.447,1.514,3.013,2.915,4.728,4.104c0.839,0.619,1.752,1.13,2.623,1.693c0.918,0.488,1.842,0.965,2.776,1.408
			c-1.698-1.195-3.396-2.351-4.979-3.657c-1.585-1.298-3.091-2.68-4.486-4.167c-1.383-1.497-2.646-3.102-3.767-4.808
			C2612.721,1342.823,2611.745,1341.006,2611.083,1339.042z"/>
		<path style="fill:#F99893;" d="M2608.977,1348.641c0.463,2.036,1.454,3.922,2.599,5.668c1.15,1.755,2.563,3.322,4.086,4.76
			c1.562,1.395,3.232,2.668,5.036,3.719c0.885,0.551,1.835,0.987,2.747,1.48c0.955,0.415,1.912,0.816,2.878,1.185
			c-1.787-1.057-3.571-2.075-5.25-3.253c-1.683-1.168-3.293-2.427-4.8-3.799c-1.496-1.384-2.881-2.883-4.133-4.495
			C2610.906,1352.281,2609.792,1350.547,2608.977,1348.641z"/>
		<path style="fill:#F99893;" d="M2614.86,1333.049c0.301,2.066,1.141,4.024,2.145,5.855c1.009,1.841,2.295,3.515,3.699,5.067
			c1.447,1.515,3.013,2.915,4.728,4.105c0.839,0.619,1.752,1.129,2.623,1.692c0.918,0.489,1.842,0.965,2.776,1.408
			c-1.698-1.194-3.396-2.35-4.978-3.657c-1.585-1.298-3.092-2.679-4.486-4.166c-1.383-1.497-2.646-3.102-3.767-4.808
			C2616.498,1336.83,2615.522,1335.014,2614.86,1333.049z"/>
	</g>
	<path style="fill:#FFC0BB;" d="M2890.153,1413.896l-51.586,77.958l-68.57-13.552l-116.386-87.004l20.414-30.257
		c0,0,109.05,65.502,118.328,67.336c9.279,1.834,34.578-57.403,34.578-57.403L2890.153,1413.896z"/>
	<path style="fill:#F4A640;" d="M2934.375,1281.678c-5.637,30.92-20.439,102.524-41.831,135.588c0,0-51.738-3.784-80.87-39.165
		c0,0,39.82-98.387,50.216-118.55c8.354-16.205,48.631-64.381,68.547-16.584C2935.525,1255.181,2936.747,1268.658,2934.375,1281.678
		z"/>
	<g>
		<rect x="2212.261" y="1495.195" style="fill:#183658;" width="18.163" height="497.309"/>
		<rect x="2383.642" y="1495.195" style="fill:#183658;" width="18.164" height="497.309"/>
		<rect x="2902.016" y="1495.195" style="fill:#183658;" width="18.164" height="497.309"/>
		<rect x="3073.397" y="1495.195" style="fill:#183658;" width="18.163" height="497.309"/>
		<path style="fill:#FEE4CB;" d="M3134.701,1501.066h-963.072c-4.418,0-8-3.582-8-8v-15.706c0-4.418,3.582-8,8-8h963.072
			c4.419,0,8,3.582,8,8v15.706C3142.701,1497.484,3139.12,1501.066,3134.701,1501.066z"/>
	</g>
	<g>
		<path style="fill:#07085B;" d="M2909.45,1136.815c0,0,16.549-59.268-15.563-83.254c-32.114-23.986-67.311-23.128-91.806-10.798
			c-24.495,12.329-40.878,58.539-31.35,85.824l80.459-21.873L2909.45,1136.815z"/>
		<path style="fill:#F99893;" d="M2786.575,1136.202c2.953,7.675,0.379,15.815-5.748,18.183s-13.488-1.936-16.44-9.611
			c-2.953-7.675-0.38-15.815,5.748-18.183C2776.262,1124.224,2783.622,1128.526,2786.575,1136.202z"/>
		<path style="fill:#FFC0BB;" d="M2787.907,1180.796c-1.829-3.321-3.363-6.836-4.573-10.508c-3.453-9.866-5.092-20.303-5.799-29.392
			c-0.151-1.951-0.415-3.887-0.716-5.82c-1.212-7.806-1.026-16.053,0.959-24.5c6.385-27.179,30.286-47.29,58.107-48.823
			c37.48-2.066,67.858,28.13,67.162,64.736c4.014-2.136,8.484-2.562,12.378-0.729c7.47,3.517,9.969,13.952,5.583,23.309
			c-4.387,9.356-13.998,14.091-21.467,10.574c-1.038-0.488-1.969-1.121-2.81-1.854c-3.76,31.086-29.686,54.643-60.222,53.553
			c-14.934-0.533-28.344-6.875-38.339-16.865c-0.67-0.585-1.372-1.268-2.108-2.06
			C2792.833,1188.94,2790.153,1184.999,2787.907,1180.796z"/>
		<path style="fill:#F99893;" d="M2825.344,1124.379c-0.421,3.624-0.741,7.167-1.215,10.626c-0.507,3.378-1.175,6.979-2.731,9.262
			l-0.303,0.358c-0.114,0.135-0.146,0.209-0.376,0.448c-0.36,0.429-0.781,0.778-1.068,1.288c-0.63,0.943-1.104,2.065-1.221,3.252
			c-0.28,2.396,0.808,4.652,2.278,6.099c3.008,2.992,7.176,3.598,10.715,3.028c-3.486-0.919-6.777-2.419-8.561-4.897
			c-0.819-1.227-1.319-2.563-1.009-3.75c0.116-0.589,0.366-1.155,0.76-1.671c0.143-0.282,0.448-0.496,0.652-0.757l0.503-0.563
			l0.565-0.663c1.294-1.844,1.817-3.777,2.19-5.656c0.334-1.892,0.46-3.744,0.437-5.594
			C2826.911,1131.507,2826.428,1127.877,2825.344,1124.379z"/>
		<path style="fill:#333333;" d="M2845.94,1130.919c-0.109,3.065,2.282,5.64,5.342,5.749c3.059,0.109,5.627-2.288,5.736-5.354
			s-2.283-5.639-5.342-5.748C2848.617,1125.457,2846.049,1127.854,2845.94,1130.919z"/>
		<path style="fill:#333333;" d="M2798.261,1132.347c-0.109,3.065,2.282,5.64,5.342,5.749c3.059,0.108,5.627-2.288,5.736-5.354
			c0.108-3.065-2.283-5.639-5.342-5.748C2800.938,1126.885,2798.369,1129.281,2798.261,1132.347z"/>
		<path style="fill:#07085B;" d="M2840.036,1117.845c2.884-0.638,5.585-1.083,8.237-1.273c2.647-0.188,5.215-0.046,7.687,0.465
			c2.454,0.539,4.907,1.28,7.218,2.572c1.241,0.502,2.29,1.352,3.535,1.997c1.191,0.724,2.279,1.608,3.621,2.335
			c-0.59-1.342-1.298-2.665-2.148-3.896c-0.955-1.129-1.856-2.389-3.093-3.291c-2.275-2.052-5.241-3.367-8.288-4.008
			c-3.067-0.629-6.271-0.438-9.176,0.459C2844.738,1114.124,2842.036,1115.623,2840.036,1117.845z"/>
		<path style="fill:#07085B;" d="M2815.476,1118.576c-2.067-2.16-4.813-3.575-7.73-4.405c-2.931-0.807-6.139-0.899-9.187-0.177
			c-3.025,0.733-5.949,2.14-8.162,4.261c-1.208,0.939-2.069,2.227-2.99,3.384c-0.813,1.256-1.479,2.601-2.028,3.96
			c1.319-0.768,2.38-1.686,3.548-2.445c1.225-0.684,2.247-1.564,3.473-2.104c2.27-1.362,4.699-2.178,7.136-2.792
			c2.455-0.587,5.016-0.808,7.668-0.701C2809.86,1117.665,2812.573,1118.027,2815.476,1118.576z"/>
		<path style="fill:#07085B;" d="M2902.095,1127.31c3.78-2.999,6.563-2.643,6.563-2.643l-0.811-19.44l-5.499-11.93
			c0,0-22.168-32.424-22.963-33.239s-18.311-11.75-19.393-12.319c-1.083-0.569-26.403,2.14-26.403,2.14
			s-43.845-10.983-37.385,12.522c6.46,23.507,38.236,37.065,39.94,36.107c-5.021-5.423-4.921-20.205-4.921-20.205
			C2853.021,1104.153,2895.478,1124.272,2902.095,1127.31z"/>
		<path style="fill:#FFFFFF;" d="M2809.753,1165.915c0.979,7.006,7.213,12.663,15.105,13.179c7.893,0.517,14.797-4.28,16.664-11.1
			L2809.753,1165.915z"/>
	</g>
	<path style="opacity:0.5;fill:#E0A689;" d="M3134.701,1501.066h-266.12c-4.418,0-8-3.582-8-8v-15.706c0-4.418,3.582-8,8-8h266.12
		c4.419,0,8,3.582,8,8v15.706C3142.701,1497.484,3139.12,1501.066,3134.701,1501.066z"/>
	<rect x="2224.918" y="1401.105" style="fill:#97CEF7;" width="126.119" height="24.66"/>
	<rect x="2441.122" y="1432.371" style="fill:#C9EAFD;" width="13.623" height="36.989"/>
	<path style="fill:#70C0FD;" d="M5438.787,2020H275.204c-7.456,0-13.5-6.044-13.5-13.5v-0.054c0-7.456,6.044-13.5,13.5-13.5
		h5163.583c7.456,0,13.5,6.044,13.5,13.5v0.054C5452.287,2013.956,5446.243,2020,5438.787,2020z"/>
	<rect x="3316.498" y="1495.195" style="fill:#183658;" width="18.163" height="497.309"/>
	<rect x="3487.88" y="1495.195" style="fill:#183658;" width="18.163" height="497.309"/>
	<rect x="4006.253" y="1495.195" style="fill:#183658;" width="18.164" height="497.309"/>
	<rect x="4177.636" y="1495.195" style="fill:#183658;" width="18.162" height="497.309"/>
	<path style="fill:#FEE4CB;" d="M4238.938,1501.066h-963.071c-4.418,0-8-3.582-8-8v-15.706c0-4.418,3.582-8,8-8h963.071
		c4.42,0,8,3.582,8,8v15.706C4246.938,1497.484,4243.357,1501.066,4238.938,1501.066z"/>
	<path style="opacity:0.5;fill:#E0A689;" d="M4237.749,1501.066h-266.12c-4.418,0-8-3.582-8-8v-15.706c0-4.418,3.582-8,8-8h266.12
		c4.419,0,8,3.582,8,8v15.706C4245.749,1497.484,4242.168,1501.066,4237.749,1501.066z"/>
	<path style="opacity:0.5;fill:#E0A689;" d="M5343.798,1501.066h-266.121c-4.418,0-8-3.582-8-8v-15.706c0-4.418,3.582-8,8-8h266.121
		c4.418,0,8,3.582,8,8v15.706C5351.798,1497.484,5348.216,1501.066,5343.798,1501.066z"/>
</g>
</svg>
