<?xml version="1.0" encoding="utf-8"?>
<!-- Generator: Adobe Illustrator 27.5.0, SVG Export Plug-In . SVG Version: 6.00 Build 0)  -->
<svg version="1.1" xmlns="http://www.w3.org/2000/svg" xmlns:xlink="http://www.w3.org/1999/xlink" x="0px" y="0px"
	 viewBox="0 0 500 500" style="enable-background:new 0 0 500 500;" xml:space="preserve">
<g id="BACKGROUND">
	<rect style="fill:#FAF8F8;" width="500" height="500"/>
	<path style="fill:#FFFFFF;" d="M109.457,77.908C164.945,32.725,239.6,10.531,310.183,22.3
		c70.583,11.77,135.33,58.664,164.802,123.871c17.737,39.244,22.691,83.301,20.642,126.318
		c-2.157,45.284-12.205,91.059-35.994,129.651c-23.789,38.592-62.554,69.313-107.275,76.749
		c-35.694,5.935-72.005-2.92-107.105-11.714c-53.324-13.36-107.762-27.197-153.803-57.232
		c-44.46-29.004-77.138-75.198-86.263-127.993c-7.695-44.525,21.772-101.032,44.975-137.198
		C66.312,119.581,86.252,96.804,109.457,77.908z"/>
</g>
<g id="OBJECTS">
	<g>
		<g>
			<path style="fill:#F3CD6C;" d="M423.361,34.819h-75.694c-19.628,0-35.539,15.911-35.539,35.539v0
				c0,19.627,15.911,35.539,35.539,35.539h75.694c19.628,0,35.539-15.911,35.539-35.539v0
				C458.9,50.73,442.989,34.819,423.361,34.819z"/>
			<polygon style="fill:#F3CD6C;" points="443.016,99.965 403.774,127.424 403.774,99.965 			"/>
		</g>
		
			<line style="fill:none;stroke:#FFFFFF;stroke-width:4;stroke-linecap:round;stroke-linejoin:round;stroke-miterlimit:10;" x1="332.894" y1="55.568" x2="436.088" y2="55.568"/>
		
			<line style="fill:none;stroke:#FFFFFF;stroke-width:4;stroke-linecap:round;stroke-linejoin:round;stroke-miterlimit:10;" x1="332.894" y1="70.729" x2="436.088" y2="70.729"/>
		
			<line style="fill:none;stroke:#FFFFFF;stroke-width:4;stroke-linecap:round;stroke-linejoin:round;stroke-miterlimit:10;" x1="392.369" y1="85.891" x2="436.088" y2="85.891"/>
	</g>
	<g>
		<g>
			<path style="fill:#DACCC8;" d="M93.923,184.434h344.205c8.916,0,15.549,7.228,14.816,16.143l-15.258,185.541
				c-0.733,8.916-8.555,16.143-17.471,16.143H76.011c-8.916,0-15.549-7.228-14.816-16.143l15.258-185.541
				C77.186,191.661,85.008,184.434,93.923,184.434z"/>
			<path style="fill:#EFE8E9;" d="M445.03,199.64l-15.41,187.41c-0.69,8.4-8.06,15.21-16.46,15.21H67.09
				c-8.4,0-14.65-6.81-13.96-15.21l11.4-138.65l4.01-48.76c0.08-0.94,0.24-1.88,0.49-2.77c1.88-7.08,8.52-12.43,15.97-12.43h346.08
				C439.47,184.44,445.72,191.24,445.03,199.64z"/>
			<path style="fill:#DACCC8;" d="M93.943,197.953h326.268c6.641,0,11.581,5.282,11.035,11.797l-14.013,167.195
				c-0.546,6.515-6.372,11.797-13.013,11.797H77.953c-6.641,0-11.581-5.282-11.035-11.797L80.931,209.75
				C81.477,203.234,87.303,197.953,93.943,197.953z"/>
			<path style="fill:#FFFFFF;" d="M431.06,214.195l-13.35,158.27l-0.4,4.77c-0.53,6.36-6.25,11.51-12.76,11.51H84.49
				c-6.51,0-11.36-5.15-10.82-11.51l13.74-163.04c0.54-6.35,6.25-11.5,12.77-11.5h320.05
				C426.75,202.695,431.59,207.845,431.06,214.195z"/>
			<g>
				
					<line style="fill:none;stroke:#EFE8E9;stroke-width:8;stroke-linecap:round;stroke-linejoin:round;stroke-miterlimit:10;" x1="267.894" y1="222.038" x2="112.454" y2="222.038"/>
				
					<line style="fill:none;stroke:#EFE8E9;stroke-width:8;stroke-linecap:round;stroke-linejoin:round;stroke-miterlimit:10;" x1="265.916" y1="242.414" x2="110.476" y2="242.414"/>
				
					<line style="fill:none;stroke:#EFE8E9;stroke-width:8;stroke-linecap:round;stroke-linejoin:round;stroke-miterlimit:10;" x1="263.938" y1="262.79" x2="108.498" y2="262.79"/>
				
					<line style="fill:none;stroke:#EFE8E9;stroke-width:8;stroke-linecap:round;stroke-linejoin:round;stroke-miterlimit:10;" x1="261.96" y1="283.166" x2="106.52" y2="283.166"/>
				
					<line style="fill:none;stroke:#EFE8E9;stroke-width:8;stroke-linecap:round;stroke-linejoin:round;stroke-miterlimit:10;" x1="259.982" y1="303.542" x2="104.542" y2="303.542"/>
				
					<line style="fill:none;stroke:#EFE8E9;stroke-width:8;stroke-linecap:round;stroke-linejoin:round;stroke-miterlimit:10;" x1="258.004" y1="323.917" x2="102.564" y2="323.917"/>
				
					<line style="fill:none;stroke:#EFE8E9;stroke-width:8;stroke-linecap:round;stroke-linejoin:round;stroke-miterlimit:10;" x1="256.026" y1="344.293" x2="100.586" y2="344.293"/>
				<path style="fill:#F7F3F4;" d="M399.862,291.753H282.795c-4.258,0-7.596-3.657-7.209-7.896l5.611-61.473
					c0.34-3.727,3.466-6.581,7.209-6.581h117.068c4.258,0,7.596,3.657,7.209,7.896l-5.611,61.473
					C406.731,288.9,403.605,291.753,399.862,291.753z"/>
				<path style="fill:#F7F3F4;" d="M398.439,346.073H279.395c-3.638,0-6.51-3.088-6.248-6.717l2.644-36.526
					c0.237-3.276,2.964-5.812,6.248-5.812h119.044c3.638,0,6.51,3.088,6.248,6.716l-2.644,36.526
					C404.45,343.536,401.723,346.073,398.439,346.073z"/>
			</g>
		</g>
	</g>
	<g>
		<path style="opacity:0.3;fill:#EFE8E9;" d="M275.779,184.44v56.73c0,3.99-3.24,7.23-7.23,7.23H64.53l4.01-48.76
			c0.08-0.94,0.24-1.88,0.49-2.77c1.88-7.08,8.52-12.43,15.97-12.43H275.779z"/>
		<g>
			<g>
				<g>
					<path style="fill:#FFFFFF;" d="M52.442,214.433c-3.711,0-6.73-3.019-6.73-6.73V89.285h193.043c3.711,0,6.73,3.02,6.73,6.73
						v111.687c0,3.712-3.019,6.73-6.73,6.73H52.442z"/>
					<path style="fill:#EFE8E9;" d="M238.755,89.786c3.436,0,6.23,2.795,6.23,6.23v111.687c0,3.436-2.795,6.23-6.23,6.23H52.443
						c-3.435,0-6.23-2.795-6.23-6.23V89.786H238.755 M238.755,88.786H45.212v118.917c0,3.993,3.237,7.23,7.23,7.23h186.313
						c3.993,0,7.23-3.237,7.23-7.23V96.016C245.986,92.023,242.749,88.786,238.755,88.786L238.755,88.786z"/>
				</g>
				<path style="fill:#F3CD6C;" d="M108.485,73.457H50.408c-2.87,0-5.196,2.326-5.196,5.196v10.133h74.709l-6.873-12.618
					C112.138,74.497,110.388,73.457,108.485,73.457z"/>
				<g>
					<circle style="fill:none;stroke:#FFFFFF;stroke-miterlimit:10;" cx="62.665" cy="81.121" r="3.7"/>
					<path style="fill:none;stroke:#FFFFFF;stroke-miterlimit:10;" d="M81.911,81.121c0,2.044-1.657,3.7-3.7,3.7
						c-2.043,0-3.7-1.657-3.7-3.7c0-2.044,1.657-3.7,3.7-3.7C80.254,77.421,81.911,79.078,81.911,81.121z"/>
					<circle style="fill:none;stroke:#FFFFFF;stroke-miterlimit:10;" cx="93.756" cy="81.121" r="3.7"/>
				</g>
			</g>
			<g>
				<g>
					<path style="fill:#BCE0C1;" d="M180.886,143.946c1.298-2.489,4.369-3.454,6.858-2.156c2.489,1.298,3.454,4.369,2.156,6.858
						c-1.298,2.489-4.369,3.454-6.858,2.156C180.553,149.506,179.588,146.435,180.886,143.946z"/>
					<path style="fill:#BCE0C1;" d="M193.895,120.986c-0.779,1.493-0.2,3.336,1.294,4.115c1.493,0.779,3.336,0.2,4.115-1.294
						c0.779-1.493,0.2-3.336-1.294-4.115C196.516,118.913,194.674,119.493,193.895,120.986z"/>
					<path style="fill:#94C19B;" d="M165.533,121.155c-1.83,3.509-0.469,7.837,3.04,9.668c3.509,1.83,7.837,0.469,9.668-3.04
						c1.83-3.509,0.469-7.837-3.04-9.668C171.691,116.285,167.363,117.646,165.533,121.155z"/>
					<path style="fill:#94C19B;" d="M207.242,136.58c0,1.365-1.107,2.472-2.472,2.472s-2.472-1.107-2.472-2.472
						c0-1.366,1.107-2.472,2.472-2.472S207.242,135.214,207.242,136.58z"/>
					<path style="fill:#94C19B;" d="M184.026,110.179c0-1.057-0.857-1.914-1.914-1.914s-1.914,0.857-1.914,1.914
						c0,1.057,0.857,1.914,1.914,1.914S184.026,111.236,184.026,110.179z"/>
					<path style="fill:#BCE0C1;" d="M188.131,130.506c0-1.057-0.857-1.914-1.914-1.914c-1.057,0-1.914,0.857-1.914,1.914
						s0.857,1.914,1.914,1.914C187.275,132.42,188.131,131.563,188.131,130.506z"/>
					<path style="fill:#BCE0C1;" d="M210.249,122.396c0-1.057-0.857-1.914-1.914-1.914c-1.057,0-1.914,0.857-1.914,1.914
						s0.857,1.914,1.914,1.914C209.392,124.31,210.249,123.453,210.249,122.396z"/>
					<path style="fill:#94C19B;" d="M171.886,143.963c0-0.538-0.436-0.974-0.975-0.974c-0.538,0-0.975,0.436-0.975,0.974
						c0,0.538,0.436,0.974,0.975,0.974C171.45,144.938,171.886,144.501,171.886,143.963z"/>
				</g>
				<g>
					
						<ellipse transform="matrix(0.7071 -0.7071 0.7071 0.7071 -37.7397 169.9001)" style="fill:none;stroke:#F1CB6B;stroke-miterlimit:10;stroke-dasharray:4.0333,2.0166;" cx="186.218" cy="130.506" rx="30.82" ry="30.82"/>
				</g>
				<g>
					<path style="fill:#94C19B;" d="M137.117,121.439c-5.093,18.451-16.871,27.569-35.468,27.569c0,0-0.317-13.74,8.762-24.182
						L137.117,121.439z"/>
					<line style="fill:none;stroke:#5E7969;stroke-miterlimit:10;" x1="101.649" y1="149.008" x2="128.975" y2="123.064"/>
					<path style="fill:#BCE0C1;" d="M140.902,129.414c-0.506-2.512-2.115-5.939-3.84-8.039l-26.719,3.287
						C116.955,129.263,127.631,132.301,140.902,129.414z"/>
					<g>
						<line style="fill:none;stroke:#5E7969;stroke-miterlimit:10;" x1="101.65" y1="185.187" x2="101.65" y2="148.484"/>
						<path style="fill:none;stroke:#5E7969;stroke-miterlimit:10;" d="M101.65,178.394c-0.743,3.223-2.906,6.093-5.8,7.694
							c-2.545,1.408-5.509,1.83-8.215,2.896c-2.706,1.066-5.372,3.144-5.691,6.036"/>
						<path style="fill:none;stroke:#5E7969;stroke-miterlimit:10;" d="M101.756,184.994c-0.801,1.924-0.507,4.263,0.746,5.928
							c0.688,0.915,1.625,1.619,2.312,2.535c0.687,0.916,1.094,2.197,0.543,3.2"/>
						<path style="fill:none;stroke:#5E7969;stroke-miterlimit:10;" d="M101.576,185.116c1.356,1.312,3.291,1.819,5.159,2.087
							c1.868,0.267,3.789,0.353,5.551,1.027c1.762,0.674,3.39,2.106,3.639,3.976"/>
						<path style="fill:none;stroke:#5E7969;stroke-miterlimit:10;" d="M93.273,186.898c-0.132,0.727-0.264,1.454-0.396,2.18
							c-0.214,1.18-0.437,2.385-1.022,3.432c-0.585,1.047-1.609,1.926-2.806,2.011"/>
						<path style="fill:none;stroke:#5E7969;stroke-miterlimit:10;" d="M101.65,175.939c0.559,2.317,2.655,3.861,4.96,4.469
							c2.305,0.608,4.731,0.504,7.098,0.79c3.213,0.388,6.334,1.512,9.058,3.26c1.673,1.074,3.193,2.377,4.902,3.392
							c1.709,1.015,3.686,1.742,5.659,1.5"/>
						<path style="fill:none;stroke:#5E7969;stroke-miterlimit:10;" d="M112.722,194.797c-1.367-0.784-2.363-2.187-2.652-3.736
							c-0.209-1.12-0.068-2.303-0.439-3.38"/>
						<path style="fill:none;stroke:#5E7969;stroke-miterlimit:10;" d="M118.78,182.543c1.043,0.35,1.255,1.773,0.936,2.825
							c-0.319,1.053-0.98,2.021-1.021,3.121c-0.045,1.186,0.64,2.266,1.35,3.217c0.71,0.951,1.497,1.915,1.712,3.082
							c0.216,1.167-0.403,2.59-1.575,2.776"/>
						<path style="fill:none;stroke:#5E7969;stroke-miterlimit:10;" d="M74.164,185.743c1.911,1.243,4.458,1.049,6.574,0.202
							c2.116-0.846,3.946-2.261,5.899-3.437c1.953-1.175,4.168-2.141,6.438-1.93c1.377,0.128,2.68,0.683,4.048,0.887
							c1.368,0.204,3.161-0.225,3.979-1.34"/>
						<path style="fill:none;stroke:#5E7969;stroke-miterlimit:10;" d="M116.811,177.341c-1.025-0.761-2.497-0.546-3.627,0.046
							c-1.13,0.593-2.061,1.504-3.154,2.162c-1.093,0.658-2.655,1.32-3.797,0.75"/>
						<path style="fill:none;stroke:#5E7969;stroke-miterlimit:10;" d="M79.855,179.443c1.475-1.152,3.554-1.478,5.31-0.834
							c1.781,0.653,3.08,2.387,4.974,2.289"/>
					</g>
					<g>
						<defs>
							<path id="SVGID_1_" d="M140.902,129.414c-0.506-2.512-2.115-5.939-3.84-8.039l-26.719,3.287
								C116.955,129.263,127.631,132.301,140.902,129.414z"/>
						</defs>
						<clipPath id="SVGID_00000019643700919436983930000008746199627659308696_">
							<use xlink:href="#SVGID_1_"  style="overflow:visible;"/>
						</clipPath>
						
							<line style="clip-path:url(#SVGID_00000019643700919436983930000008746199627659308696_);fill:none;stroke:#5E7969;stroke-miterlimit:10;" x1="142.101" y1="130.542" x2="124.955" y2="121.015"/>
					</g>
					<g>
						<defs>
							<path id="SVGID_00000000199170966871095580000017129232198265460916_" d="M101.65,149.009
								c-6.998-26.539-21.499-29.832-45.405-22.653C69.304,160.846,101.65,149.009,101.65,149.009z"/>
						</defs>
						<clipPath id="SVGID_00000000218872314060093620000009612233818258825108_">
							<use xlink:href="#SVGID_00000000199170966871095580000017129232198265460916_"  style="overflow:visible;"/>
						</clipPath>
						<path style="clip-path:url(#SVGID_00000000218872314060093620000009612233818258825108_);fill:#94C19B;" d="M101.65,149.009
							c-6.998-26.539-21.499-29.832-45.405-22.653C69.304,160.846,101.65,149.009,101.65,149.009z"/>
						
							<line style="clip-path:url(#SVGID_00000000218872314060093620000009612233818258825108_);fill:none;stroke:#5E7969;stroke-miterlimit:10;" x1="56.245" y1="126.356" x2="101.649" y2="149.008"/>
					</g>
				</g>
				<circle style="fill:none;stroke:#F1CB6B;stroke-miterlimit:10;stroke-dasharray:4,2;" cx="130.118" cy="128.441" r="12.629"/>
				
					<line style="fill:none;stroke:#E0DFDB;stroke-miterlimit:10;stroke-dasharray:4,2;" x1="142.747" y1="128.441" x2="155.397" y2="130.506"/>
				<g>
					<path style="fill:#B3C3F7;" d="M126.607,165.932c0,3.143-2.548,5.691-5.691,5.691s-5.691-2.548-5.691-5.691
						c0-3.143,5.691-11.076,5.691-11.076S126.607,162.788,126.607,165.932z"/>
					<path style="fill:#B3C3F7;" d="M97.488,113.868c0,2.593-2.102,4.695-4.695,4.695s-4.695-2.102-4.695-4.695
						c0-2.593,4.695-9.137,4.695-9.137S97.488,111.274,97.488,113.868z"/>
					<path style="fill:#B3C3F7;" d="M85.811,166.967c0,2.136-1.732,3.868-3.868,3.868c-2.137,0-3.869-1.732-3.869-3.868
						c0-2.137,3.869-7.528,3.869-7.528S85.811,164.831,85.811,166.967z"/>
				</g>
				<g>
					
						<line style="fill:none;stroke:#EFE8E9;stroke-width:4;stroke-linecap:round;stroke-linejoin:round;stroke-miterlimit:10;" x1="150.737" y1="170.689" x2="218.841" y2="170.689"/>
					
						<line style="fill:none;stroke:#EFE8E9;stroke-width:4;stroke-linecap:round;stroke-linejoin:round;stroke-miterlimit:10;" x1="150.737" y1="181.467" x2="218.841" y2="181.467"/>
					
						<line style="fill:none;stroke:#EFE8E9;stroke-width:4;stroke-linecap:round;stroke-linejoin:round;stroke-miterlimit:10;" x1="150.737" y1="192.246" x2="192.048" y2="192.246"/>
					
						<line style="fill:none;stroke:#EFE8E9;stroke-width:4;stroke-linecap:round;stroke-linejoin:round;stroke-miterlimit:10;" x1="150.737" y1="203.024" x2="176.22" y2="203.024"/>
				</g>
			</g>
		</g>
	</g>
	<g>
		<path style="fill:#849CF1;" d="M269.231,303.942L269.231,303.942c3.997,14.796,20.826,21.879,34.224,14.436
			c35.206-19.556,61.94-54.105,76.23-89.822c4.151-10.376-0.384-22.2-10.411-27.135l0,0c-8.645-4.255-19.069-2.199-25.45,5.021
			l-69.208,75.427C269.158,287.819,267.126,296.148,269.231,303.942z"/>
		<g>
			<g>
				<path style="fill:#F2C7BF;" d="M186.787,212.737c0.366,0.465,0.733,0.948,1.118,1.448c2.842,3.706,6.362,8.309,11.417,12.92
					c6.595,6.028,15.765,12.122,29.378,16.409l5.366-13.503l-8.806-30.784L186.787,212.737z"/>
				<path style="fill:#212121;" d="M201.463,188.987l5.293,53.793c0.187,1.901,1.876,3.292,3.777,3.112l0,0
					c1.947-0.184,3.356-1.941,3.114-3.881l-6.528-52.28L201.463,188.987z"/>
				<path style="fill:#E89E91;" d="M187.905,214.185c2.842,3.706,6.362,8.309,11.417,12.92c1.682-0.349,3.128-1.52,3.747-3.249
					c0.26-0.73,0.326-1.49,0.251-2.229c-0.004-0.141-0.025-0.264-0.047-0.386c-0.021-0.105-0.042-0.228-0.098-0.332
					c-0.42-1.68-1.696-3.123-3.509-3.616l-10.188-2.925C188.964,214.224,188.433,214.169,187.905,214.185z"/>
				<path style="fill:#E89E91;" d="M185.714,208.648c-0.236,1.729,0.451,3.521,1.956,4.639l8.571,6.267
					c2.205,1.606,5.308,1.181,6.99-0.972c0.478-0.618,0.782-1.323,0.943-2.047c0.04-0.14,0.057-0.262,0.073-0.383
					c0.014-0.102,0.031-0.224,0.024-0.328c0.134-1.743-0.64-3.506-2.197-4.547l-8.755-5.981c-1.254-0.834-2.779-1.043-4.141-0.628
					c-0.194,0.056-0.391,0.133-0.588,0.21c-0.701,0.277-1.345,0.749-1.847,1.385C186.168,206.991,185.828,207.815,185.714,208.648z"
					/>
				<path style="fill:#F2C7BF;" d="M206.779,199.647c0.149,0.608,0.193,1.257,0.095,1.911c-0.028,0.179-0.059,0.344-0.104,0.513
					c-0.428,1.767-1.772,3.128-3.442,3.622c-0.639,0.199-1.325,0.267-2.017,0.192l-4.37-0.465l-6.168-0.67
					c-0.884-0.099-1.679-0.42-2.342-0.903c-0.939-0.673-1.609-1.656-1.887-2.792c-0.149-0.609-0.179-1.26-0.081-1.915
					c0.36-2.395,2.415-4.13,4.788-4.152l0.013-0.003c0.128-0.003,0.26,0.008,0.392,0.019l10.584,0.793
					c0.101,0.004,0.206,0.021,0.311,0.039C204.67,196.121,206.3,197.686,206.779,199.647z"/>
				<path style="fill:#F2C7BF;" d="M181.667,219.004c0.319,1.715,1.536,3.201,3.316,3.788l10.107,3.255
					c2.598,0.832,5.41-0.548,6.33-3.12c0.259-0.737,0.326-1.502,0.251-2.239c-0.006-0.145-0.029-0.266-0.051-0.387
					c-0.019-0.101-0.041-0.222-0.08-0.319c-0.42-1.697-1.71-3.127-3.515-3.626l-10.192-2.926c-1.452-0.398-2.966-0.116-4.128,0.706
					c-0.166,0.115-0.329,0.249-0.492,0.384c-0.578,0.483-1.042,1.134-1.318,1.895C181.577,217.288,181.513,218.176,181.667,219.004z
					"/>
				<path style="fill:#E89E91;" d="M183.705,214.135c0.408,0.843,1.066,1.576,1.953,2.079l9.19,5.284
					c2.293,1.327,5.909,1.167,7.42-2.063c-0.42-1.697-2.439-2.582-4.244-3.081l-10.192-2.926
					C186.381,213.031,184.867,213.313,183.705,214.135z"/>
				<path style="fill:#F2C7BF;" d="M183.449,208.254c-0.236,1.729,0.451,3.521,1.956,4.639l8.571,6.267
					c2.205,1.606,5.308,1.181,6.99-0.972c0.478-0.618,0.781-1.323,0.943-2.047c0.04-0.14,0.056-0.262,0.073-0.384
					c0.014-0.102,0.031-0.224,0.024-0.328c0.135-1.743-0.64-3.506-2.197-4.547l-8.755-5.982c-1.254-0.834-2.779-1.042-4.141-0.628
					c-0.194,0.056-0.391,0.133-0.588,0.21c-0.701,0.277-1.346,0.749-1.847,1.385C183.903,206.596,183.562,207.42,183.449,208.254z"
					/>
				<path style="fill:#E89E91;" d="M186.913,204.272c0.122,0.928,0.516,1.831,1.201,2.588l7.063,7.905
					c1.76,1.98,5.243,2.966,7.693,0.375c0.135-1.743-1.503-3.218-3.06-4.259l-8.755-5.982
					C189.801,204.066,188.275,203.858,186.913,204.272z"/>
				<path style="fill:#E89E91;" d="M192.915,203.055c-0.291,1.344-0.021,2.81,0.878,3.992l4.533,5.733
					c1.648,2.184,4.741,2.645,6.952,1.066c0.974-0.713,1.621-1.665,1.916-2.735c0.042-0.096,0.068-0.216,0.09-0.317
					c0.318-1.465,0.004-3.024-1.007-4.272l-4.785-5.536c-0.798-0.971-1.907-1.569-3.068-1.736c-1.197-0.197-2.453,0.077-3.516,0.813
					C193.846,200.8,193.172,201.872,192.915,203.055z"/>
				<path style="fill:#F2C7BF;" d="M205.107,210.331c-0.017,0.105-0.032,0.223-0.062,0.331c-0.024,0.135-0.065,0.26-0.093,0.381
					l-0.014,0.003c-0.258,0.937-0.793,1.799-1.6,2.483c-2.079,1.755-5.2,1.53-7.02-0.519l-7.077-7.9
					c-0.339-0.39-0.614-0.81-0.811-1.263c-0.377-0.839-0.504-1.768-0.378-2.659c0.165-1.201,0.751-2.319,1.755-3.138
					c0.576-0.456,1.203-0.767,1.875-0.946c0.514-0.126,1.048-0.17,1.574-0.127c1.164,0.073,2.32,0.579,3.186,1.485l6.884,7.23
					l0.443,0.465C204.873,207.321,205.304,208.849,205.107,210.331z"/>
				<path style="fill:#E89E91;" d="M203.303,205.589l0.443,0.465c1.101,1.164,1.533,2.692,1.336,4.173
					c-0.018,0.105-0.032,0.223-0.063,0.331c-0.024,0.135-0.066,0.26-0.093,0.381l-0.014,0.003c-2.103,0.658-4.479-0.151-5.729-2.096
					l-2.268-3.53l-4.91-7.656c-0.137-0.21-0.265-0.437-0.348-0.66c-0.311-0.684-0.442-1.397-0.432-2.116l0.014-0.003
					c0.128-0.003,0.26,0.008,0.392,0.019l10.584,0.794c0.101,0.004,0.206,0.021,0.311,0.039l4.219,6.234
					C206.317,203.734,204.973,205.094,203.303,205.589z"/>
				<path style="fill:#F2C7BF;" d="M212.322,194.713c0.208,0.852,0.2,1.757-0.068,2.653c-0.79,2.63-3.529,4.145-6.166,3.443
					l-3.311-0.881l-6.935-1.872c-1.042-0.275-1.92-0.878-2.54-1.657c-0.463-0.546-0.781-1.199-0.953-1.902
					c-0.208-0.852-0.187-1.76,0.098-2.646c0.769-2.423,3.285-3.856,5.76-3.286l3.345,0.787l3.554,0.822l3.436,0.808
					C210.485,191.422,211.882,192.915,212.322,194.713z"/>
				<path style="fill:#E89E91;" d="M198.232,196.82c-0.494,1.284-0.451,2.774,0.256,4.079l3.601,6.36
					c1.294,2.411,4.28,3.34,6.707,2.118c1.071-0.555,1.857-1.397,2.313-2.409c0.056-0.089,0.1-0.204,0.137-0.299
					c0.538-1.399,0.467-2.987-0.34-4.376l-3.881-6.203c-0.64-1.082-1.645-1.842-2.766-2.186c-1.152-0.378-2.436-0.299-3.599,0.265
					C199.497,194.733,198.667,195.69,198.232,196.82z"/>
				<path style="fill:#F2C7BF;" d="M193.707,194.129c-0.393,1.318-0.234,2.8,0.572,4.047l5.789,8.899
					c1.477,2.303,4.526,2.997,6.851,1.591c1.025-0.637,1.743-1.537,2.118-2.582c0.049-0.093,0.084-0.211,0.113-0.309
					c0.428-1.436,0.234-3.015-0.679-4.336l-6.055-8.722c-0.722-1.029-1.783-1.709-2.928-1.964c-1.178-0.287-2.452-0.109-3.568,0.544
					C194.806,191.951,194.053,192.969,193.707,194.129z"/>
				<g>
					<g>
						<path style="fill:#E89E91;" d="M228.009,227.725l-7.552-26.052l-13.947-8.917l-1.506,9.821l4.372,5.117
							C209.376,207.693,202.91,228.921,228.009,227.725z"/>
						<path style="fill:#E89E91;" d="M206.51,192.755l-8.946,3.491c-1.944,0.758-2.919,2.936-2.191,4.892l0,0
							c0.647,1.738,2.448,2.76,4.271,2.424l5.36-0.986L206.51,192.755z"/>
					</g>
					<g>
						<path style="fill:#E89E91;" d="M205.107,190.172l0.266,8.763l-2.595,0.993l-3.41,1.293c-0.183,0.073-0.369,0.133-0.544,0.176
							c-1.907,0.466-3.911-0.348-4.936-2.075c-0.552-0.911-0.733-1.942-0.586-2.923c0.172-1.289,0.897-2.484,2.079-3.217
							l6.171-3.831L205.107,190.172z"/>
						<path style="fill:#212121;" d="M207.519,194.26l-10.292-80.467c-0.078-0.764-0.643-1.388-1.394-1.543l0,0
							c-1.155-0.238-2.212,0.707-2.105,1.881l7.945,82.267L207.519,194.26z"/>
						<path style="fill:#F2C7BF;" d="M234.064,230.014l-8.808-30.783l-16.426-10.584l-1.818,11.587l5.14,6.058
							C212.151,206.292,204.432,231.322,234.064,230.014z"/>
						<path style="fill:#F2C7BF;" d="M208.83,188.647l-10.574,4.084c-2.298,0.887-3.458,3.454-2.607,5.766l0,0
							c0.757,2.054,2.878,3.268,5.032,2.879l6.331-1.142L208.83,188.647z"/>
					</g>
				</g>
			</g>
			<path style="fill:#F2C7BF;" d="M225.493,240.695c15.279,32.035,34.745,54.367,46.222,68.778c3.812,4.79,9.056,7.38,14.432,7.931
				c2.592,0.26,5.223,0.052,7.733-0.613c5.857-1.551,11.117-5.589,13.928-11.878c2.659-5.944,2.391-12.568-0.339-18.113
				c-1.475-2.998-3.679-5.67-6.508-7.75l-19.798-14.518l-47.101-34.517L225.493,240.695z"/>
		</g>
		<g>
			<g>
				<polygon style="fill:#F2C7BF;" points="376.333,192.382 345.125,201.967 338.193,189.387 327.98,170.872 323.929,163.541 
					351.087,111.393 				"/>
				<path style="fill:#E89E91;" d="M349.656,163.99c0,0,2.839,14.337-12.312,24.02l-7.95-14.412L349.656,163.99z"/>
				<path d="M320.888,114.105c-27.414-4.718-16.314-36.025,7.297-23.935c16.891,8.65,29.471-11.369,46.967-1.445
					c22.943,13.013,0.626,37.444,0.626,37.444L320.888,114.105z"/>
				<path style="fill:#F2C7BF;" d="M357.581,162.308l-32.533,18.396c-8.142,4.603-18.408-0.152-20.115-9.359
					c-2.373-12.548-3.998-29.481,0.158-43.594c2.457-8.334,7.59-15.275,14.301-20.078c3.007-2.175,6.352-3.901,9.918-5.104
					l0.035-0.016l2.025-0.617l0.204-0.073c1.016-0.278,2.039-0.494,3.078-0.674c2.467-0.455,4.997-0.68,7.572-0.624
					c2.461,0.045,4.832,0.498,7.017,1.297c9.184,3.358,15.273,12.839,13.793,23.182l-1.298,8.875L357.581,162.308z"/>
				<path d="M323.929,104.872c20.834-15.301,42.664-7.87,54.554,1.943c8.366,6.904,15.501,18.033,9.366,27.672
					c-5.579,8.767-19.486,10.34-21.304,26.496l-18.674-43.765L323.929,104.872z"/>
				<path style="fill:#F2C7BF;" d="M350.765,138.452c34.452-25.871,38.845,19.921,1.465,17.457L350.765,138.452z"/>
				<path style="fill:#F2C7BF;" d="M304.087,131.676c-1.884,7.017-6.543,9.018-9.709,9.484c-2.033,0.299-3.498,2.096-3.392,4.148
					l0,0c0.139,2.707,1.86,5.078,4.391,6.05l8.954,3.438c4.891,0.947,9.535-2.523,10.014-7.482l1.623-16.809L304.087,131.676z"/>
				<path d="M302.738,154.185c20.557-8.681,50.771-5.118,50.771-5.118s0.034,9.493-3.377,17.453
					C346.72,174.48,301.459,208.195,302.738,154.185z"/>
				<path style="fill:#A2B7F3;" d="M413.32,271.146c-6.622,31.459-14.716,58.14-14.716,58.14l-65.627,3.914l14.077-59.313
					c-14.045-13.106-14.919-29.028-12.029-42.891c2.623-12.616,8.361-23.514,10.099-29.017l26.052-25.498
					c1.386-1.376,33.165,0.725,42.784,45.557C417.618,239.122,416.498,256.067,413.32,271.146z"/>
				<polygon style="fill:#849CF1;" points="367.853,216.661 384.503,291.24 361.934,331.474 398.6,329.291 418.122,264.951 
					418.122,221 				"/>
				<polygon points="346.052,109.75 343.206,154.952 352.367,159.224 362.254,123.916 				"/>
				<path d="M311.128,141.551c-0.78,3.204-0.228,6.09,1.233,6.445c1.461,0.356,3.278-1.953,4.058-5.157
					c0.78-3.204,0.228-6.089-1.233-6.445C313.725,136.038,311.908,138.347,311.128,141.551z"/>
				<path d="M319.53,127.462c6.307,3.115,8.299-0.098,3.831-3.21C318.555,120.906,311.682,123.587,319.53,127.462z"/>
				<path style="fill:#FFFFFF;" d="M324.165,157.596c-0.652,8.273-7.191,8.985-10.134,2.045L324.165,157.596z"/>
				<path d="M417.71,372.465l-0.4,4.77c-0.53,6.36-6.25,11.51-12.76,11.51h-92.24c6.93-36.25,20.48-55.55,20.48-55.55l65.62-3.9
					C409.58,340.295,415.05,357.405,417.71,372.465z"/>
			</g>
		</g>
		<g>
			<path style="fill:#A2B7F3;" d="M426.002,309.934L426.002,309.934c14.043,2.574,27.194-9.004,25.405-23.169
				c-4.597-36.405-32.049-71.485-53.155-92.68c-8.438-8.475-22.43-7.841-31.099,0.396l0,0c-7.475,7.103-9.274,18.329-4.39,27.411
				l48.811,78.232C414.789,305.278,420.026,308.839,426.002,309.934z"/>
		</g>
		<g>
			<path style="fill:#F2C7BF;" d="M409.38,280.731l-47.924,43.555l0.564,17.57c0,0,48.561-8.42,80.128-35.18
				C463.853,288.276,436.703,256.171,409.38,280.731z"/>
			<g>
				<polygon style="fill:#F2C7BF;" points="362.495,341.746 310.055,352.256 352.679,314.612 373.563,333.32 				"/>
				<path style="fill:#F2C7BF;" d="M350.416,322.273l4.779-6.5c1.412-1.921,0.631-4.657-1.581-5.544l-0.683-0.274
					c-4.187-1.679-8.911,0.607-10.192,4.933l0,0c-0.859,2.901,0.071,6.036,2.372,7.999l0,0
					C346.723,324.262,349.162,323.979,350.416,322.273z"/>
				<path style="fill:#F2C7BF;" d="M338.549,331.544l-28.485,20.714l-1.021-0.419c-4.008-1.651-8.532-1.456-12.371,0.539
					c-0.621,0.314-1.361,0.182-1.825-0.292c-0.073-0.075-0.134-0.162-0.195-0.249c-1.542-2.377-1.149-5.448,0.8-7.353
					c0.325-0.317,0.698-0.585,1.109-0.84l1.951-0.979l0.199-0.096c3.366-1.679,7.331-1.597,10.621,0.219l28.3-10.883
					L338.549,331.544z"/>
				<path style="fill:#E89E91;" d="M330.576,341.785l-14.976,7.501c-6.406-3.136-10.925-2.241-14.765-0.246
					c-0.621,0.314-1.361,0.182-1.825-0.292c-0.073-0.075-0.134-0.162-0.195-0.249c-1.19-1.817-1.226-4.053-0.304-5.834l0.199-0.096
					c3.366-1.679,7.331-1.597,10.621,0.219l7.348,2.993L330.576,341.785z"/>
				<path style="fill:#F2C7BF;" d="M316.679,345.78l-1.015-0.418c-4.001-1.649-8.525-1.453-12.367,0.536l0,0
					c-0.711,0.368-1.584,0.137-2.021-0.534l0,0c-1.805-2.778-0.942-6.499,1.901-8.198l2.154-1.071
					c3.366-1.673,7.338-1.592,10.633,0.217l0,0l29.213-11.244L316.679,345.78z"/>
			</g>
		</g>
		<polygon style="fill:#A2B7F3;" points="344.763,214.176 334.094,188.801 369.705,165.549 376.333,177.755 		"/>
		<path d="M351.948,126.624c-16.301,0-26.466-6.688-14.193-18.956C346.311,99.117,363.807,106.792,351.948,126.624z"/>
	</g>
	<g>
		<path style="fill:#060606;" d="M398.146,359.242H100.014c-2.562,0-4.639,2.077-4.639,4.639v12.593
			c0,2.562,2.077,4.639,4.639,4.639h298.131c2.562,0,4.639-2.077,4.639-4.639v-12.593
			C402.785,361.319,400.708,359.242,398.146,359.242z"/>
		<g>
			<g>
				<path style="fill:#FFFFFD;" d="M113.483,370.884l-7.629,4.862c-0.557,0.355-1.286-0.045-1.286-0.705v-9.724
					c0-0.66,0.729-1.06,1.286-0.706l7.629,4.862C113.999,369.802,113.999,370.555,113.483,370.884z"/>
			</g>
			<g>
				<g>
					<path style="fill:#E15938;" d="M221.003,372.678h-97.656c-1.381,0-2.5-1.119-2.5-2.5s1.119-2.5,2.5-2.5h97.656
						c1.381,0,2.5,1.119,2.5,2.5S222.384,372.678,221.003,372.678z"/>
				</g>
				<g>
					<path style="fill:#FFFFFD;" d="M384.039,372.678H222.373c-1.381,0-2.5-1.119-2.5-2.5s1.119-2.5,2.5-2.5h161.666
						c1.381,0,2.5,1.119,2.5,2.5S385.419,372.678,384.039,372.678z"/>
				</g>
				<path style="fill:#E15938;" d="M228.281,370.178c0,4.019-3.258,7.278-7.278,7.278c-4.019,0-7.278-3.258-7.278-7.278
					c0-4.019,3.259-7.278,7.278-7.278C225.023,362.9,228.281,366.159,228.281,370.178z"/>
			</g>
			<path style="fill:#FFFFFD;" d="M224.589,370.178c0,1.98-1.605,3.585-3.585,3.585c-1.98,0-3.585-1.605-3.585-3.585
				c0-1.98,1.605-3.585,3.585-3.585C222.984,366.593,224.589,368.198,224.589,370.178z"/>
		</g>
	</g>
	<path style="fill:none;stroke:#F1CB6B;stroke-miterlimit:10;stroke-dasharray:4,2;" d="M45.212,171.623
		C0,214.176,32.115,293.946,96.363,293.752"/>
	<g>
		<path style="opacity:0.3;fill:#EFE8E9;" d="M259.443,270.518h-68.119L184.45,257.9c-0.91-1.671-2.66-2.71-4.563-2.71H121.81
			c-2.869,0-5.196,2.326-5.196,5.196v10.133v72.717c0,3.993,3.237,7.231,7.23,7.231h135.598c3.993,0,7.23-3.237,7.23-7.23v-65.487
			C266.673,273.755,263.436,270.518,259.443,270.518z"/>
		<g>
			<g>
				<g>
					<path style="fill:#FFFFFF;" d="M103.593,333.226c-3.711,0-6.73-3.02-6.73-6.73v-72.217h142.329c3.711,0,6.73,3.02,6.73,6.73
						v65.486c0,3.711-3.019,6.73-6.73,6.73H103.593z"/>
					<path style="fill:#EFE8E9;" d="M239.192,254.778c3.435,0,6.23,2.795,6.23,6.23v65.487c0,3.435-2.795,6.23-6.23,6.23H103.593
						c-3.436,0-6.23-2.795-6.23-6.23v-71.717H239.192 M239.192,253.778H96.363v72.717c0,3.993,3.237,7.23,7.23,7.23h135.598
						c3.993,0,7.23-3.237,7.23-7.23v-65.487C246.422,257.016,243.185,253.778,239.192,253.778L239.192,253.778z"/>
				</g>
				<path style="fill:#94C19B;" d="M159.636,238.45h-58.077c-2.87,0-5.196,2.326-5.196,5.196v10.133h74.709l-6.873-12.618
					C163.289,239.49,161.539,238.45,159.636,238.45z"/>
				<g>
					<circle style="fill:none;stroke:#FFFFFF;stroke-miterlimit:10;" cx="113.816" cy="246.114" r="3.7"/>
					<path style="fill:none;stroke:#FFFFFF;stroke-miterlimit:10;" d="M133.062,246.114c0,2.044-1.657,3.7-3.7,3.7
						c-2.044,0-3.7-1.657-3.7-3.7c0-2.044,1.656-3.7,3.7-3.7C131.405,242.414,133.062,244.07,133.062,246.114z"/>
					<circle style="fill:none;stroke:#FFFFFF;stroke-miterlimit:10;" cx="144.907" cy="246.114" r="3.7"/>
				</g>
			</g>
			<g>
				
					<line style="fill:none;stroke:#EFE8E9;stroke-width:4;stroke-linecap:round;stroke-linejoin:round;stroke-miterlimit:10;" x1="171.072" y1="271.828" x2="171.072" y2="312.688"/>
				
					<line style="fill:none;stroke:#EFE8E9;stroke-width:4;stroke-linecap:round;stroke-linejoin:round;stroke-miterlimit:10;" x1="180.843" y1="274.748" x2="180.843" y2="309.768"/>
				
					<line style="fill:none;stroke:#EFE8E9;stroke-width:4;stroke-linecap:round;stroke-linejoin:round;stroke-miterlimit:10;" x1="190.613" y1="283.249" x2="190.613" y2="301.257"/>
				
					<line style="fill:none;stroke:#EFE8E9;stroke-width:4;stroke-linecap:round;stroke-linejoin:round;stroke-miterlimit:10;" x1="117.516" y1="271.828" x2="117.516" y2="312.688"/>
				
					<line style="fill:none;stroke:#EFE8E9;stroke-width:4;stroke-linecap:round;stroke-linejoin:round;stroke-miterlimit:10;" x1="126.82" y1="274.748" x2="126.82" y2="309.768"/>
				
					<line style="fill:none;stroke:#EFE8E9;stroke-width:4;stroke-linecap:round;stroke-linejoin:round;stroke-miterlimit:10;" x1="136.123" y1="283.249" x2="136.123" y2="301.257"/>
				
					<line style="fill:none;stroke:#EFE8E9;stroke-width:4;stroke-linecap:round;stroke-linejoin:round;stroke-miterlimit:10;" x1="223.811" y1="312.688" x2="223.811" y2="271.828"/>
				
					<line style="fill:none;stroke:#EFE8E9;stroke-width:4;stroke-linecap:round;stroke-linejoin:round;stroke-miterlimit:10;" x1="214.507" y1="309.768" x2="214.507" y2="274.748"/>
				
					<line style="fill:none;stroke:#EFE8E9;stroke-width:4;stroke-linecap:round;stroke-linejoin:round;stroke-miterlimit:10;" x1="205.204" y1="301.267" x2="205.204" y2="283.259"/>
				
					<line style="fill:none;stroke:#EFE8E9;stroke-width:4;stroke-linecap:round;stroke-linejoin:round;stroke-miterlimit:10;" x1="161.302" y1="309.482" x2="161.302" y2="274.461"/>
				
					<line style="fill:none;stroke:#EFE8E9;stroke-width:4;stroke-linecap:round;stroke-linejoin:round;stroke-miterlimit:10;" x1="151.531" y1="301.981" x2="151.531" y2="282.043"/>
				<path style="fill:none;stroke:#F3CD6C;stroke-width:4;stroke-linecap:round;stroke-linejoin:round;stroke-miterlimit:10;" d="
					M116.128,271.828c27.469,0,27.469,40.86,54.938,40.86c27.468,0,27.468-40.86,54.936-40.86"/>
				<path style="fill:none;stroke:#E15938;stroke-width:4;stroke-linecap:round;stroke-linejoin:round;stroke-miterlimit:10;" d="
					M226.016,312.688c-27.472,0-27.472-40.86-54.944-40.86c-27.472,0-27.472,40.86-54.944,40.86"/>
				<path style="fill:#BCE0C1;" d="M147.563,267.418c0,1.46-1.183,2.643-2.643,2.643c-1.459,0-2.642-1.183-2.642-2.643
					c0-1.459,1.183-2.642,2.642-2.642C146.38,264.775,147.563,265.958,147.563,267.418z"/>
				<path style="fill:#BCE0C1;" d="M197.538,317.513c0,1.459-1.183,2.643-2.643,2.643s-2.643-1.183-2.643-2.643
					c0-1.46,1.183-2.643,2.643-2.643S197.538,316.053,197.538,317.513z"/>
				<path style="fill:#BCE0C1;" d="M209.152,267.418c0,1.46-1.183,2.643-2.643,2.643c-1.459,0-2.642-1.183-2.642-2.643
					c0-1.459,1.183-2.642,2.642-2.642C207.969,264.775,209.152,265.958,209.152,267.418z"/>
				<path style="fill:#94C19B;" d="M112.275,295.72c0,1.459-1.183,2.643-2.643,2.643c-1.459,0-2.643-1.183-2.643-2.643
					s1.183-2.642,2.643-2.642C111.091,293.078,112.275,294.261,112.275,295.72z"/>
				<path style="fill:#94C19B;" d="M147.55,317.513c0,1.459-1.183,2.643-2.643,2.643s-2.643-1.183-2.643-2.643
					c0-1.46,1.183-2.643,2.643-2.643S147.55,316.053,147.55,317.513z"/>
				<path style="fill:#94C19B;" d="M236.706,291.972c0,1.46-1.183,2.643-2.643,2.643c-1.459,0-2.643-1.183-2.643-2.643
					c0-1.459,1.183-2.642,2.643-2.642C235.523,289.329,236.706,290.512,236.706,291.972z"/>
			</g>
		</g>
	</g>
	<g>
		<ellipse style="fill:#EFE8E9;" cx="356.618" cy="452.905" rx="133.422" ry="7.717"/>
		<g>
			<g>
				<g>
					<path style="fill:#E15938;" d="M399.735,355.286v44.47h-120.09c-8.13,0-15.11-4.9-18.16-11.92c-1.04-2.4-1.62-5.06-1.62-7.86
						v-4.91c0-10.92,8.86-19.78,19.78-19.78H399.735z"/>
					<path style="fill:#D0391A;" d="M362.265,387.836v11.92h-82.62c-8.13,0-15.11-4.9-18.16-11.92H362.265z"/>
					<path style="fill:#D0391A;" d="M342.091,377.523c0,4.586,1.856,8.74,4.861,11.744c3.005,3.015,7.159,4.871,11.744,4.871h92.897
						v5.627h-92.828c-6.147,0-11.705-2.494-15.731-6.51c-4.026-4.026-6.51-9.594-6.51-15.731c0-12.284,9.957-22.232,22.242-22.232
						h92.828v5.627h-92.897C349.524,360.918,342.091,368.352,342.091,377.523z"/>
					<path style="fill:#FFFFFF;" d="M446.783,360.915h-89.919c-8.16,0-14.774,6.615-14.774,14.774v3.67
						c0,8.16,6.615,14.774,14.774,14.774h89.919V360.915z"/>
				</g>
				<g>
					
						<line style="fill:none;stroke:#EFE8E9;stroke-width:4;stroke-linecap:round;stroke-linejoin:round;stroke-miterlimit:10;" x1="353.557" y1="367.215" x2="384.756" y2="367.215"/>
					
						<line style="fill:none;stroke:#EFE8E9;stroke-width:4;stroke-linecap:round;stroke-linejoin:round;stroke-miterlimit:10;" x1="391.211" y1="367.215" x2="398.204" y2="367.215"/>
					
						<line style="fill:none;stroke:#EFE8E9;stroke-width:4;stroke-linecap:round;stroke-linejoin:round;stroke-miterlimit:10;" x1="441.954" y1="373.67" x2="373.819" y2="373.67"/>
					
						<line style="fill:none;stroke:#EFE8E9;stroke-width:4;stroke-linecap:round;stroke-linejoin:round;stroke-miterlimit:10;" x1="441.954" y1="380.304" x2="363.778" y2="380.304"/>
					
						<line style="fill:none;stroke:#EFE8E9;stroke-width:4;stroke-linecap:round;stroke-linejoin:round;stroke-miterlimit:10;" x1="366.826" y1="373.67" x2="356.068" y2="373.67"/>
					
						<line style="fill:none;stroke:#EFE8E9;stroke-width:4;stroke-linecap:round;stroke-linejoin:round;stroke-miterlimit:10;" x1="346.918" y1="380.304" x2="350.868" y2="380.304"/>
					
						<line style="fill:none;stroke:#EFE8E9;stroke-width:4;stroke-linecap:round;stroke-linejoin:round;stroke-miterlimit:10;" x1="358.04" y1="387.835" x2="393.123" y2="387.835"/>
					
						<line style="fill:none;stroke:#EFE8E9;stroke-width:4;stroke-linecap:round;stroke-linejoin:round;stroke-miterlimit:10;" x1="437.651" y1="367.215" x2="421.872" y2="367.215"/>
					
						<line style="fill:none;stroke:#EFE8E9;stroke-width:4;stroke-linecap:round;stroke-linejoin:round;stroke-miterlimit:10;" x1="409.989" y1="387.835" x2="419.398" y2="387.835"/>
				</g>
				<path style="fill:#F3CD6C;" d="M285.695,393.257c4.03,4.01,9.59,6.51,15.72,6.51h-11.32c-6.14,0-11.69-2.5-15.72-6.51
					c-1.59-1.58-2.93-3.41-3.98-5.42c-1.62-3.08-2.53-6.59-2.53-10.31c0-12.29,9.96-22.23,22.23-22.23h11.32
					c-12.27,0-22.23,9.94-22.23,22.23c0,3.72,0.91,7.23,2.53,10.31C282.765,389.846,284.115,391.677,285.695,393.257z"/>
				<path style="fill:#F3CD6C;" d="M330.585,393.257c4.03,4.01,9.59,6.51,15.73,6.51h-22.05c-6.14,0-11.71-2.5-15.73-6.51
					c-1.58-1.58-2.93-3.41-3.98-5.42c-1.62-3.08-2.54-6.59-2.54-10.31c0-12.29,9.96-22.23,22.25-22.23h22.05
					c-12.28,0-22.24,9.94-22.24,22.23c0,3.72,0.91,7.23,2.53,10.31C327.655,389.846,329.005,391.677,330.585,393.257z"/>
				<path style="fill:#EEB142;" d="M285.695,393.257c4.03,4.01,9.59,6.51,15.72,6.51h-11.32c-6.14,0-11.69-2.5-15.72-6.51
					c-1.59-1.58-2.93-3.41-3.98-5.42h11.32C282.765,389.846,284.115,391.677,285.695,393.257z"/>
				<path style="fill:#EEB142;" d="M346.315,399.767h-22.05c-6.14,0-11.71-2.5-15.73-6.51c-1.58-1.58-2.93-3.41-3.98-5.42h22.05
					c1.05,2.01,2.4,3.84,3.98,5.42C334.615,397.267,340.175,399.767,346.315,399.767z"/>
			</g>
			<g>
				<rect x="312.694" y="399.729" style="fill:#EEB142;" width="167.24" height="53.176"/>
				<rect x="319.348" y="406.457" style="fill:#EFE8E9;" width="160.586" height="39.719"/>
				<path style="fill:#F3CD6C;" d="M383.701,399.729H277.455c-14.133,0-25.59,11.457-25.59,25.59v1.996
					c0,14.133,11.457,25.59,25.59,25.59h106.246V399.729z"/>
				<path style="fill:#FFFFFF;" d="M383.701,406.457H278.379c-10.968,0-19.859,8.891-19.859,19.859l0,0
					c0,10.968,8.891,19.859,19.859,19.859h105.322V406.457z"/>
				<g>
					
						<line style="fill:none;stroke:#EFE8E9;stroke-width:4;stroke-linecap:round;stroke-linejoin:round;stroke-miterlimit:10;" x1="311.238" y1="415.539" x2="401.998" y2="415.539"/>
					
						<line style="fill:none;stroke:#EFE8E9;stroke-width:4;stroke-linecap:round;stroke-linejoin:round;stroke-miterlimit:10;" x1="281.956" y1="424.313" x2="338.32" y2="424.313"/>
					
						<line style="fill:none;stroke:#EFE8E9;stroke-width:4;stroke-linecap:round;stroke-linejoin:round;stroke-miterlimit:10;" x1="295.276" y1="434.784" x2="368.615" y2="434.784"/>
					
						<line style="fill:none;stroke:#EFE8E9;stroke-width:4;stroke-linecap:round;stroke-linejoin:round;stroke-miterlimit:10;" x1="365.206" y1="424.313" x2="400.299" y2="424.313"/>
					
						<line style="fill:none;stroke:#EFE8E9;stroke-width:4;stroke-linecap:round;stroke-linejoin:round;stroke-miterlimit:10;" x1="295.276" y1="415.539" x2="274.527" y2="415.539"/>
					
						<line style="fill:none;stroke:#EFE8E9;stroke-width:4;stroke-linecap:round;stroke-linejoin:round;stroke-miterlimit:10;" x1="285.047" y1="434.784" x2="270.19" y2="434.784"/>
					
						<line style="fill:none;stroke:#EFE8E9;stroke-width:4;stroke-linecap:round;stroke-linejoin:round;stroke-miterlimit:10;" x1="274.527" y1="424.313" x2="267.727" y2="424.313"/>
					
						<line style="fill:none;stroke:#EFE8E9;stroke-width:4;stroke-linecap:round;stroke-linejoin:round;stroke-miterlimit:10;" x1="344.183" y1="424.313" x2="351.127" y2="424.313"/>
				</g>
			</g>
		</g>
	</g>
	<path style="fill:none;stroke:#E7DDDD;stroke-width:3;stroke-linecap:round;stroke-linejoin:round;stroke-miterlimit:10;" d="
		M265.125,157.596c0,2.905-2.355,5.26-5.26,5.26c-2.905,0-5.26-2.355-5.26-5.26c0-2.905,2.355-5.26,5.26-5.26
		C262.77,152.337,265.125,154.691,265.125,157.596z"/>
	<path style="fill:none;stroke:#E7DDDD;stroke-width:3;stroke-linecap:round;stroke-linejoin:round;stroke-miterlimit:10;" d="
		M475.057,196.962c0-2.831-2.296-5.127-5.127-5.127s-5.127,2.295-5.127,5.127s2.295,5.127,5.127,5.127
		S475.057,199.793,475.057,196.962z"/>
	<path style="fill:none;stroke:#E7DDDD;stroke-width:3;stroke-linecap:round;stroke-linejoin:round;stroke-miterlimit:10;" d="
		M53.096,242.414c0,2.383-1.932,4.315-4.315,4.315s-4.315-1.932-4.315-4.315c0-2.383,1.932-4.316,4.315-4.316
		S53.096,240.031,53.096,242.414z"/>
	<path style="fill:none;stroke:#E7DDDD;stroke-width:3;stroke-linecap:round;stroke-linejoin:round;stroke-miterlimit:10;" d="
		M208.673,415.539c0,2.423-1.964,4.387-4.387,4.387s-4.387-1.964-4.387-4.387s1.964-4.387,4.387-4.387
		S208.673,413.117,208.673,415.539z"/>
	<path style="fill:none;stroke:#E7DDDD;stroke-width:3;stroke-linecap:round;stroke-linejoin:round;stroke-miterlimit:10;" d="
		M407.719,159.126c-1.23-1.264-0.169-3.597,1.492-4.191s3.492-0.007,5.129,0.647c1.638,0.654,3.365,1.393,5.103,1.09
		c1.737-0.303,3.309-2.184,2.574-3.787"/>
	<path style="fill:none;stroke:#E7DDDD;stroke-width:3;stroke-linecap:round;stroke-linejoin:round;stroke-miterlimit:10;" d="
		M277.983,121.95c-2.821-0.084-4.795-2.883-5.605-5.587c-0.81-2.703-0.972-5.66-2.444-8.068c-1.473-2.408-5.05-3.897-7.127-1.986"/>
	<path style="fill:none;stroke:#E7DDDD;stroke-width:3;stroke-linecap:round;stroke-linejoin:round;stroke-miterlimit:10;" d="
		M19.073,102.324c-1.265,3.381,0.38,9.666,3.603,11.291c1.585,0.799,3.39,1.002,5.124,1.381c1.734,0.379,3.527,1.011,4.636,2.397
		c1.109,1.386,1.19,3.708-0.243,4.756"/>
	<path style="fill:none;stroke:#E7DDDD;stroke-width:3;stroke-linecap:round;stroke-linejoin:round;stroke-miterlimit:10;" d="
		M116.405,431.251c0.499,3.415,5.161,3.296,7.95,1.264c1.426-1.039,2.197-2.725,3.023-4.283c0.827-1.559,1.89-3.162,3.552-3.754
		c1.662-0.592,3.948,0.469,3.908,2.234"/>
	<path style="fill:none;stroke:#E7DDDD;stroke-width:3;stroke-linecap:round;stroke-linejoin:round;stroke-miterlimit:10;" d="
		M464.188,319.739c-2.22-2.195-2.652-5.971-0.984-8.61c0.943-1.492,2.408-2.559,3.737-3.721c1.328-1.162,2.603-2.555,2.929-4.29
		c0.326-1.735-0.69-3.816-2.439-4.054"/>
	<path style="fill:none;stroke:#E7DDDD;stroke-width:3;stroke-linecap:round;stroke-linejoin:round;stroke-miterlimit:10;" d="
		M163.499,77.475c-0.442-2.931,2.223-5.922,5.186-5.82c1.635,0.056,3.125,0.887,4.602,1.591c1.477,0.704,3.138,1.31,4.72,0.891
		c1.581-0.42,2.836-2.305,2.04-3.734"/>
	<g>
		<path style="fill:#EFE8E9;" d="M149.149,451.466c0,2.685-31.024,4.862-69.294,4.862s-69.294-2.177-69.294-4.862
			s31.024-4.862,69.294-4.862S149.149,448.781,149.149,451.466z"/>
		<g>
			<g>
				<path style="fill:#94C19B;" d="M69.224,417.853c17.209-44.398,19.078-94.579,5.217-140.133
					c-4.63,48.427-11.553,96.635-20.739,144.407L69.224,417.853z"/>
				<path style="fill:#94C19B;" d="M43.429,406.95c-11.395-37.243-7.972-78.802,9.364-113.678
					c-13.053,38.151,16.637,80.643,5.346,119.352L43.429,406.95z"/>
				<path style="fill:#94C19B;" d="M120.007,316.391c-22.678,25.37-36.076,16.813-44.346,58.999
					c-1.669,8.516-10.131,40.068,0.796,39.047c10.994-1.026,15.023-33.735,20.606-49.973
					C104.588,342.58,113.633,332.264,120.007,316.391z"/>
				<path style="fill:#BCE0C1;" d="M53.544,403.162c8.822-6.576,13.35-17.664,14.507-28.607c1.157-10.942-0.637-21.953-2.221-32.842
					c-1.583-10.889-2.956-22.019-0.973-32.843c2.231,17.76,13.753,31.188,18.645,48.406c4.845,17.053,1.592,36.222-8.608,50.722
					L53.544,403.162z"/>
				<path style="fill:#BCE0C1;" d="M42.976,414.462c-14.72-27.337-22.722-61.675-12.262-105.591
					c10.442,29.697,25.64,103.519,25.64,103.519L42.976,414.462z"/>
			</g>
			<path style="fill:#849CF1;" d="M91.225,398.746l-4.347,27.917l-3.555,22.959c-0.294,1.879-1.924,3.283-3.826,3.283H38.832
				c-1.947,0-3.6-1.449-3.849-3.396l-6.589-50.853c-0.294-2.332,1.517-4.37,3.849-4.37h55.155
				C89.776,394.285,91.587,396.391,91.225,398.746z"/>
			<path style="fill:#B3C3F7;" d="M91.225,398.746l-4.347,27.917c-7.879-5.253-16.755-14.853-23.479-32.378h24
				C89.776,394.285,91.587,396.391,91.225,398.746z"/>
		</g>
	</g>
</g>
</svg>
